<svg width="20" height="16" viewBox="0 0 20 16" fill="none" xmlns="http://www.w3.org/2000/svg">
<path d="M6.51558 15.2729C13.5914 15.2729 17.4609 9.4108 17.4609 4.3276C17.4609 4.1611 17.4575 3.9953 17.45 3.83041C18.2011 3.28736 18.8539 2.60969 19.3689 1.83834C18.6797 2.14484 17.9378 2.35089 17.1598 2.44412C17.954 1.96768 18.5638 1.21434 18.8513 0.316284C18.1081 0.756941 17.2849 1.07708 16.4086 1.25C15.7067 0.50227 14.7071 0.034668 13.6005 0.034668C11.4762 0.034668 9.75337 1.75739 9.75337 3.88098C9.75337 4.18301 9.7872 4.47655 9.85313 4.75816C6.65593 4.59729 3.82073 3.06663 1.92361 0.738938C1.59337 1.30733 1.4028 1.9678 1.4028 2.67253C1.4028 4.007 2.08196 5.1854 3.11463 5.87454C2.48351 5.85516 1.8907 5.6819 1.37241 5.39352C1.37184 5.40969 1.37184 5.4254 1.37184 5.4426C1.37184 7.30567 2.69782 8.86121 4.45827 9.21369C4.13491 9.30164 3.7947 9.34899 3.44383 9.34899C3.19638 9.34899 2.95513 9.32468 2.72075 9.27962C3.21049 10.8081 4.63073 11.9203 6.31446 11.9515C4.99777 12.9835 3.33914 13.5982 1.5365 13.5982C1.22644 13.5982 0.919945 13.5805 0.618835 13.5449C2.32138 14.6362 4.34303 15.273 6.5157 15.273" fill="white"/>
</svg>
