<svg width="20" height="18" viewBox="0 0 20 18" fill="none" xmlns="http://www.w3.org/2000/svg">
<path d="M17.0808 0.0181825C14.3075 -0.0826509 12.4342 1.50735 11.4458 4.76318C11.9542 4.53568 12.4483 4.43402 12.9267 4.43402C13.9425 4.43402 14.3917 5.01485 14.2717 6.16902C14.2117 6.86818 13.765 7.88485 12.9283 9.22235C12.0875 10.5598 11.4592 11.2298 11.0408 11.2298C9.7725 11.2298 9.01 5.15985 8.75166 3.50235C8.3925 1.19818 7.435 0.120682 5.87916 0.271516C4.45083 0.407349 1.95833 2.97902 0 4.72235L0.940833 5.94902C1.83667 5.31402 2.35917 4.99568 2.50833 4.99568C4.0675 4.99568 4.8225 10.3015 6.03333 14.2473C6.84583 16.4248 7.82 17.514 8.99416 17.514C10.8808 17.514 13.1792 15.7273 15.9025 12.1523C18.5317 8.72985 19.8933 6.03235 19.9808 4.06485L19.9917 4.05652C20.1033 1.41902 19.1408 0.0690158 17.0808 0.0181825Z" fill="white"/>
</svg>
