<svg width="110" height="110" viewBox="0 0 110 110" fill="none" xmlns="http://www.w3.org/2000/svg">
<rect x="60" width="2" height="2" fill="#84AABB"/>
<rect x="60" y="12" width="2" height="2" fill="#84AABB"/>
<rect x="60" y="24" width="2" height="2" fill="#84AABB"/>
<rect x="60" y="36" width="2" height="2" fill="#84AABB"/>
<rect x="60" y="48" width="2" height="2" fill="#84AABB"/>
<rect x="72" width="2" height="2" fill="#84AABB"/>
<rect x="72" y="12" width="2" height="2" fill="#84AABB"/>
<rect x="72" y="24" width="2" height="2" fill="#84AABB"/>
<rect x="72" y="36" width="2" height="2" fill="#84AABB"/>
<rect x="72" y="48" width="2" height="2" fill="#84AABB"/>
<rect x="84" width="2" height="2" fill="#84AABB"/>
<rect x="84" y="12" width="2" height="2" fill="#84AABB"/>
<rect x="84" y="24" width="2" height="2" fill="#84AABB"/>
<rect x="84" y="36" width="2" height="2" fill="#84AABB"/>
<rect x="84" y="48" width="2" height="2" fill="#84AABB"/>
<rect x="96" width="2" height="2" fill="#84AABB"/>
<rect x="96" y="12" width="2" height="2" fill="#84AABB"/>
<rect x="96" y="24" width="2" height="2" fill="#84AABB"/>
<rect x="96" y="36" width="2" height="2" fill="#84AABB"/>
<rect x="96" y="48" width="2" height="2" fill="#84AABB"/>
<rect x="108" width="2" height="2" fill="#84AABB"/>
<rect x="108" y="12" width="2" height="2" fill="#84AABB"/>
<rect x="108" y="24" width="2" height="2" fill="#84AABB"/>
<rect x="108" y="36" width="2" height="2" fill="#84AABB"/>
<rect x="108" y="48" width="2" height="2" fill="#84AABB"/>
<rect width="2" height="2" fill="#84AABB"/>
<rect y="12" width="2" height="2" fill="#84AABB"/>
<rect y="24" width="2" height="2" fill="#84AABB"/>
<rect y="36" width="2" height="2" fill="#84AABB"/>
<rect y="48" width="2" height="2" fill="#84AABB"/>
<rect x="12" width="2" height="2" fill="#84AABB"/>
<rect x="12" y="12" width="2" height="2" fill="#84AABB"/>
<rect x="12" y="24" width="2" height="2" fill="#84AABB"/>
<rect x="12" y="36" width="2" height="2" fill="#84AABB"/>
<rect x="12" y="48" width="2" height="2" fill="#84AABB"/>
<rect x="24" width="2" height="2" fill="#84AABB"/>
<rect x="24" y="12" width="2" height="2" fill="#84AABB"/>
<rect x="24" y="24" width="2" height="2" fill="#84AABB"/>
<rect x="24" y="36" width="2" height="2" fill="#84AABB"/>
<rect x="24" y="48" width="2" height="2" fill="#84AABB"/>
<rect x="36" width="2" height="2" fill="#84AABB"/>
<rect x="36" y="12" width="2" height="2" fill="#84AABB"/>
<rect x="36" y="24" width="2" height="2" fill="#84AABB"/>
<rect x="36" y="36" width="2" height="2" fill="#84AABB"/>
<rect x="36" y="48" width="2" height="2" fill="#84AABB"/>
<rect x="48" width="2" height="2" fill="#84AABB"/>
<rect x="48" y="12" width="2" height="2" fill="#84AABB"/>
<rect x="48" y="24" width="2" height="2" fill="#84AABB"/>
<rect x="48" y="36" width="2" height="2" fill="#84AABB"/>
<rect x="48" y="48" width="2" height="2" fill="#84AABB"/>
<rect x="60" y="60" width="2" height="2" fill="#84AABB"/>
<rect x="60" y="72" width="2" height="2" fill="#84AABB"/>
<rect x="60" y="84" width="2" height="2" fill="#84AABB"/>
<rect x="60" y="96" width="2" height="2" fill="#84AABB"/>
<rect x="60" y="108" width="2" height="2" fill="#84AABB"/>
<rect x="72" y="60" width="2" height="2" fill="#84AABB"/>
<rect x="72" y="72" width="2" height="2" fill="#84AABB"/>
<rect x="72" y="84" width="2" height="2" fill="#84AABB"/>
<rect x="72" y="96" width="2" height="2" fill="#84AABB"/>
<rect x="72" y="108" width="2" height="2" fill="#84AABB"/>
<rect x="84" y="60" width="2" height="2" fill="#84AABB"/>
<rect x="84" y="72" width="2" height="2" fill="#84AABB"/>
<rect x="84" y="84" width="2" height="2" fill="#84AABB"/>
<rect x="84" y="96" width="2" height="2" fill="#84AABB"/>
<rect x="84" y="108" width="2" height="2" fill="#84AABB"/>
<rect x="96" y="60" width="2" height="2" fill="#84AABB"/>
<rect x="96" y="72" width="2" height="2" fill="#84AABB"/>
<rect x="96" y="84" width="2" height="2" fill="#84AABB"/>
<rect x="96" y="96" width="2" height="2" fill="#84AABB"/>
<rect x="96" y="108" width="2" height="2" fill="#84AABB"/>
<rect x="108" y="60" width="2" height="2" fill="#84AABB"/>
<rect x="108" y="72" width="2" height="2" fill="#84AABB"/>
<rect x="108" y="84" width="2" height="2" fill="#84AABB"/>
<rect x="108" y="96" width="2" height="2" fill="#84AABB"/>
<rect x="108" y="108" width="2" height="2" fill="#84AABB"/>
<rect y="60" width="2" height="2" fill="#84AABB"/>
<rect y="72" width="2" height="2" fill="#84AABB"/>
<rect y="84" width="2" height="2" fill="#84AABB"/>
<rect y="96" width="2" height="2" fill="#84AABB"/>
<rect y="108" width="2" height="2" fill="#84AABB"/>
<rect x="12" y="60" width="2" height="2" fill="#84AABB"/>
<rect x="12" y="72" width="2" height="2" fill="#84AABB"/>
<rect x="12" y="84" width="2" height="2" fill="#84AABB"/>
<rect x="12" y="96" width="2" height="2" fill="#84AABB"/>
<rect x="12" y="108" width="2" height="2" fill="#84AABB"/>
<rect x="24" y="60" width="2" height="2" fill="#84AABB"/>
<rect x="24" y="72" width="2" height="2" fill="#84AABB"/>
<rect x="24" y="84" width="2" height="2" fill="#84AABB"/>
<rect x="24" y="96" width="2" height="2" fill="#84AABB"/>
<rect x="24" y="108" width="2" height="2" fill="#84AABB"/>
<rect x="36" y="60" width="2" height="2" fill="#84AABB"/>
<rect x="36" y="72" width="2" height="2" fill="#84AABB"/>
<rect x="36" y="84" width="2" height="2" fill="#84AABB"/>
<rect x="36" y="96" width="2" height="2" fill="#84AABB"/>
<rect x="36" y="108" width="2" height="2" fill="#84AABB"/>
<rect x="48" y="60" width="2" height="2" fill="#84AABB"/>
<rect x="48" y="72" width="2" height="2" fill="#84AABB"/>
<rect x="48" y="84" width="2" height="2" fill="#84AABB"/>
<rect x="48" y="96" width="2" height="2" fill="#84AABB"/>
<rect x="48" y="108" width="2" height="2" fill="#84AABB"/>
</svg>
