<svg width="214" height="352" viewBox="0 0 214 352" fill="none" xmlns="http://www.w3.org/2000/svg">
<path d="M17.2527 26.305C15.2799 21.8154 10.8957 13.3406 10.0431 13.5649C9.19042 13.7892 10.7416 18.3972 10.1654 18.8024C9.58911 19.2077 4.06273 11.381 3.49199 11.7842C2.92124 12.1874 7.81331 20.1785 7.81331 20.1785C7.81331 20.1785 1.78736 12.6532 1.55174 13.2347C1.31612 13.8161 4.0344 18.6455 5.53726 21.2161C4.55608 19.871 1.12611 15.7722 0.907765 16.1933C0.689418 16.6144 5.37488 23.1303 5.37488 23.1303C5.37488 23.1303 1.45225 18.702 1.05494 18.982C0.657632 19.262 4.05099 23.7537 5.12475 25.1346L12.543 34.6676" fill="#DD864B"/>
<path d="M7.80919 32.9571C7.80919 32.9571 4.38335 27.1259 5.13306 26.3463C5.88276 25.5667 14.931 21.1728 15.8431 22.1189C16.7552 23.0649 21.0896 32.1576 21.0896 32.1576" fill="#196461"/>
<path d="M8.54368 32.1645C8.54368 32.1645 5.73008 27.3735 5.76946 25.9032C5.5422 26.0284 5.32867 26.1769 5.13238 26.3463C4.38269 27.1258 7.80848 32.9571 7.80848 32.9571L21.086 32.1576L20.7406 31.431L8.54368 32.1645Z" fill="#FFE633"/>
<path d="M106.644 17.8729C105.878 13.428 104.94 5.075 105.709 4.81766C106.479 4.56033 106.981 8.49327 107.628 8.5146C108.274 8.53592 109.193 -0.241617 109.839 -0.223728C110.484 -0.205838 110.784 8.40244 110.784 8.40244C110.784 8.40244 111.59 -0.417072 112.065 -0.088869C112.54 0.239334 112.907 5.31856 113.058 8.04946C113.127 6.52129 113.68 1.64503 114.061 1.86039C114.443 2.07575 114.154 9.44347 114.154 9.44347C114.154 9.44347 114.914 4.06218 115.365 4.07663C115.816 4.09108 115.487 9.25356 115.365 10.8554C115.079 14.5438 114.793 18.2318 114.51 21.9193" fill="#DD864B"/>
<path d="M104.495 18.6428C104.495 18.6428 104.333 12.4297 105.283 12.1324C106.233 11.8352 115.485 12.292 115.798 13.4576C116.111 14.6232 115.551 23.8672 115.551 23.8672" fill="#196461"/>
<path d="M105.437 18.3263C105.437 18.3263 105.305 13.2223 105.99 12.0553C105.751 12.055 105.512 12.0804 105.278 12.131C104.328 12.4276 104.491 18.6414 104.491 18.6414L115.546 23.8658L115.589 23.1255L105.437 18.3263Z" fill="#FFE633"/>
<path d="M158.821 260.542L194.902 268.513C194.902 268.513 198.524 285.577 202.645 289.679C203.264 290.22 204.01 290.596 204.814 290.773C205.948 291.073 208.586 289.614 208.724 288.454L213.269 253.923C213.648 250.724 209.821 248.543 198.833 247.336L159.033 236.445" fill="#031B2D"/>
<path d="M196.416 267.522C196.416 267.522 177.375 262.81 177.144 262.246C177.144 262.246 176.993 263.1 176.804 264.517L194.908 268.516C194.908 268.516 197.912 282.629 201.558 288.258C198.759 283.405 196.416 267.522 196.416 267.522Z" fill="#FFE633"/>
<path d="M202.029 288.945C201.897 288.782 201.776 288.611 201.666 288.433C201.787 288.612 201.906 288.784 202.029 288.945Z" fill="#FFE633"/>
<path d="M201.664 278.592C201.793 278.592 201.921 278.617 202.04 278.666C202.16 278.715 202.269 278.787 202.36 278.878C202.452 278.969 202.524 279.077 202.574 279.196C202.623 279.315 202.648 279.443 202.648 279.571C202.648 279.831 202.545 280.08 202.36 280.264C202.176 280.448 201.926 280.551 201.665 280.552C201.536 280.552 201.408 280.527 201.288 280.477C201.169 280.428 201.06 280.356 200.969 280.265C200.878 280.174 200.805 280.066 200.756 279.948C200.706 279.829 200.68 279.701 200.68 279.573C200.68 279.444 200.706 279.317 200.755 279.198C200.804 279.079 200.877 278.971 200.968 278.88C201.059 278.789 201.168 278.716 201.287 278.667C201.406 278.618 201.534 278.592 201.664 278.592Z" fill="#9B2710"/>
<path d="M199.676 270.598C199.805 270.598 199.933 270.624 200.053 270.673C200.172 270.722 200.281 270.794 200.372 270.885C200.464 270.976 200.536 271.084 200.585 271.203C200.635 271.322 200.66 271.45 200.66 271.579C200.66 271.707 200.635 271.835 200.586 271.954C200.536 272.073 200.464 272.181 200.373 272.272C200.281 272.363 200.173 272.435 200.054 272.485C199.934 272.534 199.806 272.559 199.677 272.559C199.416 272.559 199.166 272.456 198.981 272.272C198.796 272.088 198.693 271.839 198.692 271.579C198.693 271.319 198.796 271.07 198.981 270.886C199.165 270.703 199.415 270.599 199.676 270.598Z" fill="#9B2710"/>
<path d="M198.833 247.336C198.833 247.336 201.492 256.02 209.82 257.54" stroke="#721C0E" stroke-width="0.5" stroke-linejoin="round"/>
<path d="M206.142 290.609L210.38 254.96C210.449 253.28 210.425 251.597 210.307 249.919" stroke="#721C0E" stroke-width="0.5" stroke-linejoin="round"/>
<path d="M195.924 272.715L200.464 275.764" stroke="#721C0E" stroke-width="0.5" stroke-linecap="round" stroke-linejoin="round"/>
<path d="M196.881 276.598L201.422 279.648" stroke="#721C0E" stroke-width="0.5" stroke-linecap="round" stroke-linejoin="round"/>
<path d="M196.676 275.766L199.677 271.696" stroke="#721C0E" stroke-width="0.5" stroke-linecap="round" stroke-linejoin="round"/>
<path d="M198.197 280.896L200.328 275.968" stroke="#721C0E" stroke-width="0.5" stroke-linecap="round" stroke-linejoin="round"/>
<path d="M199.51 284.405C201.948 284.981 204.489 284.979 206.927 284.4" stroke="#721C0E" stroke-width="0.5" stroke-linejoin="round"/>
<path d="M72.914 164.912C72.914 164.912 84.3793 227.869 115.801 247.37C139.802 262.265 167.896 267.191 179.829 269.543C181.386 269.85 183.001 269.538 184.33 268.675C185.658 267.811 186.595 266.464 186.939 264.922L191.044 246.71C191.387 245.204 191.139 243.625 190.35 242.296C189.562 240.966 188.292 239.988 186.802 239.561C174.158 235.935 143.352 226.331 133.107 216.129C125.629 208.683 119.259 193.572 114.666 179.919C110.846 158.19 108.62 150.518 108.62 150.518" fill="#2BA393"/>
<path d="M117.873 246.132C86.4509 226.633 74.8952 164.912 74.8952 164.912H72.9176C72.9176 164.912 84.3829 227.869 115.805 247.37C139.805 262.265 167.899 267.191 179.832 269.543C180.83 269.733 181.859 269.669 182.825 269.356C170.417 266.929 141.282 260.659 117.873 246.132Z" fill="#FFE633"/>
<path d="M85.0642 190.913C85.0642 190.913 101.099 227.394 112.304 238.554C123.51 249.714 172.004 269.777 186.94 264.921" stroke="#5DC9B7" stroke-width="0.5" stroke-miterlimit="10"/>
<path d="M61.0386 294.592L67.6643 330.8C67.6643 330.8 53.2749 340.746 51.0811 346.119C50.8202 346.898 50.7615 347.729 50.9104 348.536C51.0728 349.693 53.4463 351.549 54.5725 351.224L89.1292 341.523C92.2386 340.628 93.264 338.633 88.7899 326.19L83.4211 285.435" fill="#031B2D"/>
<path d="M69.1684 331.802C69.1684 331.802 66.1399 312.5 66.5718 312.069C66.5718 312.069 65.7247 312.262 64.3407 312.637L67.6642 330.802C67.6642 330.802 55.7693 339.034 51.9738 344.563C55.3782 340.119 69.1684 331.802 69.1684 331.802Z" fill="#FFE633"/>
<path d="M51.5205 345.269C51.6203 345.086 51.7312 344.908 51.8528 344.738C51.734 344.917 51.6214 345.096 51.5205 345.269Z" fill="#FFE633"/>
<path d="M60.9613 340.916C61.0625 341.156 61.0641 341.426 60.9657 341.666C60.8674 341.907 60.6772 342.099 60.4369 342.2C60.1963 342.301 59.9255 342.302 59.6838 342.204C59.4421 342.106 59.2492 341.917 59.1474 341.678C59.097 341.559 59.0705 341.432 59.0696 341.303C59.0686 341.175 59.0932 341.047 59.142 340.928C59.1907 340.808 59.2626 340.7 59.3535 340.608C59.4445 340.517 59.5527 340.444 59.6719 340.394C59.791 340.344 59.9188 340.318 60.0481 340.317C60.1774 340.316 60.3056 340.341 60.4253 340.389C60.545 340.438 60.654 340.509 60.746 340.6C60.838 340.69 60.9112 340.798 60.9613 340.916Z" fill="#9B2710"/>
<path d="M67.5863 335.991C67.6876 336.23 67.6893 336.5 67.5909 336.741C67.4926 336.981 67.3023 337.173 67.0618 337.274C66.9427 337.325 66.8149 337.351 66.6856 337.352C66.5563 337.353 66.4281 337.328 66.3083 337.28C66.1886 337.231 66.0796 337.16 65.9876 337.069C65.8957 336.979 65.8225 336.871 65.7724 336.752C65.7222 336.634 65.6958 336.506 65.695 336.378C65.6942 336.249 65.7188 336.121 65.7675 336.002C65.8162 335.883 65.888 335.774 65.9789 335.683C66.0697 335.591 66.1777 335.518 66.2969 335.468C66.5374 335.368 66.8083 335.366 67.05 335.464C67.2917 335.562 67.4846 335.751 67.5863 335.991Z" fill="#9B2710"/>
<path d="M88.79 326.188C88.79 326.188 81.7821 331.998 83.6076 340.232" stroke="#721C0E" stroke-width="0.5" stroke-linejoin="round"/>
<path d="M51.5765 349.691L87.0473 339.273C88.6293 338.685 90.1773 338.009 91.6844 337.25" stroke="#721C0E" stroke-width="0.5" stroke-linejoin="round"/>
<path d="M64.1721 333.367L63.1121 338.717" stroke="#721C0E" stroke-width="0.5" stroke-linecap="round" stroke-linejoin="round"/>
<path d="M60.9486 335.753L59.8889 341.104" stroke="#721C0E" stroke-width="0.5" stroke-linecap="round" stroke-linejoin="round"/>
<path d="M61.6397 335.241L66.5719 336.416" stroke="#721C0E" stroke-width="0.5" stroke-linecap="round" stroke-linejoin="round"/>
<path d="M57.482 338.629L62.8703 338.672" stroke="#721C0E" stroke-width="0.5" stroke-linecap="round" stroke-linejoin="round"/>
<path d="M54.7446 341.195C55.1583 343.657 56.1458 345.987 57.6278 348" stroke="#721C0E" stroke-width="0.5" stroke-linejoin="round"/>
<path d="M54.0584 156.664C54.0584 156.664 47.8086 207.399 49.4006 231.002C51.5771 263.241 58.4806 300.617 61.0047 316.843C61.2532 318.436 62.0829 319.881 63.335 320.903C64.5871 321.924 66.1736 322.45 67.7907 322.379L88.443 321.496C88.8948 321.478 89.338 321.368 89.7445 321.171C90.1511 320.973 90.512 320.694 90.8044 320.351C91.0967 320.007 91.3142 319.607 91.443 319.176C91.5718 318.744 91.609 318.29 91.5523 317.844C89.7233 303.48 82.909 249.281 82.7867 237.68C82.654 225.131 88.3877 183.88 88.3877 183.88C88.3877 183.88 97.3599 171.468 90.1842 152.279" fill="#2BA393"/>
<path d="M51.26 234.602C49.6659 211.002 55.9157 160.264 55.9157 160.264L54.057 156.663C54.057 156.663 47.8072 207.397 49.3992 231.001C51.5757 263.24 58.4792 300.616 61.0033 316.842C61.2222 318.208 61.8734 319.469 62.862 320.441C60.3386 304.217 53.4365 266.842 51.26 234.602Z" fill="#FFE633"/>
<path d="M60.6247 157.243C60.6247 157.243 54.3749 207.978 55.9669 231.581C58.1414 263.82 62.8703 314.94 68.0837 320.722" stroke="#5DC9B7" stroke-width="0.5" stroke-miterlimit="10"/>
<g style="mix-blend-mode:multiply" opacity="0.25">
<g style="mix-blend-mode:multiply" opacity="0.25">
<g style="mix-blend-mode:multiply" opacity="0.25">
<path d="M42.8253 175.055C44.9589 173.485 47.3565 172.306 49.9056 171.574C51.1604 171.215 52.6598 171.015 53.6369 171.875C54.3154 172.472 54.5406 173.413 54.9179 174.234C55.9509 176.476 58.2663 177.912 60.6578 178.553C63.0492 179.195 65.5637 179.163 68.0428 179.242C70.2954 179.31 73.0724 179.871 73.6832 182.032C74.178 183.787 72.8541 185.536 71.4106 186.653C69.9672 187.769 68.2391 188.685 67.3788 190.293C66.6671 191.627 66.6768 193.206 66.4737 194.7C65.9187 198.624 63.8243 202.17 60.6495 204.559C56.5514 207.611 51.2351 208.344 46.3465 209.841C41.4579 211.339 36.3274 214.281 35.1279 219.236L42.8253 175.055ZM85.6335 216.505C85.0503 215.827 84.2868 215.325 83.4306 215.059C82.5744 214.793 81.6601 214.772 80.7926 214.999C79.9327 215.252 79.1617 215.742 78.5681 216.411C77.9744 217.08 77.582 217.902 77.4359 218.783C77.2569 219.983 77.552 221.231 77.27 222.411C76.7325 224.664 74.3783 225.899 72.3462 227.021C70.3141 228.143 68.1237 229.911 68.3386 232.214C68.539 234.37 70.7736 235.8 71.3954 237.876C72.1603 240.421 70.2636 243.036 68.0788 244.564C65.8939 246.091 63.289 247.083 61.4814 249.04C59.6738 250.997 59.0962 254.517 61.2396 256.102C62.2159 256.737 63.3831 257.013 64.5417 256.885C69.4345 256.61 73.5291 252.834 78.3935 252.242C80.7076 251.96 83.0375 252.422 85.3564 252.677C87.6753 252.932 90.1317 252.952 92.2018 251.889C94.272 250.826 95.7755 248.359 95.0521 246.152C94.4233 244.231 92.3525 242.987 91.9158 241.015C91.5586 239.39 92.4686 237.691 93.7745 236.658C95.1485 235.702 96.7087 235.044 98.3542 234.726C101.838 233.848 105.431 233.23 108.677 231.689C111.923 230.147 114.861 227.474 115.647 223.982C116.011 222.587 115.856 221.108 115.21 219.818C113.942 217.528 110.95 216.769 108.335 216.986C105.721 217.204 103.204 218.156 100.586 218.326C100.434 218.356 100.277 218.352 100.126 218.314C99.9754 218.276 99.8352 218.205 99.7154 218.106C99.4867 217.851 99.5531 217.46 99.5862 217.119C99.8695 214.268 96.6448 212.074 93.7752 212.28C90.9056 212.486 88.4388 214.294 86.1531 216.033L85.6335 216.505ZM118.08 155.432C115.183 160.828 112.286 166.224 109.389 171.619C108.587 172.944 107.995 174.385 107.636 175.891C107.199 178.267 107.924 180.792 107.201 183.099C106.559 185.145 104.894 186.671 103.545 188.339C102.196 190.007 101.082 192.217 101.808 194.233C104.227 195.296 107.285 192.994 109.561 194.33C112.681 196.157 110.276 202.097 113.371 203.966C115.241 205.095 117.6 203.749 119.296 202.374C126.042 196.904 131.752 190.277 136.156 182.806L118.08 155.432ZM137.862 209.571C136.896 211.95 136.642 214.556 137.129 217.075C137.616 219.594 138.824 221.92 140.608 223.771C142.467 225.637 144.945 227.005 146.108 229.369C147.345 231.881 146.775 234.85 146.805 237.649C146.844 240.933 147.746 244.151 149.423 246.98C150.054 248.038 151.05 249.156 152.273 248.98C153.586 248.79 154.188 247.279 154.535 246.003L156.005 240.613C156.121 239.962 156.415 239.355 156.854 238.858C157.488 238.414 158.221 238.131 158.989 238.033C163.804 236.769 166.175 231.133 166.006 226.179C165.836 221.225 163.879 216.508 163.19 211.598L137.862 209.571ZM166.422 284.688C171.538 283.28 176.338 280.914 180.564 277.716C182.181 276.494 183.788 275.025 184.295 273.065C185.313 269.1 181.485 265.565 180.758 261.538C179.929 256.948 183.218 252.144 181.684 247.738C181.222 246.414 179.933 245.101 178.595 245.536C177.932 245.831 177.386 246.336 177.041 246.972C175.614 249.086 174.417 251.345 173.471 253.711C172.771 255.465 171.586 257.663 169.724 257.319C167.781 256.958 167.044 253.938 165.068 253.958C164.513 254.001 163.981 254.198 163.532 254.525C160.961 256.152 159.222 258.768 157.156 260.997C153.72 264.696 149.326 267.38 144.458 268.755L166.422 284.688ZM46.2027 316.437C49.4005 317.147 52.6792 315.808 55.564 314.264C60.3082 311.722 64.6877 308.556 68.5846 304.851C70.6367 302.9 72.6613 300.546 72.787 297.723C72.9377 294.268 70.2698 290.456 72.3034 287.655C72.8561 286.891 73.6853 286.369 74.2747 285.634C76.5701 282.761 74.3141 278.227 75.998 274.961C76.6385 273.714 77.8484 272.658 77.8636 271.259C77.8815 269.396 75.6041 268.208 73.7772 268.599C71.9503 268.99 70.5462 270.404 69.2555 271.751L64.4526 276.77C64.0664 277.23 63.5921 277.609 63.0575 277.884C62.3395 278.124 61.5724 278.182 60.8264 278.051L48.1533 276.881L46.2027 316.437ZM93.5022 282.533C91.2834 282.939 89.2793 284.11 87.8423 285.842C86.4052 287.574 85.6273 289.755 85.6453 292.001C85.7144 293.832 86.2671 295.892 85.1374 297.338C84.5059 297.982 83.7731 298.519 82.9678 298.928C81.8612 299.661 80.9403 300.639 80.2772 301.786C79.6141 302.932 79.2269 304.216 79.146 305.537C79.032 307.693 80.0118 310.111 82.0557 310.835C84.5881 311.73 87.1087 309.729 89.3613 308.267C92.3296 306.346 95.7401 305.207 99.2718 304.96C100.569 304.869 102.087 304.795 102.823 303.727" fill="#2BA393"/>
</g>
</g>
</g>
<path d="M52.7843 150.616C52.095 154.149 51.8112 157.748 51.9386 161.345C72.5764 169.144 99.4729 161.228 99.4729 160.554C99.4729 159.88 94.7357 143.708 94.7357 143.708" fill="#196461"/>
<path d="M65.8532 56.4639C62.5663 58.0547 59.8619 60.6219 57.4172 63.3287C55.7354 65.1864 51.9586 70.5966 55.9773 72.1234C57.0278 72.5231 58.1213 72.8001 59.2358 72.9491L60.0256 78.0964C60.0885 78.9927 60.376 79.859 60.8617 80.6161C61.583 81.394 62.5405 81.9151 63.5875 82.0996C64.9835 82.4687 66.4106 82.7092 67.8508 82.8179C68.4149 82.9005 68.9907 82.8409 69.5257 82.6445C70.7888 82.0727 70.9726 80.3918 70.9767 79.0088" fill="#DD864B"/>
<path d="M62.8177 60.2978C60.6656 60.748 58.541 61.3197 56.4541 62.0104C56.2012 62.0943 55.9013 62.2409 55.9013 62.5065C55.9137 62.6422 55.9722 62.7696 56.0672 62.8677C56.4386 63.3264 56.9085 63.6964 57.4424 63.9505C57.9762 64.2046 58.5605 64.3363 59.1523 64.336" fill="#DD864B"/>
<path d="M64.0173 60.95C63.6702 61.1837 63.3691 61.4787 63.1287 61.8204" stroke="#091319" stroke-miterlimit="10"/>
<path d="M59.8499 68.0419L56.4291 66.4249C56.4291 66.4249 54.728 69.1049 55.8977 69.5728C57.6673 70.2836 59.8499 68.0419 59.8499 68.0419Z" fill="white"/>
<path d="M86.5767 79.2434C89.1803 71.0686 93.6177 60.0377 96.0291 49.4155C99.8295 32.6702 101.296 18.7605 103.209 16.8566C106.334 13.7452 116.511 17.2853 116.514 20.8549C116.204 31.9244 115.171 42.9621 113.422 53.8982C110.218 74.6169 104.566 98.3597 103.208 106.724C101.911 114.721 98.1787 119.003 97.8588 127.091C97.7017 131.086 97.6156 135.083 97.6004 139.081C97.5956 140.77 97.6785 142.47 97.6349 144.157C97.59 145.878 97.0753 147.383 97.6716 149.095C98.1034 150.341 98.6963 151.648 98.3625 152.923C97.9224 154.604 96.0899 155.477 94.4316 156.01C82.6921 159.787 69.9589 157.592 57.8255 155.374C56.0366 155.046 54.1924 154.697 52.6813 153.69C52.0028 153.285 51.4796 152.666 51.195 151.931C51.0386 151.268 51.0093 150.581 51.1086 149.907C51.3719 145.887 50.2166 141.426 49.3059 137.522C48.3385 133.371 47.3131 129.235 46.3928 125.074C44.3323 115.765 42.7562 106.3 42.7562 96.7421C24.9935 64.0724 7.2294 42.4544 7.2294 32.62C7.2294 29.4191 9.80119 28.9891 12.8781 28.0169C15.2882 27.2552 18.0092 26.1199 20.0413 27.1224C24.6708 29.4033 50.8267 75.1687 56.1886 77.3065C60.4671 79.0122 65.0731 78.47 67.8238 78.7108C72.3006 79.1044 75.6808 80.6209 80.1528 80.1778" fill="#053A36"/>
<path d="M87.4971 77.7318C90.1021 71.2448 95.2477 58.5591 97.6577 47.9389C101.261 32.0675 102.913 17.2571 105.655 15.7592C104.743 15.8599 103.887 16.2453 103.209 16.86C101.296 18.7653 99.8294 32.6757 96.0291 49.421C93.7552 59.4418 89.6951 69.795 87.0549 77.802L87.4971 77.7318Z" fill="#FFE633"/>
<path d="M53.9361 154.048C53.7815 153.384 53.7522 152.698 53.8498 152.024C54.1144 148.004 52.9591 143.542 52.0491 139.639C51.0818 135.489 48.2357 127.723 47.3139 123.563C45.2535 114.255 43.6774 104.79 43.6774 95.2318C26.5207 63.6748 9.01093 40.8663 7.83629 30.4856C7.41411 31.1155 7.20207 31.8618 7.23031 32.6186C7.23031 42.4516 24.9944 64.0718 42.757 96.7407C42.757 106.299 44.3324 115.763 46.3936 125.072C47.3139 129.234 48.3386 133.371 49.3067 137.52C50.2167 141.425 51.372 145.887 51.1094 149.906C51.0101 150.58 51.0394 151.266 51.1958 151.93C51.4805 152.665 52.0036 153.284 52.682 153.688C53.1305 153.978 53.6074 154.221 54.1054 154.414C54.04 154.296 53.9835 154.174 53.9361 154.048Z" fill="#FFE633"/>
<path d="M95.3521 154.498C90.2435 156.182 84.9832 157.37 79.6449 158.045C84.6518 158.166 89.6453 157.478 94.4317 156.01C96.09 155.476 97.9225 154.604 98.3626 152.923V152.9C97.488 153.645 96.4605 154.19 95.3521 154.498Z" fill="#FFE633"/>
<path d="M42.7583 99.2631C43.5875 103.181 45.4745 106.788 47.4624 110.272C53.8507 121.466 61.4524 131.928 70.1311 141.471C68.9812 143.465 68.0385 145.57 67.3175 147.754C56.4022 138.665 39.0588 113.846 42.7583 99.2631Z" fill="#601E15"/>
<path d="M42.4018 101.265C40.6012 116.021 56.8871 139.067 67.3158 147.753C67.3752 147.576 67.4581 147.409 67.5196 147.23C58.0901 138.594 43.8052 117.471 42.4018 101.265Z" fill="#FFE633"/>
<path d="M66.2388 98.046C64.8085 104.826 64.8417 111.816 64.8818 118.745C64.9315 127.667 64.9813 133.583 65.0324 142.506C65.0718 149.468 65.6812 156.057 71.4529 159.983C74.5063 162.063 78.3729 162.452 82.0585 162.778C90.9119 163.563 99.9546 164.334 108.592 162.236C110.457 161.783 112.387 161.135 113.66 159.706C115.273 157.892 115.465 155.261 115.522 152.839C115.853 138.945 114.403 129.518 111.224 115.986C110.731 113.706 110.065 111.467 109.232 109.287C107.885 105.997 105.899 103.003 103.389 100.477C100.879 97.9516 97.8942 95.9433 94.6044 94.5671C91.3004 93.2237 87.7629 92.5421 84.1941 92.5614C80.6254 92.5806 77.0955 93.3003 73.8063 94.6793" fill="#601E15"/>
<path d="M96.9102 126.648C96.9102 126.648 96.5329 129.332 98.1732 129.332C99.8136 129.332 104.919 129.818 104.919 128.801V126.38" fill="#3F1A11"/>
<path d="M70.7493 123.783C70.5226 125.284 70.7479 126.819 71.3968 128.193C71.6366 128.696 72.2661 129.233 72.6627 128.841C72.7985 128.674 72.8664 128.463 72.8528 128.249C72.8748 127.471 72.7079 126.699 72.3664 125.999C72.0249 125.299 71.5188 124.691 70.891 124.227" fill="#3F1A11"/>
<path d="M92.3048 133.61C92.0765 135.112 92.3019 136.647 92.9523 138.021C93.1906 138.524 93.8194 139.06 94.2181 138.668C94.3532 138.501 94.421 138.29 94.4081 138.076C94.4298 137.299 94.2629 136.527 93.9216 135.827C93.5802 135.127 93.0745 134.519 92.4472 134.055" fill="#3F1A11"/>
<path d="M65.7475 133.969C65.7475 133.969 73.8317 137.539 82.4756 135.661" stroke="#B2683F" stroke-width="0.5" stroke-linejoin="round"/>
<path d="M86.4792 163.097C85.5388 162.897 84.7002 162.372 84.1127 161.614C83.5253 160.856 83.2273 159.915 83.2718 158.958C83.2718 155.389 81.3267 120.799 83.2718 118.862" stroke="#B2683F" stroke-width="0.5" stroke-linejoin="round"/>
<path d="M76.9294 101.049C75.9199 101.049 70.3902 102.672 70.3902 108.011C70.3902 113.35 70.1947 124.262 70.1947 124.262L71.3631 125.087C71.3631 125.087 71.8875 109.359 71.9918 107.754C72.2385 103.969 78.1123 102.297 78.1123 102.297" fill="#38110D"/>
<path d="M86.5007 147.705C90.821 148.028 95.1596 148.028 99.48 147.705C99.48 147.705 101.395 162.713 98.6508 163.363C94.6749 164.302 88.9184 164.381 87.3879 162.995C85.5686 161.344 86.5007 147.705 86.5007 147.705Z" fill="#7F3622"/>
<path d="M104.046 146.93C104.046 146.93 110.418 147.305 115.521 145.658C115.521 145.658 116.609 157.722 114.525 159.796C111.261 163.046 106.648 162.379 105.162 161.114C103.675 159.849 104.046 146.93 104.046 146.93Z" fill="#7F3622"/>
<path d="M86.5008 147.705C90.7962 148.433 95.1844 148.433 99.4798 147.705" stroke="#B2683F" stroke-width="0.5" stroke-linecap="round" stroke-linejoin="round"/>
<path d="M104.046 146.93C104.046 146.93 111.483 147.034 115.521 145.658" stroke="#B2683F" stroke-width="0.5" stroke-linecap="round" stroke-linejoin="round"/>
<path d="M71.3631 100.148C72.3304 100.148 76.8562 102.778 79.6616 108.603C82.0882 113.643 83.6339 124.153 85.5348 126.049C87.4356 127.944 112.063 128.27 112.95 124.26C113.837 120.249 110.242 95.4547 90.9471 93.3259" fill="#7F3622"/>
<path d="M74.8919 100.148C75.7742 100.148 79.9186 102.556 82.487 107.886C84.7084 112.496 86.1214 122.118 87.8627 123.849C89.6039 125.58 112.14 125.881 112.951 122.212" stroke="#B2683F" stroke-width="0.5" stroke-linejoin="round"/>
<path d="M91.8369 133.969C98.3273 134.132 104.82 133.74 111.243 132.8" stroke="#B2683F" stroke-width="0.5" stroke-linecap="round" stroke-linejoin="round"/>
<path d="M70.8399 55.5777C69.7857 55.4255 68.7102 55.6082 67.7664 56.0999C66.1129 57.0852 65.6299 59.265 65.699 61.1826C65.8663 65.8139 65.3066 69.3705 61.31 72.3078C59.9495 73.3069 58.392 74.0417 57.1455 75.1791C55.899 76.3164 54.9786 78.0386 55.4326 79.6604C56.4062 83.1378 62.3727 83.2025 63.2033 86.7178C63.6731 88.7132 62.1426 90.553 61.3031 92.4239C60.7806 93.6112 60.5215 94.8969 60.5435 96.1931C60.5654 97.4893 60.8679 98.7655 61.4302 99.9347C62.0088 101.096 62.832 102.119 63.8436 102.935C64.8552 103.751 66.0315 104.341 67.2924 104.663C70.5794 105.477 74.4592 104.501 77.1256 106.581C78.9691 108.022 79.6048 110.497 81.0089 112.368C84.4153 116.909 90.7515 120.533 96.4741 120.561C101.435 120.585 108.29 118.1 110.068 113.073C110.756 110.788 111.009 108.395 110.816 106.018C110.669 101.748 109.783 96.5226 106.35 93.5165C103.926 91.3952 99.3244 91.4626 98.2485 87.9226C97.143 84.2952 101.41 79.8035 98.8165 77.0265C97.4166 75.5286 93.8415 75.2121 91.913 74.7422C89.3744 74.1229 86.9097 74.1229 85.1008 71.8812C84.3925 70.9015 83.8434 69.8169 83.4735 68.6673C82.7503 66.7605 82.026 64.8536 81.3004 62.9468" fill="#031B2D"/>
<path d="M85.038 61.2748C85.0214 61.1475 85.0034 61.0209 84.9848 60.8957C84.3456 56.7391 81.921 54.7135 78.679 52.584C74.2071 49.6487 67.0998 50.2136 63.2338 54.3041C63.0115 54.5504 62.8665 54.8561 62.8165 55.1835C62.7665 55.5109 62.8138 55.8457 62.9526 56.1467C64.0581 58.2219 66.594 59.5237 67.2366 61.8411C67.4199 62.6187 67.404 63.4298 67.1903 64.1997C66.7847 65.8841 65.6446 67.5072 65.4857 69.2432C65.3475 70.7411 66.5186 72.1475 67.5731 73.0385C70.3936 75.4233 77.7994 76.3563 81.3171 75.2699C86.7875 73.58 85.7165 66.6135 85.038 61.2748Z" fill="#DB340A"/>
<path d="M63.2359 54.3034C64.6358 55.7834 66.7812 58.0451 68.13 59.6139C69.2998 60.9755 70.1476 62.7101 69.6626 64.6043C69.0352 67.0401 66.9153 69.2074 68.8783 71.6569C70.3501 73.4947 72.7712 74.416 74.9678 74.7291C77.4056 75.0766 82.6611 73.9509 84.8487 72.9291" stroke="#F7882D" stroke-width="0.5" stroke-miterlimit="10"/>
<path d="M63.6968 55.33C67.7548 51.2409 75.2194 50.676 79.9152 53.6099C80.4182 53.925 80.8936 54.2381 81.3552 54.5546C80.5054 53.8425 79.6116 53.1841 78.6791 52.5833C74.2071 49.648 67.0998 50.2129 63.2338 54.3034C63.0115 54.5498 62.8665 54.8555 62.8165 55.1829C62.7665 55.5103 62.8138 55.8451 62.9526 56.146C63.0389 56.3077 63.1481 56.4591 63.2504 56.6125C63.2314 56.3796 63.2612 56.1453 63.3381 55.9245C63.4149 55.7037 63.5371 55.5013 63.6968 55.33Z" fill="#FFE633"/>
<path d="M66.0619 70.2671C66.2291 68.5332 67.4273 66.908 67.853 65.2257C68.077 64.4573 68.0934 63.6437 67.9006 62.867C67.705 62.2481 67.3908 61.6729 66.9754 61.173C67.0814 61.3877 67.169 61.611 67.2373 61.8404C67.4206 62.6181 67.4046 63.4291 67.191 64.1991C66.7854 65.8834 65.6452 67.5066 65.4863 69.2425C65.4564 70.1431 65.7571 71.0237 66.332 71.7195C66.1189 71.2663 66.0259 70.7662 66.0619 70.2671Z" fill="#FFE633"/>
<path d="M67.1854 61.9525C68.7924 59.5365 71.0506 57.6203 73.7012 56.4236C76.3517 55.227 79.2873 54.7984 82.1712 55.1869C82.1712 54.7926 80.5889 53.1 79.0764 52.3996C74.5228 52.1243 68.5217 55.8192 66.0287 59.7797" fill="#091319"/>
<path d="M79.7976 52.7869C79.5652 52.6436 79.3243 52.5142 79.0763 52.3996C74.5228 52.1243 68.5217 55.8192 66.0287 59.7783L66.209 60.1175C69.0627 56.2892 75.2973 52.3851 79.7976 52.7869Z" fill="#FFB133"/>
<path d="M79.8687 47.9348L79.0513 46.8291C79.0513 46.8291 79.2088 45.1873 81.3502 44.7821C82.1722 44.5822 83.0378 44.6634 83.8079 45.0126L85.0641 46.8015" fill="#FFB133"/>
<path d="M79.3823 54.0482C80.814 52.1592 82.2453 50.2705 83.6761 48.382" stroke="#0E1C26" stroke-linecap="round" stroke-linejoin="round"/>
<path d="M81.6073 47.4043L79.0508 50.6498L85.7269 50.9622L88.5653 47.9348L81.6073 47.4043Z" fill="#123A49"/>
<path d="M81.6073 47.4043L80.6399 45.9944L87.316 46.3068L88.5597 47.9368L81.6073 47.4043Z" fill="#FFE633"/>
<path d="M81.6073 47.4043L80.6399 45.9944L78.1289 49.1664L79.0486 50.6498L81.6073 47.4043Z" fill="#FFB133"/>
</svg>
