<svg width="178" height="310" viewBox="0 0 178 310" fill="none" xmlns="http://www.w3.org/2000/svg">
<path d="M27.3106 249.697L34.1713 266.371C34.1713 266.371 20.0333 269.217 15.9152 273.32C15.3702 273.936 14.9914 274.679 14.8145 275.481C14.5132 276.608 15.9746 279.237 17.1396 279.374L54.4457 284.511C57.658 284.89 60.0502 279.667 59.0814 276.593L46.4312 236.436" fill="#DB340A"/>
<path d="M30.3674 251.094C30.3674 251.094 29.7967 250.049 28.9226 248.579L27.3106 249.697L34.1712 266.371C34.1712 266.371 20.0334 269.217 15.9152 273.32C15.3703 273.936 14.9915 274.679 14.8145 275.481C15.8289 270.404 36.7229 267.588 36.7229 267.588L30.3674 251.094Z" fill="#FFE633"/>
<path d="M27.0487 272.347C27.0488 272.476 27.0234 272.603 26.974 272.722C26.9245 272.841 26.852 272.949 26.7605 273.04C26.6691 273.131 26.5605 273.204 26.441 273.253C26.3215 273.302 26.1934 273.327 26.0641 273.327C25.9348 273.327 25.8069 273.302 25.6875 273.253C25.5681 273.203 25.4597 273.131 25.3683 273.04C25.277 272.949 25.2046 272.841 25.1553 272.722C25.1059 272.603 25.0807 272.475 25.0808 272.347C25.0808 272.087 25.1844 271.838 25.3688 271.654C25.5532 271.471 25.8033 271.368 26.0641 271.368C26.1933 271.368 26.3213 271.393 26.4407 271.442C26.5601 271.491 26.6686 271.563 26.7601 271.654C26.8515 271.745 26.924 271.853 26.9736 271.972C27.0231 272.091 27.0486 272.218 27.0487 272.347Z" fill="#9B2710"/>
<path d="M35.0757 270.375C35.0757 270.504 35.0504 270.631 35.0009 270.75C34.9515 270.869 34.8789 270.977 34.7875 271.068C34.696 271.159 34.5874 271.232 34.4679 271.281C34.3484 271.33 34.2204 271.355 34.091 271.355C33.83 271.355 33.5796 271.252 33.395 271.068C33.2104 270.884 33.1066 270.635 33.1064 270.375C33.1068 270.115 33.2107 269.866 33.3953 269.682C33.5799 269.499 33.8301 269.396 34.091 269.396C34.2202 269.396 34.3482 269.421 34.4676 269.47C34.587 269.519 34.6955 269.591 34.787 269.682C34.8784 269.773 34.951 269.881 35.0005 270C35.05 270.119 35.0756 270.246 35.0757 270.375Z" fill="#9B2710"/>
<path d="M57.1223 270.373C57.1223 270.373 47.9568 272.487 49.8631 281.188" stroke="#721C0E" stroke-width="0.5" stroke-linejoin="round"/>
<path d="M14.9782 276.802L53.4049 281.633C55.0931 281.704 56.784 281.681 58.4697 281.564" stroke="#721C0E" stroke-width="0.5" stroke-linejoin="round"/>
<path d="M32.9538 266.635L29.8893 271.155" stroke="#721C0E" stroke-width="0.5" stroke-linecap="round" stroke-linejoin="round"/>
<path d="M29.0526 267.586L25.988 272.106" stroke="#721C0E" stroke-width="0.5" stroke-linecap="round" stroke-linejoin="round"/>
<path d="M29.8893 267.382L33.9751 270.373" stroke="#721C0E" stroke-width="0.5" stroke-linecap="round" stroke-linejoin="round"/>
<path d="M24.7361 268.895L29.6842 271.019" stroke="#721C0E" stroke-width="0.5" stroke-linecap="round" stroke-linejoin="round"/>
<path d="M21.2129 270.199C20.6323 272.627 20.6323 275.157 21.2129 277.584" stroke="#721C0E" stroke-width="0.5" stroke-linejoin="round"/>
<path d="M29.8894 255.963C29.8894 255.963 44.0403 254.975 51.5994 252.841" stroke="#721C0E" stroke-width="0.5" stroke-linejoin="round"/>
<path d="M117.356 275.127L125.693 293.479C125.693 293.479 112.988 299.338 110.027 304.134C109.651 304.838 109.461 305.625 109.474 306.422C109.445 307.555 111.421 309.708 112.551 309.577L148.937 306.056C152.055 305.693 153.132 300.227 151.521 297.542L136.417 260.95" fill="#DB340A"/>
<path d="M128.486 295.017L119.933 276.802C119.933 276.802 119.399 277.122 118.507 277.659L125.693 293.48C125.693 293.48 112.988 299.338 110.027 304.135C109.651 304.839 109.461 305.626 109.474 306.423C111.607 299.524 128.486 295.017 128.486 295.017Z" fill="#FFE633"/>
<path d="M120.32 300.72C120.35 300.842 120.354 300.968 120.335 301.091C120.315 301.215 120.271 301.333 120.206 301.439C120.14 301.546 120.054 301.639 119.952 301.712C119.851 301.785 119.736 301.838 119.614 301.867C119.367 301.925 119.107 301.884 118.891 301.752C118.675 301.619 118.521 301.407 118.462 301.162C118.433 301.04 118.428 300.914 118.448 300.791C118.468 300.668 118.512 300.549 118.577 300.443C118.643 300.336 118.729 300.244 118.831 300.171C118.933 300.098 119.048 300.045 119.17 300.016C119.292 299.987 119.418 299.982 119.542 300.002C119.666 300.022 119.785 300.065 119.892 300.131C119.999 300.196 120.091 300.282 120.165 300.383C120.238 300.484 120.291 300.599 120.32 300.72Z" fill="#9B2710"/>
<path d="M127.453 297.053C127.512 297.299 127.471 297.558 127.338 297.773C127.206 297.988 126.993 298.142 126.746 298.2C126.5 298.259 126.24 298.217 126.024 298.085C125.808 297.953 125.654 297.741 125.595 297.495C125.536 297.25 125.578 296.991 125.711 296.777C125.844 296.562 126.056 296.408 126.303 296.35C126.425 296.321 126.551 296.316 126.675 296.335C126.799 296.355 126.918 296.399 127.024 296.464C127.131 296.529 127.224 296.615 127.298 296.716C127.371 296.817 127.424 296.932 127.453 297.053Z" fill="#9B2710"/>
<path d="M149.222 291.959C149.222 291.959 140.092 296.16 143.861 303.948" stroke="#721C0E" stroke-width="0.5" stroke-linejoin="round"/>
<path d="M109.932 307.633L147.307 303.574C148.918 303.26 150.509 302.859 152.075 302.37" stroke="#721C0E" stroke-width="0.5" stroke-linejoin="round"/>
<path d="M124.603 294.001L122.733 298.956" stroke="#721C0E" stroke-width="0.5" stroke-linecap="round" stroke-linejoin="round"/>
<path d="M121.136 295.774L119.265 300.729" stroke="#721C0E" stroke-width="0.5" stroke-linecap="round" stroke-linejoin="round"/>
<path d="M121.879 295.394L126.414 297.301" stroke="#721C0E" stroke-width="0.5" stroke-linecap="round" stroke-linejoin="round"/>
<path d="M117.357 297.978L122.509 298.873" stroke="#721C0E" stroke-width="0.5" stroke-linecap="round" stroke-linejoin="round"/>
<path d="M114.324 300C114.326 302.423 114.899 304.812 115.996 306.974" stroke="#721C0E" stroke-width="0.5" stroke-linejoin="round"/>
<path d="M121.137 283.446C121.137 283.446 133.901 282.965 142.95 277.343" stroke="#721C0E" stroke-width="0.5" stroke-linejoin="round"/>
<path d="M79.4109 115.296C79.4109 115.296 77.6635 175.522 85.1059 206.067C90.9004 229.845 111.017 267.265 117.021 277.85C117.496 278.687 118.227 279.35 119.108 279.742C119.989 280.135 120.974 280.235 121.917 280.029L140.987 275.918C141.498 275.809 141.98 275.595 142.404 275.291C142.828 274.987 143.184 274.598 143.45 274.151C143.716 273.703 143.886 273.205 143.95 272.689C144.014 272.173 143.969 271.649 143.82 271.15C139.567 256.967 123.605 208.704 121.895 198.888C120.48 190.769 120.526 165.858 121.895 160.695C122.953 156.704 128.528 133.293 118.09 117.591" fill="#031B2D"/>
<g style="mix-blend-mode:screen">
<path d="M87.7909 208.443C80.3478 177.899 83.947 117.704 83.947 117.704L119.477 119.917C119.047 119.128 118.592 118.349 118.089 117.592L79.4087 115.296C79.4087 115.296 77.6613 175.522 85.1037 206.067C90.8982 229.845 111.015 267.265 117.019 277.85C117.571 278.818 118.465 279.546 119.528 279.892C113.298 268.859 93.5225 231.967 87.7909 208.443Z" fill="#FFE633"/>
</g>
<path d="M85.5951 132.551C85.5951 132.551 83.0115 176.224 89.7063 206.067C95.0641 229.942 115.915 269.446 121.918 280.029" stroke="#174866" stroke-width="0.5" stroke-miterlimit="10"/>
<path d="M63.1331 118.923C63.1331 118.923 61.8354 125.698 59.5345 127.99C57.2336 130.281 4.08027 143.825 0.49691 169.872C-3.43055 198.42 18.0033 238.895 24.7837 250.826C25.3581 251.835 26.2323 252.643 27.2861 253.138C28.34 253.633 29.5218 253.79 30.6694 253.59L47.3908 250.7C48.1149 250.576 48.8046 250.301 49.4144 249.892C50.0243 249.484 50.5406 248.952 50.9295 248.332C51.3184 247.711 51.571 247.015 51.6709 246.29C51.7708 245.565 51.7156 244.828 51.5089 244.125C47.2153 229.564 38.2666 190.989 42.3661 183.528C47.4419 174.29 72.7638 171.36 87.0025 167.344C97.5177 164.379 115.734 148.776 106.192 124.011" fill="#031B2D"/>
<path d="M82.5445 139.095C82.5445 139.095 90.6509 145.769 99.5472 148.113C99.5472 148.113 94.8486 160.438 86.2999 160.438C76.9864 160.438 73.1598 154.051 72.3292 151.142C71.3398 147.685 82.5445 139.095 82.5445 139.095Z" fill="#062D38"/>
<path d="M121.152 163.804C121.208 163.749 121.264 163.69 121.317 163.631C123.679 160.967 124.604 153.435 124.042 148.073C120.178 148.961 116.208 149.307 112.248 149.101C112.248 149.101 108.808 160.729 111.056 162.669C113.202 164.522 118.772 166.121 121.152 163.804Z" fill="#062D38"/>
<g style="mix-blend-mode:screen">
<path d="M26.3087 251C19.5275 239.069 -0.0862495 198.594 3.84397 170.046C7.42733 144.001 60.5814 132.272 62.8816 129.979C65.1818 127.685 64.6608 119.158 64.6574 119.107L63.1331 118.926C63.1331 118.926 61.8355 125.701 59.5346 127.992C57.2336 130.284 4.08027 143.828 0.49691 169.875C-3.43055 198.423 18.0033 238.898 24.7837 250.828C25.2889 251.715 26.027 252.448 26.919 252.949C27.8109 253.45 28.823 253.699 29.8464 253.67C29.1056 253.488 28.4098 253.157 27.8016 252.697C27.1934 252.238 26.6854 251.661 26.3087 251Z" fill="#FFE633"/>
</g>
<path d="M34.1954 252.534C27.4128 240.603 6.97126 196.481 9.6073 169.984C11.893 146.989 65.1507 133.448 68.2642 131.404C71.3777 129.361 72.2925 120.416 72.2925 120.416" stroke="#174866" stroke-width="0.5" stroke-miterlimit="10"/>
<path d="M80.7722 168.913C80.7722 168.913 102.285 164.785 107.665 146.932" stroke="#174866" stroke-width="0.5" stroke-miterlimit="10"/>
<path d="M54.6087 65.6915C58.6467 83.776 60.4444 102.285 59.9617 120.805C59.8362 121.713 60.0191 122.636 60.4813 123.428C61.079 124.218 62.1465 124.461 63.1229 124.632C80.5848 127.736 98.4951 127.313 115.79 123.389C116.618 123.274 117.399 122.938 118.051 122.417C118.875 121.626 119.006 120.378 119.075 119.24C119.772 107.695 119.097 95.9034 115.285 84.9785C111.474 74.0535 104.286 64.0161 94.1694 58.3328" fill="#DB340A"/>
<g style="mix-blend-mode:screen">
<path d="M63.2728 124.637C62.7858 123.86 62.5737 122.942 62.6702 122.03C62.5681 103.506 60.1868 85.0635 55.5795 67.1158L94.5736 58.588C94.4354 58.5075 94.3089 58.4085 94.168 58.3293L54.6073 65.6915C58.6453 83.776 60.443 102.285 59.9603 120.805C59.8347 121.713 60.0176 122.636 60.4799 123.428C61.0775 124.218 62.1451 124.461 63.1214 124.632C63.1774 124.644 63.2354 124.648 63.2921 124.658L63.2728 124.637Z" fill="#FFE633"/>
</g>
<path d="M74.0174 29.8554C74.0174 29.8554 74.9522 42.0272 75.8263 47.8578C78.1404 50.1621 94.5833 47.8578 94.5833 47.8578L86.4651 27.4177" fill="#DD864B"/>
<path d="M77.718 10.9352C77.718 10.9352 62.1118 26.4736 67.3141 31.654C72.5164 36.8344 90.4857 36.8344 90.4857 31.654C90.4857 26.4736 89.5391 10.9352 77.718 10.9352Z" fill="#DD864B"/>
<path d="M77.6075 25.6026C78.0105 26.0264 78.5169 26.339 79.0773 26.51C79.6377 26.6809 80.233 26.7045 80.8053 26.5782C81.5007 26.391 82.1319 26.0187 82.631 25.5014C83.1301 24.984 83.4783 24.3411 83.6382 23.6416C84.1592 21.4164 82.872 19.2807 81.5543 17.5929C80.3195 16.0104 79.1926 14.7911 77.034 14.8833C76.1551 14.9212 75.1387 14.9521 74.5583 14.2902C74.2196 13.7668 74.0103 13.171 73.9474 12.5515C73.7794 11.7768 73.3524 11.0819 72.7362 10.5802C72.426 10.3357 72.0567 10.1767 71.6654 10.1191C71.274 10.0615 70.8744 10.1073 70.5064 10.252C70.1429 10.4327 69.8373 10.7111 69.6243 11.0557C69.4114 11.4003 69.2995 11.7974 69.3014 12.202C69.312 12.6056 69.4049 13.0028 69.5746 13.3695C69.7442 13.7361 69.9869 14.0646 70.2881 14.335C70.6488 14.6728 71.1172 15.0106 71.1242 15.5047C71.1242 15.8673 70.8692 16.1851 70.8381 16.5464C70.7849 17.1429 71.3777 17.6163 71.9637 17.7525C72.5496 17.8888 73.1687 17.8083 73.7602 17.9273C74.3338 18.0828 74.8609 18.3751 75.2957 18.7788C75.7305 19.1826 76.0601 19.6857 76.256 20.2447C76.8682 21.7625 76.4494 23.5143 77.166 24.9551C77.6939 26.0182 78.8374 26.7337 79.4461 27.783C79.8924 28.6414 80.2516 29.5419 80.5185 30.4713C80.8875 31.5556 81.318 32.6173 81.7484 33.6783C81.933 34.2282 82.2204 34.7383 82.5956 35.1817C83.2535 35.7543 84.0782 36.102 84.949 36.1739C87.1767 36.5365 89.6856 36.403 91.3674 34.9017C91.6923 34.6357 91.9398 34.2878 92.0839 33.8943C92.1944 33.3661 92.1728 32.8188 92.021 32.3008C91.7928 31.1444 91.6469 29.9734 91.5843 28.7965C91.5083 27.3888 91.5332 25.9005 90.8298 24.6765" fill="#5B3719"/>
<path d="M96.8447 19.8862C96.8281 19.7596 96.8115 19.6344 96.7915 19.5071C96.1523 15.3519 93.7277 13.3249 90.4857 11.1974C86.0138 8.26216 78.9066 8.82568 75.0406 12.9176C74.8188 13.1639 74.674 13.4693 74.624 13.7964C74.5741 14.1235 74.6211 14.458 74.7594 14.7588C75.8649 16.834 78.4022 18.1358 79.0434 20.4532C79.2275 21.2307 79.2115 22.042 78.9971 22.8118C78.5935 24.4962 77.4514 26.1214 77.2938 27.8553C77.1557 29.3532 78.3248 30.7596 79.3792 31.6513C82.1997 34.0375 86.6343 35.19 90.1506 34.1035C95.621 32.4123 97.5253 25.2248 96.8447 19.8862Z" fill="#031B2D"/>
<path d="M75.0407 12.9162C76.4406 14.3962 78.586 16.6558 79.9348 18.2245C81.1046 19.5862 81.9538 21.3249 81.4673 23.215C80.8399 25.6507 78.7201 27.8181 80.6831 30.269C82.1541 32.1047 84.576 33.0281 86.7725 33.3411C89.2103 33.6852 91.4932 32.7811 93.6822 31.7586" stroke="#41526D" stroke-width="0.5" stroke-linejoin="round"/>
<path d="M75.5041 13.9434C79.5643 9.85294 87.0268 9.28942 91.7226 12.2233C92.2257 12.5364 92.7011 12.8494 93.1626 13.1659C92.3127 12.4545 91.4189 11.7968 90.4865 11.1967C86.0145 8.26146 78.9072 8.82498 75.0412 12.9169C74.8193 13.1632 74.6746 13.4686 74.6246 13.7957C74.5746 14.1228 74.6217 14.4573 74.7599 14.7581C74.8477 14.9212 74.9555 15.0712 75.0577 15.226C75.0384 14.993 75.0682 14.7586 75.145 14.5378C75.2219 14.317 75.3442 14.1145 75.5041 13.9434Z" fill="#FFE633"/>
<path d="M77.8694 28.8805C78.0366 27.1466 79.2348 25.5214 79.6604 23.837C79.8855 23.0689 79.9022 22.255 79.7088 21.4784C79.5131 20.8595 79.1989 20.2842 78.7835 19.7844C78.8893 19.9991 78.9767 20.2224 79.0447 20.4518C79.2289 21.2294 79.2129 22.0406 78.9984 22.8104C78.5949 24.4948 77.4527 26.12 77.2951 27.8539C77.2631 28.7556 77.5634 29.6379 78.1395 30.3343C77.926 29.8807 77.833 29.3801 77.8694 28.8805Z" fill="#FFE633"/>
<path d="M78.9943 20.566C80.6005 18.1497 82.8583 16.2332 85.5086 15.0365C88.1588 13.8398 91.0942 13.4114 93.9779 13.8003C93.9779 13.4067 92.3956 11.7134 90.8844 11.015C86.3309 10.7398 80.3278 14.4347 77.8369 18.3938" fill="#091319"/>
<path d="M91.6051 11.3983C91.3732 11.2554 91.1328 11.1267 90.8851 11.013C86.3316 10.7378 80.3285 14.4326 77.8362 18.3917L78.0165 18.7296C80.8716 14.9019 87.1035 10.9979 91.6051 11.3983Z" fill="#FFB133"/>
<path d="M91.6777 6.54958L90.8582 5.4418C90.8582 5.4418 91.0158 3.8001 93.157 3.39621C93.9797 3.19615 94.8461 3.27732 95.6168 3.62671L96.8716 5.41153" fill="#FFB133"/>
<path d="M91.1884 12.6595L95.4822 6.9913" stroke="#0E1C26" stroke-linecap="round" stroke-linejoin="round"/>
<path d="M93.4148 6.01562L90.8582 9.26119L97.5344 9.57425L100.373 6.54681L93.4148 6.01562Z" fill="#123A49"/>
<path d="M93.4148 6.01562L92.4474 4.6051L99.1235 4.91749L100.367 6.54748L93.4148 6.01562Z" fill="#FFE633"/>
<path d="M93.4148 6.01562L92.4474 4.6051L89.9364 7.77705L90.8561 9.2605L93.4148 6.01562Z" fill="#FFB133"/>
<path d="M158.221 121.928C159.614 128.42 163.119 140.849 164.312 140.784C165.505 140.719 164.215 134.184 165.088 133.801C165.961 133.418 171.652 145.3 172.519 144.921C173.387 144.542 168.343 133.344 168.343 133.344C168.343 133.344 175.018 144.23 175.489 143.527C175.959 142.825 172.835 135.676 171.54 131.86C172.475 133.91 176.745 140.277 177.146 139.773C177.546 139.268 173.11 129.358 173.11 129.358C173.11 129.358 177.108 136.297 177.711 136.032C178.315 135.768 175.037 128.889 173.987 126.766L166.744 112.111" fill="#DD864B"/>
<path d="M171.391 128.519C171.391 128.519 168.658 128.357 165.547 123.146" stroke="#964B18" stroke-width="0.5" stroke-miterlimit="10"/>
<path d="M164.087 131.162C164.087 131.162 165.242 129.27 164.484 125.832" stroke="#964B18" stroke-width="0.5" stroke-miterlimit="10"/>
<path d="M96.4131 46.3774C96.4131 46.3774 129.221 47.8966 149.484 71.6139C169.748 95.3312 173.765 120.427 173.765 120.427L156.606 126.681C156.606 126.681 145.36 95.1751 132.902 86.315C121.371 78.114 102.361 71.7639 102.361 71.7639" fill="#DB340A"/>
<path d="M155.263 123.146L172.91 116.491" stroke="#721C0E" stroke-width="0.5" stroke-linejoin="round"/>
<path d="M100.29 50.1958C100.29 50.1958 127.595 51.4701 147.77 69.7016C127.425 47.8213 96.4121 46.3764 96.4121 46.3764L102.362 71.7657C102.362 71.7657 103.595 72.1786 105.618 72.9244L100.29 50.1958Z" fill="#FFE633"/>
<path d="M137.715 90.8517C148.114 102.901 156.607 126.68 156.607 126.68L158.722 125.909C155.207 117.14 146.862 98.2071 137.715 90.8517Z" fill="#FFE633"/>
<path d="M52.3851 24.6379C57.9529 20.9871 68.3119 13.223 67.8171 12.14C67.3224 11.057 61.4983 14.1719 60.8246 13.4996C60.1509 12.8274 69.378 3.69139 68.7078 3.02398C68.0376 2.35656 58.4442 10.6862 58.4442 10.6862C58.4442 10.6862 67.1552 0.953607 66.3212 0.778152C65.4872 0.602698 59.6326 5.31383 56.5343 7.89955C58.1118 6.28743 62.8221 0.791223 62.2079 0.601319C61.5936 0.411415 53.9273 8.12661 53.9273 8.12661C53.9273 8.12661 58.9714 1.89968 58.5022 1.43318C58.033 0.966677 52.7886 6.5076 51.1835 8.2532L40.0976 20.2942" fill="#DD864B"/>
<path d="M43.1932 12.7992L57.159 23.237C57.159 23.237 35.6008 43.6379 41.9025 49.9102C48.2041 56.1826 72.3396 49.9859 72.3396 49.9859C72.3396 49.9859 95.261 54.5216 92.0736 69.6368C88.8861 84.7521 91.6334 90.3474 85.5543 90.3474C79.4752 90.3474 62.9072 78.2534 54.9479 78.2534C46.9887 78.2534 20.1197 75.8355 15.8675 59.9641C11.6761 44.3115 43.1932 12.7992 43.1932 12.7992Z" fill="#DB340A"/>
<path d="M57.0808 78.4908C57.0808 78.4908 62.0082 79.3164 63.1504 80.4538" stroke="#721C0E" stroke-width="0.5" stroke-linejoin="round"/>
<path d="M40.8611 15.2253L54.4222 25.9686" stroke="#721C0E" stroke-width="0.5" stroke-linejoin="round"/>
<g style="mix-blend-mode:screen">
<path d="M18.0738 60.9233C14.156 46.2945 41.4284 17.8165 45.0069 14.1561L43.1931 12.7999C43.1931 12.7999 11.6768 44.3129 15.8675 59.9628C17.6696 66.692 23.5421 70.9971 30.3087 73.7315C24.4984 70.9799 19.6775 66.9094 18.0738 60.9233Z" fill="#FFE633"/>
</g>
<path d="M57.5515 81.4969C63.3839 92.0881 73.3442 101.74 83.1172 108.889C82.5195 110.968 81.6572 113.95 82.0759 116.073C76.6173 112.304 71.1255 108.504 66.4698 103.788C61.8141 99.0712 57.3864 92.7556 57.5487 81.4948" fill="url(#paint0_linear)"/>
<path d="M95.9063 75.1791C86.1299 68.0295 76.5137 50.5907 63.1504 51.5726C70.2542 54.2182 73.3262 62.3366 80.7293 68.613C85.7871 72.9017 89.4071 78.594 94.8637 82.3632C94.447 80.2405 95.308 77.2578 95.9063 75.1791Z" fill="url(#paint1_linear)"/>
<g style="mix-blend-mode:screen">
<path d="M67.7121 103.389C63.5062 99.1318 59.8206 91.7606 57.7187 81.7735C57.6655 81.6799 57.6026 81.5905 57.5515 81.4983C57.3891 92.7569 61.8147 99.0754 66.4725 103.791C70.3026 107.512 74.462 110.881 78.9002 113.857C74.9514 110.602 71.1075 106.829 67.7121 103.389Z" fill="#FFE633"/>
</g>
<path d="M80.7755 58.7146C79.0481 66.8963 79.091 75.3326 79.1372 83.6911C79.1987 94.4599 79.2595 101.6 79.319 112.367C79.3666 120.768 80.1032 128.72 87.0668 133.462C90.7524 135.97 95.4185 136.44 99.8656 136.833C110.549 137.781 121.465 138.712 131.885 136.179C134.136 135.628 136.465 134.854 138.001 133.125C139.949 130.936 140.179 127.762 140.249 124.838C140.647 108.071 138.9 96.6961 135.061 80.3644C134.468 77.6128 133.664 74.9103 132.658 72.2804C131.032 68.3098 128.637 64.6972 125.608 61.6492C122.579 58.6012 118.977 56.1776 115.007 54.5168C111.02 52.8967 106.752 52.075 102.446 52.0986C98.1398 52.1222 93.8808 52.9907 89.9122 54.6544" fill="#196461"/>
<path d="M117.791 93.2283C117.791 93.2283 117.335 96.4621 119.316 96.4621C121.297 96.4621 127.457 97.047 127.457 95.8209V92.8987" fill="#389E7E"/>
<path d="M86.2226 89.7687C85.9479 91.5811 86.2199 93.4339 87.0041 95.0922C87.2922 95.6984 88.0516 96.3465 88.5318 95.8731C88.6949 95.6721 88.7769 95.4177 88.7619 95.1596C88.7884 94.2207 88.5869 93.2893 88.1745 92.4446C87.7621 91.5998 87.1511 90.8667 86.3932 90.3074" fill="#389E7E"/>
<path d="M112.231 101.629C111.957 103.441 112.229 105.293 113.013 106.951C113.301 107.559 114.06 108.207 114.54 107.734C114.704 107.533 114.786 107.279 114.771 107.02C114.797 106.082 114.596 105.15 114.184 104.306C113.772 103.461 113.161 102.728 112.404 102.168" fill="#389E7E"/>
<path d="M80.1863 102.062C80.1863 102.062 89.9399 106.37 100.373 104.103" stroke="#0E1C26" stroke-width="0.5" stroke-linejoin="round"/>
<path d="M105.203 137.214C104.069 136.973 103.057 136.338 102.348 135.424C101.64 134.509 101.28 133.374 101.334 132.22C101.334 127.912 98.9848 86.1695 101.334 83.8322" stroke="#0E1C26" stroke-width="0.5" stroke-linejoin="round"/>
<path d="M93.6801 62.3372C92.4619 62.3372 85.7886 64.2954 85.7886 70.7363C85.7886 77.1772 85.5537 90.346 85.5537 90.346L86.9619 91.3464C86.9619 91.3464 87.5955 72.365 87.7219 70.4295C88.0197 65.8608 95.107 63.8434 95.107 63.8434" fill="#0E1C26"/>
<path d="M105.23 118.639C110.444 119.029 115.68 119.029 120.894 118.639C120.894 118.639 123.206 136.749 119.898 137.532C115.099 138.667 108.151 138.762 106.304 137.088C104.106 135.097 105.23 118.639 105.23 118.639Z" fill="url(#paint2_linear)"/>
<path d="M126.404 117.701C126.404 117.701 134.093 118.152 140.252 116.167C140.252 116.167 141.565 130.725 139.05 133.226C135.112 137.148 129.543 136.343 127.751 134.819C125.959 133.294 126.404 117.701 126.404 117.701Z" fill="url(#paint3_linear)"/>
<path d="M105.23 118.639C110.414 119.517 115.71 119.517 120.894 118.639" stroke="#0E1C26" stroke-width="0.5" stroke-linecap="round" stroke-linejoin="round"/>
<path d="M126.404 117.701C126.404 117.701 135.378 117.828 140.252 116.167" stroke="#0E1C26" stroke-width="0.5" stroke-linecap="round" stroke-linejoin="round"/>
<path d="M86.9626 61.248C88.1261 61.248 93.591 64.4221 96.9775 71.4519C99.9072 77.5337 101.772 90.2207 104.066 92.5065C106.36 94.7922 136.079 95.1865 137.15 90.3494C138.221 85.5124 133.881 55.5901 110.597 53.0209" fill="url(#paint4_linear)"/>
<path d="M91.221 61.248C92.2871 61.248 97.2884 64.1537 100.387 70.5864C103.066 76.1507 104.773 87.7616 106.873 89.852C108.973 91.9423 136.17 92.3042 137.15 87.8772" stroke="#389E7E" stroke-width="0.5" stroke-miterlimit="10" stroke-linecap="round"/>
<path d="M111.669 102.062C119.502 102.259 127.336 101.788 135.088 100.653" stroke="#0E1C26" stroke-width="0.5" stroke-linecap="round" stroke-linejoin="round"/>
<path d="M76.3355 43.0441C80.3659 43.0441 84.3894 43.5141 88.4177 43.4019C89.0565 43.4364 89.6927 43.2975 90.2585 43.0001C91.3792 42.2914 91.5215 40.6731 91.5395 39.297C93.1184 40.23 95.2555 40.4157 96.9981 41.0123C99.0358 41.7079 101.207 42.6719 102.203 44.6679C103.327 44.5052 104.474 44.6312 105.535 45.034C108.719 46.1396 111.41 48.3267 113.136 51.2114C115.105 54.4099 116.147 58.0887 116.146 61.8405C116.149 62.4403 116.051 63.0363 115.857 63.604C115.311 64.7223 114.382 65.6093 113.237 66.1044C108.513 68.6178 103.041 69.0004 97.8674 68.2587C92.5682 67.4977 87.4165 65.9372 82.5894 63.6308C77.5232 61.1965 73.4631 57.1094 68.4467 54.6173C65.0071 52.915 61.146 51.9538 57.3857 52.5304C57.7844 52.4691 59.784 48.9477 60.2822 48.4247C61.5596 47.0813 63.0518 45.9581 64.6982 45.1007C68.1634 43.3063 72.5241 43.0427 76.3355 43.0441Z" fill="#DB340A"/>
<path d="M113.24 66.103C114.385 65.6079 115.315 64.7209 115.86 63.6026C116.055 63.0349 116.152 62.4389 116.15 61.8391C116.15 58.0873 115.108 54.4085 113.139 51.21C111.413 48.3253 108.722 46.1382 105.538 45.0326C104.477 44.6298 103.33 44.5038 102.207 44.6666C102.125 44.5143 102.035 44.3664 101.937 44.2234C102.209 44.9686 102.52 45.7 102.778 46.45C103.102 47.3995 103.305 48.5465 102.722 49.346C102.022 50.3093 100.85 50.0712 99.8553 50.2013C98.783 50.3526 97.6904 50.2688 96.654 49.9557C94.0975 49.2339 91.7862 47.813 89.3001 46.8821C87.3199 46.1418 85.2771 45.5797 83.1961 45.2025C78.2619 44.3129 73.0389 44.487 68.3694 46.5257C73.1177 45.012 78.2737 45.9656 82.9688 47.6513C87.6639 49.3371 92.1199 51.7384 96.88 53.2074C99.1443 53.9065 101.766 54.1831 103.896 52.8792C104.141 52.6828 104.44 52.5643 104.754 52.5393C104.949 52.5799 105.133 52.6636 105.292 52.7842C105.451 52.9048 105.581 53.0593 105.672 53.2363C106.395 54.3028 106.771 55.9624 105.81 56.7997C105.451 57.0708 105.031 57.2512 104.587 57.3254C98.1891 58.8511 91.4572 58.108 85.5502 55.2241C87.0793 55.8076 88.0923 57.3137 89.4113 58.3142C92.5711 60.7086 97.3657 60.1354 99.9921 63.1594C100.138 63.2948 100.25 63.4612 100.322 63.6461C100.394 63.831 100.423 64.0297 100.407 64.2273C100.302 64.7089 99.7758 64.9291 99.3191 65.0482C94.2896 66.3472 88.9961 64.9794 84.1123 63.1711C81.989 62.3847 79.8788 61.515 77.7499 60.7285C79.2857 61.8182 80.9042 62.7874 82.5908 63.6273C87.4179 65.9337 92.5696 67.4942 97.8688 68.2552C103.045 68.999 108.516 68.6164 113.24 66.103Z" fill="#B72609"/>
<path d="M59.3667 52.5324C59.3667 52.5324 60.0701 51.4081 64.2594 53.0141C68.4488 54.62 77.3367 60.8359 80.1863 62.3372" stroke="#721C0E" stroke-width="0.5" stroke-linejoin="round"/>
<path d="M76.3354 43.0441C72.5233 43.0441 68.1626 43.3063 64.7002 45.1028C63.0538 45.9601 61.5616 47.0833 60.2842 48.4268C59.786 48.949 57.7864 52.4712 57.3877 52.5324C57.5369 52.509 57.6855 52.5042 57.8361 52.4863C60.7175 49.1321 64.1702 46.225 68.2863 45.0402C69.3327 44.7586 70.3938 44.5342 71.4648 44.368C73.3727 44.0031 75.2982 43.7362 77.2337 43.5684C79.187 43.4308 81.1777 43.4941 83.1194 43.2932C80.8592 43.1872 78.5983 43.0441 76.3354 43.0441Z" fill="#FFE633"/>
<path d="M73.4197 19.4431C73.2602 19.6633 73.1537 19.9171 73.1086 20.1848" stroke="#091319" stroke-miterlimit="10"/>
<path d="M68.7431 25.4092L72.356 27.664C72.356 27.664 69.2993 30.5538 67.8462 28.7257C66.8913 27.5161 68.7431 25.4092 68.7431 25.4092Z" fill="white"/>
<path d="M70.7289 20.1848C70.7289 20.1848 66.0567 21.6985 66.5051 22.5875C66.9535 23.4765 69.0388 23.9733 69.0388 23.9733" fill="#DD864B"/>
<defs>
<linearGradient id="paint0_linear" x1="57.5444" y1="98.784" x2="83.1172" y2="98.784" gradientUnits="userSpaceOnUse">
<stop offset="0.048" stop-color="#063347"/>
<stop offset="0.385" stop-color="#0B404E"/>
<stop offset="0.995" stop-color="#196461"/>
</linearGradient>
<linearGradient id="paint1_linear" x1="63.1504" y1="66.948" x2="95.9063" y2="66.948" gradientUnits="userSpaceOnUse">
<stop offset="0.048" stop-color="#063347"/>
<stop offset="0.385" stop-color="#0B404E"/>
<stop offset="0.995" stop-color="#196461"/>
</linearGradient>
<linearGradient id="paint2_linear" x1="121.713" y1="135.941" x2="102.54" y2="122.215" gradientUnits="userSpaceOnUse">
<stop offset="0.048" stop-color="#063347"/>
<stop offset="0.385" stop-color="#0B404E"/>
<stop offset="0.995" stop-color="#196461"/>
</linearGradient>
<linearGradient id="paint3_linear" x1="142.075" y1="34.4" x2="125.356" y2="25.8791" gradientUnits="userSpaceOnUse">
<stop offset="0.048" stop-color="#063347"/>
<stop offset="0.385" stop-color="#0B404E"/>
<stop offset="0.995" stop-color="#196461"/>
</linearGradient>
<linearGradient id="paint4_linear" x1="133.221" y1="94.593" x2="102.51" y2="48.7397" gradientUnits="userSpaceOnUse">
<stop offset="0.048" stop-color="#063347"/>
<stop offset="0.385" stop-color="#0B404E"/>
<stop offset="0.995" stop-color="#196461"/>
</linearGradient>
</defs>
</svg>
