<svg width="21" height="30" viewBox="0 0 21 30" fill="none" xmlns="http://www.w3.org/2000/svg">
<g clip-path="url(#clip0)">
<path d="M17.5989 7.18044H16.6601V3.03013C16.6601 2.02007 15.8526 1.19671 14.8621 1.19671H14.2894V0.239319H14.8621C16.3714 0.239319 17.5989 1.49111 17.5989 3.03013V7.18044Z" fill="#188182"/>
<path d="M4.33986 7.18044H3.401V3.03013C3.401 1.49111 4.62856 0.239319 6.13778 0.239319H6.71049V1.19671H6.13778C5.14728 1.19671 4.33986 2.02007 4.33986 3.03013V7.18044Z" fill="#188182"/>
<path d="M12.8952 1.43609H8.10704C7.71741 1.43609 7.40289 1.11537 7.40289 0.718047C7.40289 0.320728 7.71741 0 8.10704 0H12.8952C13.2849 0 13.5994 0.320728 13.5994 0.718047C13.5994 1.11537 13.2825 1.43609 12.8952 1.43609Z" fill="#188182"/>
<path d="M4.37274 28.3246V29.0426C4.37274 29.5716 4.79288 30 5.3116 30C5.83033 30 6.25047 29.5716 6.25047 29.0426V28.3246H4.37274Z" fill="#188182"/>
<path d="M14.7471 28.3246V29.0426C14.7471 29.5716 15.1673 30 15.686 30C16.2047 30 16.6249 29.5716 16.6249 29.0426V28.3246H14.7471Z" fill="#188182"/>
<path d="M7.73153 21.2087L1.66882 27.3911C2.05141 27.5778 2.47859 27.6855 2.93159 27.6855H11.1255L7.73153 21.2087Z" fill="#188182"/>
<path d="M0 15.6821V23.4538L4.96658 18.3892L0 15.6821Z" fill="#188182"/>
<path d="M18.0684 6.26373H2.92925C1.31206 6.26373 0 7.60169 0 9.25081V12.6855L1.18297 12.8458L2.03498 11.977C2.33542 11.6706 2.82363 11.6706 3.12641 11.977C3.42685 12.2834 3.42685 12.7812 3.12641 13.09L3.10763 13.1091L9.31351 13.9564L11.6208 11.6036C12.0667 11.1488 12.5596 10.7539 13.0877 10.4284C13.6158 10.1005 14.1792 9.842 14.7613 9.66249C15.2636 9.50691 15.7236 9.63855 16.017 9.94013C16.3127 10.2417 16.4418 10.7084 16.2893 11.2207C16.1109 11.8142 15.8574 12.3887 15.5382 12.9272C15.2166 13.4657 14.8317 13.9708 14.3857 14.4231L12.0785 16.7759L12.9094 23.1043L12.9281 23.0852C13.2286 22.7788 13.7168 22.7788 14.0196 23.0852C14.32 23.3915 14.32 23.8894 14.0196 24.1982L13.1675 25.067L13.5102 27.6855H18.0707C19.6903 27.6855 21.0023 26.3475 21.0023 24.696V9.25081C21 7.60169 19.6879 6.26373 18.0684 6.26373Z" fill="#188182"/>
</g>
<defs>
<clipPath id="clip0">
<rect width="21" height="30" fill="white"/>
</clipPath>
</defs>
</svg>
