<svg width="354" height="386" viewBox="0 0 354 386" fill="none" xmlns="http://www.w3.org/2000/svg">
<path style="mix-blend-mode:multiply" opacity="0.45" d="M16.4445 300.252C17.8119 304.286 21.8106 306.864 25.8417 308.293C29.8728 309.722 33.8569 311.383 38.0663 312.123C46.5534 313.612 70.2978 351.515 70.2978 351.515C70.2978 351.515 79.1014 355.392 79.9852 355.891C81.0167 356.386 82.1309 356.687 83.2721 356.78C91.7945 358.037 122.511 368.979 122.511 368.979C122.511 368.979 67.8601 306.823 65.6718 304.464C61.7848 300.313 56.4732 297.768 50.7904 297.334" fill="url(#paint0_linear)"/>
<path style="mix-blend-mode:multiply" opacity="0.45" d="M114.216 325.667C112.472 326.901 110.532 328.514 110.661 330.641C110.853 333.816 115.084 334.712 118.28 334.701L134.256 334.664C144.518 350.847 154.418 367.25 163.954 383.873L201.913 386.22C201.913 386.22 155.682 325.735 153.018 323.082C150.353 320.429 114.216 325.667 114.216 325.667Z" fill="url(#paint1_linear)"/>
<path style="mix-blend-mode:multiply" opacity="0.45" d="M201.879 342.608C200.411 344.079 197.824 344.122 198.819 345.943C201.787 351.37 217.475 348.833 222.58 347.944C235.099 361.77 247.307 375.866 259.201 390.233L343.604 433.667C343.604 433.667 235.187 334.553 232.193 332.447C229.199 330.34 201.879 342.608 201.879 342.608Z" fill="url(#paint2_linear)"/>
<path d="M27.3106 271.697L34.1713 288.371C34.1713 288.371 20.0333 291.217 15.9152 295.32C15.3702 295.936 14.9914 296.679 14.8145 297.481C14.5132 298.608 15.9746 301.237 17.1396 301.374L54.4457 306.511C57.658 306.89 60.0502 301.667 59.0814 298.593L46.4312 258.436" fill="#DB340A"/>
<path d="M30.3674 273.094C30.3674 273.094 29.7967 272.049 28.9226 270.579L27.3106 271.697L34.1712 288.371C34.1712 288.371 20.0334 291.217 15.9152 295.32C15.3703 295.936 14.9915 296.679 14.8145 297.481C15.8289 292.404 36.7229 289.588 36.7229 289.588L30.3674 273.094Z" fill="#FFE633"/>
<path d="M27.0487 294.347C27.0488 294.476 27.0234 294.603 26.974 294.722C26.9245 294.841 26.852 294.949 26.7605 295.04C26.6691 295.131 26.5605 295.204 26.441 295.253C26.3215 295.302 26.1934 295.327 26.0641 295.327C25.9348 295.327 25.8069 295.302 25.6875 295.253C25.5681 295.203 25.4597 295.131 25.3683 295.04C25.277 294.949 25.2046 294.841 25.1553 294.722C25.1059 294.603 25.0807 294.475 25.0808 294.347C25.0808 294.087 25.1844 293.838 25.3688 293.654C25.5532 293.471 25.8033 293.368 26.0641 293.368C26.1933 293.368 26.3213 293.393 26.4407 293.442C26.5601 293.491 26.6686 293.563 26.7601 293.654C26.8515 293.745 26.924 293.853 26.9736 293.972C27.0231 294.091 27.0486 294.218 27.0487 294.347Z" fill="#9B2710"/>
<path d="M35.0757 292.375C35.0757 292.504 35.0504 292.631 35.0009 292.75C34.9515 292.869 34.8789 292.977 34.7875 293.068C34.696 293.159 34.5874 293.232 34.4679 293.281C34.3484 293.33 34.2204 293.355 34.091 293.355C33.83 293.355 33.5796 293.252 33.395 293.068C33.2104 292.884 33.1066 292.635 33.1064 292.375C33.1068 292.115 33.2107 291.866 33.3953 291.682C33.5799 291.499 33.8301 291.396 34.091 291.396C34.2202 291.396 34.3482 291.421 34.4676 291.47C34.587 291.519 34.6955 291.591 34.787 291.682C34.8784 291.773 34.951 291.881 35.0005 292C35.05 292.119 35.0756 292.246 35.0757 292.375Z" fill="#9B2710"/>
<path d="M57.1223 292.373C57.1223 292.373 47.9568 294.487 49.8631 303.188" stroke="#721C0E" stroke-width="0.5" stroke-linejoin="round"/>
<path d="M14.9782 298.802L53.4049 303.633C55.0931 303.704 56.784 303.681 58.4697 303.564" stroke="#721C0E" stroke-width="0.5" stroke-linejoin="round"/>
<path d="M32.9538 288.635L29.8893 293.155" stroke="#721C0E" stroke-width="0.5" stroke-linecap="round" stroke-linejoin="round"/>
<path d="M29.0526 289.586L25.988 294.106" stroke="#721C0E" stroke-width="0.5" stroke-linecap="round" stroke-linejoin="round"/>
<path d="M29.8893 289.382L33.9751 292.373" stroke="#721C0E" stroke-width="0.5" stroke-linecap="round" stroke-linejoin="round"/>
<path d="M24.7361 290.895L29.6842 293.019" stroke="#721C0E" stroke-width="0.5" stroke-linecap="round" stroke-linejoin="round"/>
<path d="M21.2129 292.199C20.6323 294.627 20.6323 297.157 21.2129 299.584" stroke="#721C0E" stroke-width="0.5" stroke-linejoin="round"/>
<path d="M29.8894 277.963C29.8894 277.963 44.0403 276.975 51.5994 274.841" stroke="#721C0E" stroke-width="0.5" stroke-linejoin="round"/>
<path d="M117.356 297.127L125.693 315.479C125.693 315.479 112.988 321.338 110.027 326.134C109.651 326.838 109.461 327.625 109.474 328.422C109.445 329.555 111.421 331.708 112.551 331.577L148.937 328.056C152.055 327.693 153.132 322.227 151.521 319.542L136.417 282.95" fill="#DB340A"/>
<path d="M128.486 317.017L119.933 298.802C119.933 298.802 119.399 299.122 118.507 299.659L125.693 315.48C125.693 315.48 112.988 321.338 110.027 326.135C109.651 326.839 109.461 327.626 109.474 328.423C111.607 321.524 128.486 317.017 128.486 317.017Z" fill="#FFE633"/>
<path d="M120.32 322.72C120.35 322.842 120.354 322.968 120.335 323.091C120.315 323.215 120.271 323.333 120.206 323.439C120.14 323.546 120.054 323.639 119.952 323.712C119.851 323.785 119.736 323.838 119.614 323.867C119.367 323.925 119.107 323.884 118.891 323.752C118.675 323.619 118.521 323.407 118.462 323.162C118.433 323.04 118.428 322.914 118.448 322.791C118.468 322.668 118.512 322.549 118.577 322.443C118.643 322.336 118.729 322.244 118.831 322.171C118.933 322.098 119.048 322.045 119.17 322.016C119.292 321.987 119.418 321.982 119.542 322.002C119.666 322.022 119.785 322.065 119.892 322.131C119.999 322.196 120.091 322.282 120.165 322.383C120.238 322.484 120.291 322.599 120.32 322.72Z" fill="#9B2710"/>
<path d="M127.453 319.053C127.512 319.299 127.471 319.558 127.338 319.773C127.206 319.988 126.993 320.142 126.746 320.2C126.5 320.259 126.24 320.217 126.024 320.085C125.808 319.953 125.654 319.741 125.595 319.495C125.536 319.25 125.578 318.991 125.711 318.777C125.844 318.562 126.056 318.408 126.303 318.35C126.425 318.321 126.551 318.316 126.675 318.335C126.799 318.355 126.918 318.399 127.024 318.464C127.131 318.529 127.224 318.615 127.298 318.716C127.371 318.817 127.424 318.932 127.453 319.053Z" fill="#9B2710"/>
<path d="M149.222 313.959C149.222 313.959 140.092 318.16 143.861 325.948" stroke="#721C0E" stroke-width="0.5" stroke-linejoin="round"/>
<path d="M109.932 329.633L147.307 325.574C148.918 325.26 150.509 324.859 152.075 324.37" stroke="#721C0E" stroke-width="0.5" stroke-linejoin="round"/>
<path d="M124.603 316.001L122.733 320.956" stroke="#721C0E" stroke-width="0.5" stroke-linecap="round" stroke-linejoin="round"/>
<path d="M121.136 317.774L119.265 322.729" stroke="#721C0E" stroke-width="0.5" stroke-linecap="round" stroke-linejoin="round"/>
<path d="M121.879 317.394L126.414 319.301" stroke="#721C0E" stroke-width="0.5" stroke-linecap="round" stroke-linejoin="round"/>
<path d="M117.357 319.978L122.509 320.873" stroke="#721C0E" stroke-width="0.5" stroke-linecap="round" stroke-linejoin="round"/>
<path d="M114.324 322C114.326 324.423 114.899 326.812 115.996 328.974" stroke="#721C0E" stroke-width="0.5" stroke-linejoin="round"/>
<path d="M121.137 305.446C121.137 305.446 133.901 304.965 142.95 299.343" stroke="#721C0E" stroke-width="0.5" stroke-linejoin="round"/>
<path d="M79.4109 137.296C79.4109 137.296 77.6635 197.522 85.1059 228.067C90.9004 251.845 111.017 289.265 117.021 299.85C117.496 300.687 118.227 301.35 119.108 301.742C119.989 302.135 120.974 302.235 121.917 302.029L140.987 297.918C141.498 297.809 141.98 297.595 142.404 297.291C142.828 296.987 143.184 296.598 143.45 296.151C143.716 295.703 143.886 295.205 143.95 294.689C144.014 294.173 143.969 293.649 143.82 293.15C139.567 278.967 123.605 230.704 121.895 220.888C120.48 212.769 120.526 187.858 121.895 182.695C122.953 178.704 128.528 155.293 118.09 139.591" fill="#031B2D"/>
<g style="mix-blend-mode:screen">
<path d="M87.7909 230.443C80.3478 199.899 83.947 139.704 83.947 139.704L119.477 141.917C119.047 141.128 118.592 140.349 118.089 139.592L79.4087 137.296C79.4087 137.296 77.6613 197.522 85.1037 228.067C90.8982 251.845 111.015 289.265 117.019 299.85C117.571 300.818 118.465 301.546 119.528 301.892C113.298 290.859 93.5225 253.967 87.7909 230.443Z" fill="#FFE633"/>
</g>
<path d="M85.5951 154.551C85.5951 154.551 83.0115 198.224 89.7063 228.067C95.0641 251.942 115.915 291.446 121.918 302.029" stroke="#174866" stroke-width="0.5" stroke-miterlimit="10"/>
<path d="M63.1331 140.923C63.1331 140.923 61.8354 147.698 59.5345 149.99C57.2336 152.281 4.08027 165.825 0.49691 191.872C-3.43055 220.42 18.0033 260.895 24.7837 272.826C25.3581 273.835 26.2323 274.643 27.2861 275.138C28.34 275.633 29.5218 275.79 30.6694 275.59L47.3908 272.7C48.1149 272.576 48.8046 272.301 49.4144 271.892C50.0243 271.484 50.5406 270.952 50.9295 270.332C51.3184 269.711 51.571 269.015 51.6709 268.29C51.7708 267.565 51.7156 266.828 51.5089 266.125C47.2153 251.564 38.2666 212.989 42.3661 205.528C47.4419 196.29 72.7638 193.36 87.0025 189.344C97.5177 186.379 115.734 170.776 106.192 146.011" fill="#031B2D"/>
<path d="M82.5445 161.095C82.5445 161.095 90.6509 167.769 99.5472 170.113C99.5472 170.113 94.8486 182.438 86.2999 182.438C76.9864 182.438 73.1598 176.051 72.3292 173.142C71.3398 169.685 82.5445 161.095 82.5445 161.095Z" fill="#062D38"/>
<path d="M121.152 185.804C121.208 185.749 121.264 185.69 121.317 185.631C123.679 182.967 124.604 175.435 124.042 170.073C120.178 170.961 116.208 171.307 112.248 171.101C112.248 171.101 108.808 182.729 111.056 184.669C113.202 186.522 118.772 188.121 121.152 185.804Z" fill="#062D38"/>
<g style="mix-blend-mode:screen">
<path d="M26.3087 273C19.5275 261.069 -0.0862495 220.594 3.84397 192.046C7.42733 166.001 60.5814 154.272 62.8816 151.979C65.1818 149.685 64.6608 141.158 64.6574 141.107L63.1331 140.926C63.1331 140.926 61.8355 147.701 59.5346 149.992C57.2336 152.284 4.08027 165.828 0.49691 191.875C-3.43055 220.423 18.0033 260.898 24.7837 272.828C25.2889 273.715 26.027 274.448 26.919 274.949C27.8109 275.45 28.823 275.699 29.8464 275.67C29.1056 275.488 28.4098 275.157 27.8016 274.697C27.1934 274.238 26.6854 273.661 26.3087 273Z" fill="#FFE633"/>
</g>
<path d="M34.1954 274.534C27.4128 262.603 6.97126 218.481 9.6073 191.984C11.893 168.989 65.1507 155.448 68.2642 153.404C71.3777 151.361 72.2925 142.416 72.2925 142.416" stroke="#174866" stroke-width="0.5" stroke-miterlimit="10"/>
<path d="M80.7722 190.913C80.7722 190.913 102.285 186.785 107.665 168.932" stroke="#174866" stroke-width="0.5" stroke-miterlimit="10"/>
<path d="M54.6087 87.6915C58.6467 105.776 60.4444 124.285 59.9617 142.805C59.8362 143.713 60.0191 144.636 60.4813 145.428C61.079 146.218 62.1465 146.461 63.1229 146.632C80.5848 149.736 98.4951 149.313 115.79 145.389C116.618 145.274 117.399 144.938 118.051 144.417C118.875 143.626 119.006 142.378 119.075 141.24C119.772 129.695 119.097 117.903 115.285 106.978C111.474 96.0535 104.286 86.0161 94.1694 80.3328" fill="#DB340A"/>
<g style="mix-blend-mode:screen">
<path d="M63.2728 146.637C62.7858 145.86 62.5737 144.942 62.6702 144.03C62.5681 125.506 60.1868 107.064 55.5795 89.1158L94.5736 80.588C94.4354 80.5075 94.3089 80.4085 94.168 80.3293L54.6073 87.6915C58.6453 105.776 60.443 124.285 59.9603 142.805C59.8347 143.713 60.0176 144.636 60.4799 145.428C61.0775 146.218 62.1451 146.461 63.1214 146.632C63.1774 146.644 63.2354 146.648 63.2921 146.658L63.2728 146.637Z" fill="#FFE633"/>
</g>
<path d="M74.0174 51.8554C74.0174 51.8554 74.9522 64.0272 75.8263 69.8578C78.1404 72.1621 94.5833 69.8578 94.5833 69.8578L86.4651 49.4177" fill="#DD864B"/>
<path d="M77.718 32.9352C77.718 32.9352 62.1118 48.4736 67.3141 53.654C72.5164 58.8344 90.4857 58.8344 90.4857 53.654C90.4857 48.4736 89.5391 32.9352 77.718 32.9352Z" fill="#DD864B"/>
<path d="M77.6075 47.6026C78.0105 48.0264 78.5169 48.339 79.0773 48.51C79.6377 48.6809 80.233 48.7045 80.8053 48.5782C81.5007 48.391 82.1319 48.0187 82.631 47.5014C83.1301 46.984 83.4783 46.3411 83.6382 45.6416C84.1592 43.4164 82.872 41.2807 81.5543 39.5929C80.3195 38.0104 79.1926 36.7911 77.034 36.8833C76.1551 36.9212 75.1387 36.9521 74.5583 36.2902C74.2196 35.7668 74.0103 35.171 73.9474 34.5515C73.7794 33.7768 73.3524 33.0819 72.7362 32.5802C72.426 32.3357 72.0567 32.1767 71.6654 32.1191C71.274 32.0615 70.8744 32.1073 70.5064 32.252C70.1429 32.4327 69.8373 32.7111 69.6243 33.0557C69.4114 33.4003 69.2995 33.7974 69.3014 34.202C69.312 34.6056 69.4049 35.0028 69.5746 35.3695C69.7442 35.7361 69.9869 36.0646 70.2881 36.335C70.6488 36.6728 71.1172 37.0106 71.1242 37.5047C71.1242 37.8673 70.8692 38.1851 70.8381 38.5464C70.7849 39.1429 71.3777 39.6163 71.9637 39.7525C72.5496 39.8888 73.1687 39.8083 73.7602 39.9273C74.3338 40.0828 74.8609 40.3751 75.2957 40.7788C75.7305 41.1826 76.0601 41.6857 76.256 42.2447C76.8682 43.7625 76.4494 45.5143 77.166 46.9551C77.6939 48.0182 78.8374 48.7337 79.4461 49.783C79.8924 50.6414 80.2516 51.5419 80.5185 52.4713C80.8875 53.5556 81.318 54.6173 81.7484 55.6783C81.933 56.2282 82.2204 56.7383 82.5956 57.1817C83.2535 57.7543 84.0782 58.102 84.949 58.1739C87.1767 58.5365 89.6856 58.403 91.3674 56.9017C91.6923 56.6357 91.9398 56.2878 92.0839 55.8943C92.1944 55.3661 92.1728 54.8188 92.021 54.3008C91.7928 53.1444 91.6469 51.9734 91.5843 50.7965C91.5083 49.3888 91.5332 47.9005 90.8298 46.6765" fill="#5B3719"/>
<path d="M96.8447 41.8862C96.8281 41.7596 96.8115 41.6344 96.7915 41.5071C96.1523 37.3519 93.7277 35.3249 90.4857 33.1974C86.0138 30.2622 78.9066 30.8257 75.0406 34.9176C74.8188 35.1639 74.674 35.4693 74.624 35.7964C74.5741 36.1235 74.6211 36.458 74.7594 36.7588C75.8649 38.834 78.4022 40.1358 79.0434 42.4532C79.2275 43.2307 79.2115 44.042 78.9971 44.8118C78.5935 46.4962 77.4514 48.1214 77.2938 49.8553C77.1557 51.3532 78.3248 52.7596 79.3792 53.6513C82.1997 56.0375 86.6343 57.19 90.1506 56.1035C95.621 54.4123 97.5253 47.2248 96.8447 41.8862Z" fill="#031B2D"/>
<path d="M75.0407 34.9162C76.4406 36.3962 78.586 38.6558 79.9348 40.2245C81.1046 41.5862 81.9538 43.3249 81.4673 45.215C80.8399 47.6507 78.7201 49.8181 80.6831 52.269C82.1541 54.1047 84.576 55.0281 86.7725 55.3411C89.2103 55.6852 91.4932 54.7811 93.6822 53.7586" stroke="#41526D" stroke-width="0.5" stroke-linejoin="round"/>
<path d="M75.5041 35.9434C79.5643 31.8529 87.0268 31.2894 91.7226 34.2233C92.2257 34.5364 92.7011 34.8494 93.1626 35.1659C92.3127 34.4545 91.4189 33.7968 90.4865 33.1967C86.0145 30.2615 78.9072 30.825 75.0412 34.9169C74.8193 35.1632 74.6746 35.4686 74.6246 35.7957C74.5746 36.1228 74.6217 36.4573 74.7599 36.7581C74.8477 36.9212 74.9555 37.0712 75.0577 37.226C75.0384 36.993 75.0682 36.7586 75.145 36.5378C75.2219 36.317 75.3442 36.1145 75.5041 35.9434Z" fill="#FFE633"/>
<path d="M77.8694 50.8805C78.0366 49.1466 79.2348 47.5214 79.6604 45.837C79.8855 45.0689 79.9022 44.255 79.7088 43.4784C79.5131 42.8595 79.1989 42.2842 78.7835 41.7844C78.8893 41.9991 78.9767 42.2224 79.0447 42.4518C79.2289 43.2294 79.2129 44.0406 78.9984 44.8104C78.5949 46.4948 77.4527 48.12 77.2951 49.8539C77.2631 50.7556 77.5634 51.6379 78.1395 52.3343C77.926 51.8807 77.833 51.3801 77.8694 50.8805Z" fill="#FFE633"/>
<path d="M78.9943 42.566C80.6005 40.1497 82.8583 38.2332 85.5086 37.0365C88.1588 35.8398 91.0942 35.4114 93.9779 35.8003C93.9779 35.4067 92.3956 33.7134 90.8844 33.015C86.3309 32.7398 80.3278 36.4347 77.8369 40.3938" fill="#091319"/>
<path d="M91.6051 33.3983C91.3732 33.2554 91.1328 33.1267 90.8851 33.013C86.3316 32.7378 80.3285 36.4326 77.8362 40.3917L78.0165 40.7296C80.8716 36.9019 87.1035 32.9979 91.6051 33.3983Z" fill="#FFB133"/>
<path d="M91.6777 28.5496L90.8582 27.4418C90.8582 27.4418 91.0158 25.8001 93.157 25.3962C93.9797 25.1961 94.8461 25.2773 95.6168 25.6267L96.8716 27.4115" fill="#FFB133"/>
<path d="M91.1884 34.6595L95.4822 28.9913" stroke="#0E1C26" stroke-linecap="round" stroke-linejoin="round"/>
<path d="M93.4148 28.0156L90.8582 31.2612L97.5344 31.5743L100.373 28.5468L93.4148 28.0156Z" fill="#123A49"/>
<path d="M93.4148 28.0156L92.4474 26.6051L99.1235 26.9175L100.367 28.5475L93.4148 28.0156Z" fill="#FFE633"/>
<path d="M93.4148 28.0156L92.4474 26.6051L89.9364 29.777L90.8561 31.2605L93.4148 28.0156Z" fill="#FFB133"/>
<path d="M158.221 143.928C159.614 150.42 163.119 162.849 164.312 162.784C165.505 162.719 164.215 156.184 165.088 155.801C165.961 155.418 171.652 167.3 172.519 166.921C173.387 166.542 168.343 155.344 168.343 155.344C168.343 155.344 175.018 166.23 175.489 165.527C175.959 164.825 172.835 157.676 171.54 153.86C172.475 155.91 176.745 162.277 177.146 161.773C177.546 161.268 173.11 151.358 173.11 151.358C173.11 151.358 177.108 158.297 177.711 158.032C178.315 157.768 175.037 150.889 173.987 148.766L166.744 134.111" fill="#DD864B"/>
<path d="M171.391 150.519C171.391 150.519 168.658 150.357 165.547 145.146" stroke="#964B18" stroke-width="0.5" stroke-miterlimit="10"/>
<path d="M164.087 153.162C164.087 153.162 165.242 151.27 164.484 147.832" stroke="#964B18" stroke-width="0.5" stroke-miterlimit="10"/>
<path d="M96.4131 68.3774C96.4131 68.3774 129.221 69.8966 149.484 93.6139C169.748 117.331 173.765 142.427 173.765 142.427L156.606 148.681C156.606 148.681 145.36 117.175 132.902 108.315C121.371 100.114 102.361 93.7639 102.361 93.7639" fill="#DB340A"/>
<path d="M155.263 145.146L172.91 138.491" stroke="#721C0E" stroke-width="0.5" stroke-linejoin="round"/>
<path d="M100.29 72.1958C100.29 72.1958 127.595 73.4701 147.77 91.7016C127.425 69.8213 96.4121 68.3764 96.4121 68.3764L102.362 93.7657C102.362 93.7657 103.595 94.1786 105.618 94.9244L100.29 72.1958Z" fill="#FFE633"/>
<path d="M137.715 112.852C148.114 124.901 156.607 148.68 156.607 148.68L158.722 147.909C155.207 139.14 146.862 120.207 137.715 112.852Z" fill="#FFE633"/>
<path d="M52.3851 46.6379C57.9529 42.9871 68.3119 35.223 67.8171 34.14C67.3224 33.057 61.4983 36.1719 60.8246 35.4996C60.1509 34.8274 69.378 25.6914 68.7078 25.024C68.0376 24.3566 58.4442 32.6862 58.4442 32.6862C58.4442 32.6862 67.1552 22.9536 66.3212 22.7782C65.4872 22.6027 59.6326 27.3138 56.5343 29.8995C58.1118 28.2874 62.8221 22.7912 62.2079 22.6013C61.5936 22.4114 53.9273 30.1266 53.9273 30.1266C53.9273 30.1266 58.9714 23.8997 58.5022 23.4332C58.033 22.9667 52.7886 28.5076 51.1835 30.2532L40.0976 42.2942" fill="#DD864B"/>
<path d="M43.1932 34.7992L57.159 45.237C57.159 45.237 35.6008 65.6379 41.9025 71.9102C48.2041 78.1826 72.3396 71.9859 72.3396 71.9859C72.3396 71.9859 95.261 76.5216 92.0736 91.6368C88.8861 106.752 91.6334 112.347 85.5543 112.347C79.4752 112.347 62.9072 100.253 54.9479 100.253C46.9887 100.253 20.1197 97.8355 15.8675 81.9641C11.6761 66.3115 43.1932 34.7992 43.1932 34.7992Z" fill="#DB340A"/>
<path d="M57.0808 100.491C57.0808 100.491 62.0082 101.316 63.1504 102.454" stroke="#721C0E" stroke-width="0.5" stroke-linejoin="round"/>
<path d="M40.8611 37.2253L54.4222 47.9686" stroke="#721C0E" stroke-width="0.5" stroke-linejoin="round"/>
<g style="mix-blend-mode:screen">
<path d="M18.0738 82.9233C14.156 68.2945 41.4284 39.8165 45.0069 36.1561L43.1931 34.7999C43.1931 34.7999 11.6768 66.3129 15.8675 81.9628C17.6696 88.692 23.5421 92.9971 30.3087 95.7315C24.4984 92.9799 19.6775 88.9094 18.0738 82.9233Z" fill="#FFE633"/>
</g>
<path d="M57.5515 103.497C63.3839 114.088 73.3442 123.74 83.1172 130.889C82.5195 132.968 81.6572 135.95 82.0759 138.073C76.6173 134.304 71.1255 130.504 66.4698 125.788C61.8141 121.071 57.3864 114.756 57.5487 103.495" fill="url(#paint3_linear)"/>
<path d="M95.9063 97.1791C86.1299 90.0295 76.5137 72.5907 63.1504 73.5726C70.2542 76.2182 73.3262 84.3366 80.7293 90.613C85.7871 94.9017 89.4071 100.594 94.8637 104.363C94.447 102.24 95.308 99.2578 95.9063 97.1791Z" fill="url(#paint4_linear)"/>
<g style="mix-blend-mode:screen">
<path d="M67.7121 125.389C63.5062 121.132 59.8206 113.761 57.7187 103.773C57.6655 103.68 57.6026 103.59 57.5515 103.498C57.3891 114.757 61.8147 121.075 66.4725 125.791C70.3026 129.512 74.462 132.881 78.9002 135.857C74.9514 132.602 71.1075 128.829 67.7121 125.389Z" fill="#FFE633"/>
</g>
<path d="M80.7755 80.7146C79.0481 88.8963 79.091 97.3326 79.1372 105.691C79.1987 116.46 79.2595 123.6 79.319 134.367C79.3666 142.768 80.1032 150.72 87.0668 155.462C90.7524 157.97 95.4185 158.44 99.8656 158.833C110.549 159.781 121.465 160.712 131.885 158.179C134.136 157.628 136.465 156.854 138.001 155.125C139.949 152.936 140.179 149.762 140.249 146.838C140.647 130.071 138.9 118.696 135.061 102.364C134.468 99.6128 133.664 96.9103 132.658 94.2804C131.032 90.3098 128.637 86.6972 125.608 83.6492C122.579 80.6012 118.977 78.1776 115.007 76.5168C111.02 74.8967 106.752 74.075 102.446 74.0986C98.1398 74.1222 93.8808 74.9907 89.9122 76.6544" fill="#196461"/>
<path d="M117.791 115.228C117.791 115.228 117.335 118.462 119.316 118.462C121.297 118.462 127.457 119.047 127.457 117.821V114.899" fill="#389E7E"/>
<path d="M86.2226 111.769C85.9479 113.581 86.2199 115.434 87.0041 117.092C87.2922 117.698 88.0516 118.347 88.5318 117.873C88.6949 117.672 88.7769 117.418 88.7619 117.16C88.7884 116.221 88.5869 115.289 88.1745 114.445C87.7621 113.6 87.1511 112.867 86.3932 112.307" fill="#389E7E"/>
<path d="M112.231 123.629C111.957 125.441 112.229 127.293 113.013 128.951C113.301 129.559 114.06 130.207 114.54 129.734C114.704 129.533 114.786 129.279 114.771 129.02C114.797 128.082 114.596 127.15 114.184 126.306C113.772 125.461 113.161 124.728 112.404 124.168" fill="#389E7E"/>
<path d="M80.1863 124.062C80.1863 124.062 89.9399 128.37 100.373 126.103" stroke="#0E1C26" stroke-width="0.5" stroke-linejoin="round"/>
<path d="M105.203 159.214C104.069 158.973 103.057 158.338 102.348 157.424C101.64 156.509 101.28 155.374 101.334 154.22C101.334 149.912 98.9848 108.169 101.334 105.832" stroke="#0E1C26" stroke-width="0.5" stroke-linejoin="round"/>
<path d="M93.6801 84.3372C92.4619 84.3372 85.7886 86.2954 85.7886 92.7363C85.7886 99.1772 85.5537 112.346 85.5537 112.346L86.9619 113.346C86.9619 113.346 87.5955 94.365 87.7219 92.4295C88.0197 87.8608 95.107 85.8434 95.107 85.8434" fill="#0E1C26"/>
<path d="M105.23 140.639C110.444 141.029 115.68 141.029 120.894 140.639C120.894 140.639 123.206 158.749 119.898 159.532C115.099 160.667 108.151 160.762 106.304 159.088C104.106 157.097 105.23 140.639 105.23 140.639Z" fill="url(#paint5_linear)"/>
<path d="M126.404 139.701C126.404 139.701 134.093 140.152 140.252 138.167C140.252 138.167 141.565 152.725 139.05 155.226C135.112 159.148 129.543 158.343 127.751 156.819C125.959 155.294 126.404 139.701 126.404 139.701Z" fill="url(#paint6_linear)"/>
<path d="M105.23 140.639C110.414 141.517 115.71 141.517 120.894 140.639" stroke="#0E1C26" stroke-width="0.5" stroke-linecap="round" stroke-linejoin="round"/>
<path d="M126.404 139.701C126.404 139.701 135.378 139.828 140.252 138.167" stroke="#0E1C26" stroke-width="0.5" stroke-linecap="round" stroke-linejoin="round"/>
<path d="M86.9626 83.248C88.1261 83.248 93.591 86.4221 96.9775 93.4519C99.9072 99.5337 101.772 112.221 104.066 114.506C106.36 116.792 136.079 117.186 137.15 112.349C138.221 107.512 133.881 77.5901 110.597 75.0209" fill="url(#paint7_linear)"/>
<path d="M91.221 83.248C92.2871 83.248 97.2884 86.1537 100.387 92.5864C103.066 98.1507 104.773 109.762 106.873 111.852C108.973 113.942 136.17 114.304 137.15 109.877" stroke="#389E7E" stroke-width="0.5" stroke-miterlimit="10" stroke-linecap="round"/>
<path d="M111.669 124.062C119.502 124.259 127.336 123.788 135.088 122.653" stroke="#0E1C26" stroke-width="0.5" stroke-linecap="round" stroke-linejoin="round"/>
<path d="M76.3355 65.0441C80.3659 65.0441 84.3894 65.5141 88.4177 65.4019C89.0565 65.4364 89.6927 65.2975 90.2585 65.0001C91.3792 64.2914 91.5215 62.6731 91.5395 61.297C93.1184 62.23 95.2555 62.4157 96.9981 63.0123C99.0358 63.7079 101.207 64.6719 102.203 66.6679C103.327 66.5052 104.474 66.6312 105.535 67.034C108.719 68.1396 111.41 70.3267 113.136 73.2114C115.105 76.4099 116.147 80.0887 116.146 83.8405C116.149 84.4403 116.051 85.0363 115.857 85.604C115.311 86.7223 114.382 87.6093 113.237 88.1044C108.513 90.6178 103.041 91.0004 97.8674 90.2587C92.5682 89.4977 87.4165 87.9372 82.5894 85.6308C77.5232 83.1965 73.4631 79.1094 68.4467 76.6173C65.0071 74.915 61.146 73.9538 57.3857 74.5304C57.7844 74.4691 59.784 70.9477 60.2822 70.4247C61.5596 69.0813 63.0518 67.9581 64.6982 67.1007C68.1634 65.3063 72.5241 65.0427 76.3355 65.0441Z" fill="#DB340A"/>
<path d="M113.24 88.103C114.385 87.6079 115.315 86.7209 115.86 85.6026C116.055 85.0349 116.152 84.4389 116.15 83.8391C116.15 80.0873 115.108 76.4085 113.139 73.21C111.413 70.3253 108.722 68.1382 105.538 67.0326C104.477 66.6298 103.33 66.5038 102.207 66.6666C102.125 66.5143 102.035 66.3664 101.937 66.2234C102.209 66.9686 102.52 67.7 102.778 68.45C103.102 69.3995 103.305 70.5465 102.722 71.346C102.022 72.3093 100.85 72.0712 99.8553 72.2013C98.783 72.3526 97.6904 72.2688 96.654 71.9557C94.0975 71.2339 91.7862 69.813 89.3001 68.8821C87.3199 68.1418 85.2771 67.5797 83.1961 67.2025C78.2619 66.3129 73.0389 66.487 68.3694 68.5257C73.1177 67.012 78.2737 67.9656 82.9688 69.6513C87.6639 71.3371 92.1199 73.7384 96.88 75.2074C99.1443 75.9065 101.766 76.1831 103.896 74.8792C104.141 74.6828 104.44 74.5643 104.754 74.5393C104.949 74.5799 105.133 74.6636 105.292 74.7842C105.451 74.9048 105.581 75.0593 105.672 75.2363C106.395 76.3028 106.771 77.9624 105.81 78.7997C105.451 79.0708 105.031 79.2512 104.587 79.3254C98.1891 80.8511 91.4572 80.108 85.5502 77.2241C87.0793 77.8076 88.0923 79.3137 89.4113 80.3142C92.5711 82.7086 97.3657 82.1354 99.9921 85.1594C100.138 85.2948 100.25 85.4612 100.322 85.6461C100.394 85.831 100.423 86.0297 100.407 86.2273C100.302 86.7089 99.7758 86.9291 99.3191 87.0482C94.2896 88.3472 88.9961 86.9794 84.1123 85.1711C81.989 84.3847 79.8788 83.515 77.7499 82.7285C79.2857 83.8182 80.9042 84.7874 82.5908 85.6273C87.4179 87.9337 92.5696 89.4942 97.8688 90.2552C103.045 90.999 108.516 90.6164 113.24 88.103Z" fill="#B72609"/>
<path d="M59.3667 74.5324C59.3667 74.5324 60.0701 73.4081 64.2594 75.0141C68.4488 76.62 77.3367 82.8359 80.1863 84.3372" stroke="#721C0E" stroke-width="0.5" stroke-linejoin="round"/>
<path d="M76.3354 65.0441C72.5233 65.0441 68.1626 65.3063 64.7002 67.1028C63.0538 67.9601 61.5616 69.0833 60.2842 70.4268C59.786 70.949 57.7864 74.4712 57.3877 74.5324C57.5369 74.509 57.6855 74.5042 57.8361 74.4863C60.7175 71.1321 64.1702 68.225 68.2863 67.0402C69.3327 66.7586 70.3938 66.5342 71.4648 66.368C73.3727 66.0031 75.2982 65.7362 77.2337 65.5684C79.187 65.4308 81.1777 65.4941 83.1194 65.2932C80.8592 65.1872 78.5983 65.0441 76.3354 65.0441Z" fill="#FFE633"/>
<path d="M73.4197 41.4431C73.2602 41.6633 73.1537 41.9171 73.1086 42.1848" stroke="#091319" stroke-miterlimit="10"/>
<path d="M68.7431 47.4092L72.356 49.664C72.356 49.664 69.2993 52.5538 67.8462 50.7257C66.8913 49.5161 68.7431 47.4092 68.7431 47.4092Z" fill="white"/>
<path d="M70.7289 42.1848C70.7289 42.1848 66.0567 43.6985 66.5051 44.5875C66.9535 45.4765 69.0388 45.9733 69.0388 45.9733" fill="#DD864B"/>
<path d="M157.253 26.305C155.28 21.8154 150.896 13.3406 150.043 13.5649C149.19 13.7892 150.742 18.3972 150.165 18.8024C149.589 19.2077 144.063 11.381 143.492 11.7842C142.921 12.1874 147.813 20.1785 147.813 20.1785C147.813 20.1785 141.787 12.6532 141.552 13.2347C141.316 13.8161 144.034 18.6455 145.537 21.2161C144.556 19.871 141.126 15.7722 140.908 16.1933C140.689 16.6144 145.375 23.1303 145.375 23.1303C145.375 23.1303 141.452 18.702 141.055 18.982C140.658 19.262 144.051 23.7537 145.125 25.1346L152.543 34.6676" fill="#DD864B"/>
<path d="M147.809 32.9571C147.809 32.9571 144.383 27.1259 145.133 26.3463C145.883 25.5667 154.931 21.1728 155.843 22.1189C156.755 23.0649 161.09 32.1576 161.09 32.1576" fill="#196461"/>
<path d="M148.544 32.1645C148.544 32.1645 145.73 27.3735 145.769 25.9032C145.542 26.0284 145.329 26.1769 145.132 26.3463C144.383 27.1258 147.808 32.9571 147.808 32.9571L161.086 32.1576L160.741 31.431L148.544 32.1645Z" fill="#FFE633"/>
<path d="M246.644 17.8729C245.878 13.428 244.94 5.075 245.709 4.81766C246.479 4.56033 246.981 8.49327 247.628 8.5146C248.274 8.53592 249.193 -0.241617 249.839 -0.223728C250.484 -0.205838 250.784 8.40244 250.784 8.40244C250.784 8.40244 251.59 -0.417072 252.065 -0.088869C252.54 0.239334 252.907 5.31856 253.058 8.04946C253.127 6.52129 253.68 1.64503 254.061 1.86039C254.443 2.07575 254.154 9.44347 254.154 9.44347C254.154 9.44347 254.914 4.06218 255.365 4.07663C255.816 4.09108 255.487 9.25356 255.365 10.8554C255.079 14.5438 254.793 18.2318 254.51 21.9193" fill="#DD864B"/>
<path d="M244.495 18.6428C244.495 18.6428 244.333 12.4297 245.283 12.1324C246.233 11.8352 255.485 12.292 255.798 13.4576C256.111 14.6232 255.551 23.8672 255.551 23.8672" fill="#196461"/>
<path d="M245.437 18.3263C245.437 18.3263 245.305 13.2223 245.99 12.0553C245.751 12.055 245.512 12.0804 245.278 12.131C244.328 12.4276 244.491 18.6414 244.491 18.6414L255.546 23.8658L255.589 23.1255L245.437 18.3263Z" fill="#FFE633"/>
<path d="M298.821 260.542L334.902 268.513C334.902 268.513 338.524 285.577 342.645 289.679C343.264 290.22 344.01 290.596 344.814 290.773C345.948 291.073 348.586 289.614 348.724 288.454L353.269 253.923C353.648 250.724 349.821 248.543 338.833 247.336L299.033 236.445" fill="#031B2D"/>
<path d="M336.416 267.522C336.416 267.522 317.375 262.81 317.144 262.246C317.144 262.246 316.993 263.1 316.804 264.517L334.908 268.516C334.908 268.516 337.912 282.629 341.558 288.258C338.759 283.405 336.416 267.522 336.416 267.522Z" fill="#FFE633"/>
<path d="M342.029 288.945C341.897 288.782 341.776 288.611 341.666 288.433C341.787 288.612 341.906 288.784 342.029 288.945Z" fill="#FFE633"/>
<path d="M341.664 278.592C341.793 278.592 341.921 278.617 342.04 278.666C342.16 278.715 342.269 278.787 342.36 278.878C342.452 278.969 342.524 279.077 342.574 279.196C342.623 279.315 342.648 279.443 342.648 279.571C342.648 279.831 342.545 280.08 342.36 280.264C342.176 280.448 341.926 280.551 341.665 280.552C341.536 280.552 341.408 280.527 341.288 280.477C341.169 280.428 341.06 280.356 340.969 280.265C340.878 280.174 340.805 280.066 340.756 279.948C340.706 279.829 340.68 279.701 340.68 279.573C340.68 279.444 340.706 279.317 340.755 279.198C340.804 279.079 340.877 278.971 340.968 278.88C341.059 278.789 341.168 278.716 341.287 278.667C341.406 278.618 341.534 278.592 341.664 278.592Z" fill="#9B2710"/>
<path d="M339.676 270.598C339.805 270.598 339.933 270.624 340.053 270.673C340.172 270.722 340.281 270.794 340.372 270.885C340.464 270.976 340.536 271.084 340.585 271.203C340.635 271.322 340.66 271.45 340.66 271.579C340.66 271.707 340.635 271.835 340.586 271.954C340.536 272.073 340.464 272.181 340.373 272.272C340.281 272.363 340.173 272.435 340.054 272.485C339.934 272.534 339.806 272.559 339.677 272.559C339.416 272.559 339.166 272.456 338.981 272.272C338.796 272.088 338.693 271.839 338.692 271.579C338.693 271.319 338.796 271.07 338.981 270.886C339.165 270.703 339.415 270.599 339.676 270.598Z" fill="#9B2710"/>
<path d="M338.833 247.336C338.833 247.336 341.492 256.02 349.82 257.54" stroke="#721C0E" stroke-width="0.5" stroke-linejoin="round"/>
<path d="M346.142 290.609L350.38 254.96C350.449 253.28 350.425 251.597 350.307 249.919" stroke="#721C0E" stroke-width="0.5" stroke-linejoin="round"/>
<path d="M335.924 272.715L340.464 275.764" stroke="#721C0E" stroke-width="0.5" stroke-linecap="round" stroke-linejoin="round"/>
<path d="M336.881 276.598L341.422 279.648" stroke="#721C0E" stroke-width="0.5" stroke-linecap="round" stroke-linejoin="round"/>
<path d="M336.676 275.766L339.677 271.696" stroke="#721C0E" stroke-width="0.5" stroke-linecap="round" stroke-linejoin="round"/>
<path d="M338.197 280.896L340.328 275.968" stroke="#721C0E" stroke-width="0.5" stroke-linecap="round" stroke-linejoin="round"/>
<path d="M339.51 284.405C341.948 284.981 344.489 284.979 346.927 284.4" stroke="#721C0E" stroke-width="0.5" stroke-linejoin="round"/>
<path d="M212.914 164.912C212.914 164.912 224.379 227.869 255.801 247.37C279.802 262.265 307.896 267.191 319.829 269.543C321.386 269.85 323.001 269.538 324.33 268.675C325.658 267.811 326.595 266.464 326.939 264.922L331.044 246.71C331.387 245.204 331.139 243.625 330.35 242.296C329.562 240.966 328.292 239.988 326.802 239.561C314.158 235.935 283.352 226.331 273.107 216.129C265.629 208.683 259.259 193.572 254.666 179.919C250.846 158.19 248.62 150.518 248.62 150.518" fill="#2BA393"/>
<path d="M257.873 246.132C226.451 226.633 214.895 164.912 214.895 164.912H212.918C212.918 164.912 224.383 227.869 255.805 247.37C279.805 262.265 307.899 267.191 319.832 269.543C320.83 269.733 321.859 269.669 322.825 269.356C310.417 266.929 281.282 260.659 257.873 246.132Z" fill="#FFE633"/>
<path d="M225.064 190.913C225.064 190.913 241.099 227.394 252.304 238.554C263.51 249.714 312.004 269.777 326.94 264.921" stroke="#5DC9B7" stroke-width="0.5" stroke-miterlimit="10"/>
<path d="M201.039 294.592L207.664 330.8C207.664 330.8 193.275 340.746 191.081 346.119C190.82 346.898 190.761 347.729 190.91 348.536C191.073 349.693 193.446 351.549 194.573 351.224L229.129 341.523C232.239 340.628 233.264 338.633 228.79 326.19L223.421 285.435" fill="#031B2D"/>
<path d="M209.168 331.802C209.168 331.802 206.14 312.5 206.572 312.069C206.572 312.069 205.725 312.262 204.341 312.637L207.664 330.802C207.664 330.802 195.769 339.034 191.974 344.563C195.378 340.119 209.168 331.802 209.168 331.802Z" fill="#FFE633"/>
<path d="M191.521 345.269C191.62 345.086 191.731 344.908 191.853 344.738C191.734 344.917 191.621 345.096 191.521 345.269Z" fill="#FFE633"/>
<path d="M200.961 340.916C201.062 341.156 201.064 341.426 200.966 341.666C200.867 341.907 200.677 342.099 200.437 342.2C200.196 342.301 199.925 342.302 199.684 342.204C199.442 342.106 199.249 341.917 199.147 341.678C199.097 341.559 199.071 341.432 199.07 341.303C199.069 341.175 199.093 341.047 199.142 340.928C199.191 340.808 199.263 340.7 199.354 340.608C199.444 340.517 199.553 340.444 199.672 340.394C199.791 340.344 199.919 340.318 200.048 340.317C200.177 340.316 200.306 340.341 200.425 340.389C200.545 340.438 200.654 340.509 200.746 340.6C200.838 340.69 200.911 340.798 200.961 340.916Z" fill="#9B2710"/>
<path d="M207.586 335.991C207.688 336.23 207.689 336.5 207.591 336.741C207.493 336.981 207.302 337.173 207.062 337.274C206.943 337.325 206.815 337.351 206.686 337.352C206.556 337.353 206.428 337.328 206.308 337.28C206.189 337.231 206.08 337.16 205.988 337.069C205.896 336.979 205.823 336.871 205.772 336.752C205.722 336.634 205.696 336.506 205.695 336.378C205.694 336.249 205.719 336.121 205.767 336.002C205.816 335.883 205.888 335.774 205.979 335.683C206.07 335.591 206.178 335.518 206.297 335.468C206.537 335.368 206.808 335.366 207.05 335.464C207.292 335.562 207.485 335.751 207.586 335.991Z" fill="#9B2710"/>
<path d="M228.79 326.188C228.79 326.188 221.782 331.998 223.608 340.232" stroke="#721C0E" stroke-width="0.5" stroke-linejoin="round"/>
<path d="M191.576 349.691L227.047 339.273C228.629 338.685 230.177 338.009 231.684 337.25" stroke="#721C0E" stroke-width="0.5" stroke-linejoin="round"/>
<path d="M204.172 333.367L203.112 338.717" stroke="#721C0E" stroke-width="0.5" stroke-linecap="round" stroke-linejoin="round"/>
<path d="M200.949 335.753L199.889 341.104" stroke="#721C0E" stroke-width="0.5" stroke-linecap="round" stroke-linejoin="round"/>
<path d="M201.64 335.241L206.572 336.416" stroke="#721C0E" stroke-width="0.5" stroke-linecap="round" stroke-linejoin="round"/>
<path d="M197.482 338.629L202.87 338.672" stroke="#721C0E" stroke-width="0.5" stroke-linecap="round" stroke-linejoin="round"/>
<path d="M194.745 341.195C195.158 343.657 196.146 345.987 197.628 348" stroke="#721C0E" stroke-width="0.5" stroke-linejoin="round"/>
<path d="M194.058 156.664C194.058 156.664 187.809 207.399 189.401 231.002C191.577 263.241 198.481 300.617 201.005 316.843C201.253 318.436 202.083 319.881 203.335 320.903C204.587 321.924 206.174 322.45 207.791 322.379L228.443 321.496C228.895 321.478 229.338 321.368 229.745 321.171C230.151 320.973 230.512 320.694 230.804 320.351C231.097 320.007 231.314 319.607 231.443 319.176C231.572 318.744 231.609 318.29 231.552 317.844C229.723 303.48 222.909 249.281 222.787 237.68C222.654 225.131 228.388 183.88 228.388 183.88C228.388 183.88 237.36 171.468 230.184 152.279" fill="#2BA393"/>
<path d="M191.26 234.602C189.666 211.002 195.916 160.264 195.916 160.264L194.057 156.663C194.057 156.663 187.807 207.397 189.399 231.001C191.576 263.24 198.479 300.616 201.003 316.842C201.222 318.208 201.873 319.469 202.862 320.441C200.339 304.217 193.437 266.842 191.26 234.602Z" fill="#FFE633"/>
<path d="M200.625 157.243C200.625 157.243 194.375 207.978 195.967 231.581C198.141 263.82 202.87 314.94 208.084 320.722" stroke="#5DC9B7" stroke-width="0.5" stroke-miterlimit="10"/>
<g style="mix-blend-mode:multiply" opacity="0.25">
<g style="mix-blend-mode:multiply" opacity="0.25">
<g style="mix-blend-mode:multiply" opacity="0.25">
<path d="M182.825 175.055C184.959 173.485 187.357 172.306 189.906 171.574C191.16 171.215 192.66 171.015 193.637 171.875C194.315 172.472 194.541 173.413 194.918 174.234C195.951 176.476 198.266 177.912 200.658 178.553C203.049 179.195 205.564 179.163 208.043 179.242C210.295 179.31 213.072 179.871 213.683 182.032C214.178 183.787 212.854 185.536 211.411 186.653C209.967 187.769 208.239 188.685 207.379 190.293C206.667 191.627 206.677 193.206 206.474 194.7C205.919 198.624 203.824 202.17 200.649 204.559C196.551 207.611 191.235 208.344 186.346 209.841C181.458 211.339 176.327 214.281 175.128 219.236L182.825 175.055ZM225.634 216.505C225.05 215.827 224.287 215.325 223.431 215.059C222.574 214.793 221.66 214.772 220.793 214.999C219.933 215.252 219.162 215.742 218.568 216.411C217.974 217.08 217.582 217.902 217.436 218.783C217.257 219.983 217.552 221.231 217.27 222.411C216.732 224.664 214.378 225.899 212.346 227.021C210.314 228.143 208.124 229.911 208.339 232.214C208.539 234.37 210.774 235.8 211.395 237.876C212.16 240.421 210.264 243.036 208.079 244.564C205.894 246.091 203.289 247.083 201.481 249.04C199.674 250.997 199.096 254.517 201.24 256.102C202.216 256.737 203.383 257.013 204.542 256.885C209.434 256.61 213.529 252.834 218.394 252.242C220.708 251.96 223.038 252.422 225.356 252.677C227.675 252.932 230.132 252.952 232.202 251.889C234.272 250.826 235.776 248.359 235.052 246.152C234.423 244.231 232.352 242.987 231.916 241.015C231.559 239.39 232.469 237.691 233.774 236.658C235.149 235.702 236.709 235.044 238.354 234.726C241.838 233.848 245.431 233.23 248.677 231.689C251.923 230.147 254.861 227.474 255.647 223.982C256.011 222.587 255.856 221.108 255.21 219.818C253.942 217.528 250.95 216.769 248.335 216.986C245.721 217.204 243.204 218.156 240.586 218.326C240.434 218.356 240.277 218.352 240.126 218.314C239.975 218.276 239.835 218.205 239.715 218.106C239.487 217.851 239.553 217.46 239.586 217.119C239.87 214.268 236.645 212.074 233.775 212.28C230.906 212.486 228.439 214.294 226.153 216.033L225.634 216.505ZM258.08 155.432C255.183 160.828 252.286 166.224 249.389 171.619C248.587 172.944 247.995 174.385 247.636 175.891C247.199 178.267 247.924 180.792 247.201 183.099C246.559 185.145 244.894 186.671 243.545 188.339C242.196 190.007 241.082 192.217 241.808 194.233C244.227 195.296 247.285 192.994 249.561 194.33C252.681 196.157 250.276 202.097 253.371 203.966C255.241 205.095 257.6 203.749 259.296 202.374C266.042 196.904 271.752 190.277 276.156 182.806L258.08 155.432ZM277.862 209.571C276.896 211.95 276.642 214.556 277.129 217.075C277.616 219.594 278.824 221.92 280.608 223.771C282.467 225.637 284.945 227.005 286.108 229.369C287.345 231.881 286.775 234.85 286.805 237.649C286.844 240.933 287.746 244.151 289.423 246.98C290.054 248.038 291.05 249.156 292.273 248.98C293.586 248.79 294.188 247.279 294.535 246.003L296.005 240.613C296.121 239.962 296.415 239.355 296.854 238.858C297.488 238.414 298.221 238.131 298.989 238.033C303.804 236.769 306.175 231.133 306.006 226.179C305.836 221.225 303.879 216.508 303.19 211.598L277.862 209.571ZM306.422 284.688C311.538 283.28 316.338 280.914 320.564 277.716C322.181 276.494 323.788 275.025 324.295 273.065C325.313 269.1 321.485 265.565 320.758 261.538C319.929 256.948 323.218 252.144 321.684 247.738C321.222 246.414 319.933 245.101 318.595 245.536C317.932 245.831 317.386 246.336 317.041 246.972C315.614 249.086 314.417 251.345 313.471 253.711C312.771 255.465 311.586 257.663 309.724 257.319C307.781 256.958 307.044 253.938 305.068 253.958C304.513 254.001 303.981 254.198 303.532 254.525C300.961 256.152 299.222 258.768 297.156 260.997C293.72 264.696 289.326 267.38 284.458 268.755L306.422 284.688ZM186.203 316.437C189.401 317.147 192.679 315.808 195.564 314.264C200.308 311.722 204.688 308.556 208.585 304.851C210.637 302.9 212.661 300.546 212.787 297.723C212.938 294.268 210.27 290.456 212.303 287.655C212.856 286.891 213.685 286.369 214.275 285.634C216.57 282.761 214.314 278.227 215.998 274.961C216.638 273.714 217.848 272.658 217.864 271.259C217.882 269.396 215.604 268.208 213.777 268.599C211.95 268.99 210.546 270.404 209.255 271.751L204.453 276.77C204.066 277.23 203.592 277.609 203.058 277.884C202.339 278.124 201.572 278.182 200.826 278.051L188.153 276.881L186.203 316.437ZM233.502 282.533C231.283 282.939 229.279 284.11 227.842 285.842C226.405 287.574 225.627 289.755 225.645 292.001C225.714 293.832 226.267 295.892 225.137 297.338C224.506 297.982 223.773 298.519 222.968 298.928C221.861 299.661 220.94 300.639 220.277 301.786C219.614 302.932 219.227 304.216 219.146 305.537C219.032 307.693 220.012 310.111 222.056 310.835C224.588 311.73 227.109 309.729 229.361 308.267C232.33 306.346 235.74 305.207 239.272 304.96C240.569 304.869 242.087 304.795 242.823 303.727" fill="#2BA393"/>
</g>
</g>
</g>
<path d="M192.784 150.616C192.095 154.149 191.811 157.748 191.939 161.345C212.576 169.144 239.473 161.228 239.473 160.554C239.473 159.88 234.736 143.708 234.736 143.708" fill="#196461"/>
<path d="M205.853 56.4639C202.566 58.0547 199.862 60.6219 197.417 63.3287C195.735 65.1864 191.959 70.5966 195.977 72.1234C197.028 72.5231 198.121 72.8001 199.236 72.9491L200.026 78.0964C200.089 78.9927 200.376 79.859 200.862 80.6161C201.583 81.394 202.54 81.9151 203.588 82.0996C204.983 82.4687 206.411 82.7092 207.851 82.8179C208.415 82.9005 208.991 82.8409 209.526 82.6445C210.789 82.0727 210.973 80.3918 210.977 79.0088" fill="#DD864B"/>
<path d="M202.818 60.2978C200.666 60.748 198.541 61.3197 196.454 62.0104C196.201 62.0943 195.901 62.2409 195.901 62.5065C195.914 62.6422 195.972 62.7696 196.067 62.8677C196.439 63.3264 196.908 63.6964 197.442 63.9505C197.976 64.2046 198.561 64.3363 199.152 64.336" fill="#DD864B"/>
<path d="M204.017 60.95C203.67 61.1837 203.369 61.4787 203.129 61.8204" stroke="#091319" stroke-miterlimit="10"/>
<path d="M199.85 68.0419L196.429 66.4249C196.429 66.4249 194.728 69.1049 195.898 69.5728C197.667 70.2836 199.85 68.0419 199.85 68.0419Z" fill="white"/>
<path d="M226.577 79.2434C229.18 71.0686 233.618 60.0377 236.029 49.4155C239.829 32.6702 241.296 18.7605 243.209 16.8566C246.334 13.7452 256.511 17.2853 256.514 20.8549C256.204 31.9244 255.171 42.9621 253.422 53.8982C250.218 74.6169 244.566 98.3597 243.208 106.724C241.911 114.721 238.179 119.003 237.859 127.091C237.702 131.086 237.616 135.083 237.6 139.081C237.596 140.77 237.678 142.47 237.635 144.157C237.59 145.878 237.075 147.383 237.672 149.095C238.103 150.341 238.696 151.648 238.363 152.923C237.922 154.604 236.09 155.477 234.432 156.01C222.692 159.787 209.959 157.592 197.826 155.374C196.037 155.046 194.192 154.697 192.681 153.69C192.003 153.285 191.48 152.666 191.195 151.931C191.039 151.268 191.009 150.581 191.109 149.907C191.372 145.887 190.217 141.426 189.306 137.522C188.339 133.371 187.313 129.235 186.393 125.074C184.332 115.765 182.756 106.3 182.756 96.7421C164.993 64.0724 147.229 42.4544 147.229 32.62C147.229 29.4191 149.801 28.9891 152.878 28.0169C155.288 27.2552 158.009 26.1199 160.041 27.1224C164.671 29.4033 190.827 75.1687 196.189 77.3065C200.467 79.0122 205.073 78.47 207.824 78.7108C212.301 79.1044 215.681 80.6209 220.153 80.1778" fill="#053A36"/>
<path d="M227.497 77.7318C230.102 71.2448 235.248 58.5591 237.658 47.9389C241.261 32.0675 242.913 17.2571 245.655 15.7592C244.743 15.8599 243.887 16.2453 243.209 16.86C241.296 18.7653 239.829 32.6757 236.029 49.421C233.755 59.4418 229.695 69.795 227.055 77.802L227.497 77.7318Z" fill="#FFE633"/>
<path d="M193.936 154.048C193.781 153.384 193.752 152.698 193.85 152.024C194.114 148.004 192.959 143.542 192.049 139.639C191.082 135.489 188.236 127.723 187.314 123.563C185.253 114.255 183.677 104.79 183.677 95.2318C166.521 63.6748 149.011 40.8663 147.836 30.4856C147.414 31.1155 147.202 31.8618 147.23 32.6186C147.23 42.4516 164.994 64.0718 182.757 96.7407C182.757 106.299 184.332 115.763 186.394 125.072C187.314 129.234 188.339 133.371 189.307 137.52C190.217 141.425 191.372 145.887 191.109 149.906C191.01 150.58 191.039 151.266 191.196 151.93C191.48 152.665 192.004 153.284 192.682 153.688C193.131 153.978 193.607 154.221 194.105 154.414C194.04 154.296 193.983 154.174 193.936 154.048Z" fill="#FFE633"/>
<path d="M235.352 154.498C230.243 156.182 224.983 157.37 219.645 158.045C224.652 158.166 229.645 157.478 234.432 156.01C236.09 155.476 237.922 154.604 238.363 152.923V152.9C237.488 153.645 236.461 154.19 235.352 154.498Z" fill="#FFE633"/>
<path d="M182.758 99.2631C183.587 103.181 185.475 106.788 187.462 110.272C193.851 121.466 201.452 131.928 210.131 141.471C208.981 143.465 208.038 145.57 207.318 147.754C196.402 138.665 179.059 113.846 182.758 99.2631Z" fill="#601E15"/>
<path d="M182.402 101.265C180.601 116.021 196.887 139.067 207.316 147.753C207.375 147.576 207.458 147.409 207.52 147.23C198.09 138.594 183.805 117.471 182.402 101.265Z" fill="#FFE633"/>
<path d="M206.239 98.046C204.809 104.826 204.842 111.816 204.882 118.745C204.932 127.667 204.981 133.583 205.032 142.506C205.072 149.468 205.681 156.057 211.453 159.983C214.506 162.063 218.373 162.452 222.059 162.778C230.912 163.563 239.955 164.334 248.592 162.236C250.457 161.783 252.387 161.135 253.66 159.706C255.273 157.892 255.465 155.261 255.522 152.839C255.853 138.945 254.403 129.518 251.224 115.986C250.731 113.706 250.065 111.467 249.232 109.287C247.885 105.997 245.899 103.003 243.389 100.477C240.879 97.9516 237.894 95.9433 234.604 94.5671C231.3 93.2237 227.763 92.5421 224.194 92.5614C220.625 92.5806 217.095 93.3003 213.806 94.6793" fill="#601E15"/>
<path d="M236.91 126.648C236.91 126.648 236.533 129.332 238.173 129.332C239.814 129.332 244.919 129.818 244.919 128.801V126.38" fill="#3F1A11"/>
<path d="M210.749 123.783C210.523 125.284 210.748 126.819 211.397 128.193C211.637 128.696 212.266 129.233 212.663 128.841C212.799 128.674 212.866 128.463 212.853 128.249C212.875 127.471 212.708 126.699 212.366 125.999C212.025 125.299 211.519 124.691 210.891 124.227" fill="#3F1A11"/>
<path d="M232.305 133.61C232.076 135.112 232.302 136.647 232.952 138.021C233.191 138.524 233.819 139.06 234.218 138.668C234.353 138.501 234.421 138.29 234.408 138.076C234.43 137.299 234.263 136.527 233.922 135.827C233.58 135.127 233.074 134.519 232.447 134.055" fill="#3F1A11"/>
<path d="M205.748 133.969C205.748 133.969 213.832 137.539 222.476 135.661" stroke="#B2683F" stroke-width="0.5" stroke-linejoin="round"/>
<path d="M226.479 163.097C225.539 162.897 224.7 162.372 224.113 161.614C223.525 160.856 223.227 159.915 223.272 158.958C223.272 155.389 221.327 120.799 223.272 118.862" stroke="#B2683F" stroke-width="0.5" stroke-linejoin="round"/>
<path d="M216.929 101.049C215.92 101.049 210.39 102.672 210.39 108.011C210.39 113.35 210.195 124.262 210.195 124.262L211.363 125.087C211.363 125.087 211.888 109.359 211.992 107.754C212.239 103.969 218.112 102.297 218.112 102.297" fill="#38110D"/>
<path d="M226.501 147.705C230.821 148.028 235.16 148.028 239.48 147.705C239.48 147.705 241.395 162.713 238.651 163.363C234.675 164.302 228.918 164.381 227.388 162.995C225.569 161.344 226.501 147.705 226.501 147.705Z" fill="#7F3622"/>
<path d="M244.046 146.93C244.046 146.93 250.418 147.305 255.521 145.658C255.521 145.658 256.609 157.722 254.525 159.796C251.261 163.046 246.648 162.379 245.162 161.114C243.675 159.849 244.046 146.93 244.046 146.93Z" fill="#7F3622"/>
<path d="M226.501 147.705C230.796 148.433 235.184 148.433 239.48 147.705" stroke="#B2683F" stroke-width="0.5" stroke-linecap="round" stroke-linejoin="round"/>
<path d="M244.046 146.93C244.046 146.93 251.483 147.034 255.521 145.658" stroke="#B2683F" stroke-width="0.5" stroke-linecap="round" stroke-linejoin="round"/>
<path d="M211.363 100.148C212.33 100.148 216.856 102.778 219.662 108.603C222.088 113.643 223.634 124.153 225.535 126.049C227.436 127.944 252.063 128.27 252.95 124.26C253.837 120.249 250.242 95.4547 230.947 93.3259" fill="#7F3622"/>
<path d="M214.892 100.148C215.774 100.148 219.919 102.556 222.487 107.886C224.708 112.496 226.121 122.118 227.863 123.849C229.604 125.58 252.14 125.881 252.951 122.212" stroke="#B2683F" stroke-width="0.5" stroke-linejoin="round"/>
<path d="M231.837 133.969C238.327 134.132 244.82 133.74 251.243 132.8" stroke="#B2683F" stroke-width="0.5" stroke-linecap="round" stroke-linejoin="round"/>
<path d="M210.84 55.5777C209.786 55.4255 208.71 55.6082 207.766 56.0999C206.113 57.0852 205.63 59.265 205.699 61.1826C205.866 65.8139 205.307 69.3705 201.31 72.3078C199.949 73.3069 198.392 74.0417 197.146 75.1791C195.899 76.3164 194.979 78.0386 195.433 79.6604C196.406 83.1378 202.373 83.2025 203.203 86.7178C203.673 88.7132 202.143 90.553 201.303 92.4239C200.781 93.6112 200.522 94.8969 200.543 96.1931C200.565 97.4893 200.868 98.7655 201.43 99.9347C202.009 101.096 202.832 102.119 203.844 102.935C204.855 103.751 206.032 104.341 207.292 104.663C210.579 105.477 214.459 104.501 217.126 106.581C218.969 108.022 219.605 110.497 221.009 112.368C224.415 116.909 230.752 120.533 236.474 120.561C241.435 120.585 248.29 118.1 250.068 113.073C250.756 110.788 251.009 108.395 250.816 106.018C250.669 101.748 249.783 96.5226 246.35 93.5165C243.926 91.3952 239.324 91.4626 238.249 87.9226C237.143 84.2952 241.41 79.8035 238.817 77.0265C237.417 75.5286 233.842 75.2121 231.913 74.7422C229.374 74.1229 226.91 74.1229 225.101 71.8812C224.392 70.9015 223.843 69.8169 223.474 68.6673C222.75 66.7605 222.026 64.8536 221.3 62.9468" fill="#031B2D"/>
<path d="M225.038 61.2748C225.021 61.1475 225.003 61.0209 224.985 60.8957C224.346 56.7391 221.921 54.7135 218.679 52.584C214.207 49.6487 207.1 50.2136 203.234 54.3041C203.012 54.5504 202.866 54.8561 202.817 55.1835C202.767 55.5109 202.814 55.8457 202.953 56.1467C204.058 58.2219 206.594 59.5237 207.237 61.8411C207.42 62.6187 207.404 63.4298 207.19 64.1997C206.785 65.8841 205.645 67.5072 205.486 69.2432C205.347 70.7411 206.519 72.1475 207.573 73.0385C210.394 75.4233 217.799 76.3563 221.317 75.2699C226.787 73.58 225.716 66.6135 225.038 61.2748Z" fill="#DB340A"/>
<path d="M203.236 54.3034C204.636 55.7834 206.781 58.0451 208.13 59.6139C209.3 60.9755 210.148 62.7101 209.663 64.6043C209.035 67.0401 206.915 69.2074 208.878 71.6569C210.35 73.4947 212.771 74.416 214.968 74.7291C217.406 75.0766 222.661 73.9509 224.849 72.9291" stroke="#F7882D" stroke-width="0.5" stroke-miterlimit="10"/>
<path d="M203.697 55.33C207.755 51.2409 215.219 50.676 219.915 53.6099C220.418 53.925 220.894 54.2381 221.355 54.5546C220.505 53.8425 219.612 53.1841 218.679 52.5833C214.207 49.648 207.1 50.2129 203.234 54.3034C203.012 54.5498 202.866 54.8555 202.817 55.1829C202.767 55.5103 202.814 55.8451 202.953 56.146C203.039 56.3077 203.148 56.4591 203.25 56.6125C203.231 56.3796 203.261 56.1453 203.338 55.9245C203.415 55.7037 203.537 55.5013 203.697 55.33Z" fill="#FFE633"/>
<path d="M206.062 70.2671C206.229 68.5332 207.427 66.908 207.853 65.2257C208.077 64.4573 208.093 63.6437 207.901 62.867C207.705 62.2481 207.391 61.6729 206.975 61.173C207.081 61.3877 207.169 61.611 207.237 61.8404C207.421 62.6181 207.405 63.4291 207.191 64.1991C206.785 65.8834 205.645 67.5066 205.486 69.2425C205.456 70.1431 205.757 71.0237 206.332 71.7195C206.119 71.2663 206.026 70.7662 206.062 70.2671Z" fill="#FFE633"/>
<path d="M207.185 61.9525C208.792 59.5365 211.051 57.6203 213.701 56.4236C216.352 55.227 219.287 54.7984 222.171 55.1869C222.171 54.7926 220.589 53.1 219.076 52.3996C214.523 52.1243 208.522 55.8192 206.029 59.7797" fill="#091319"/>
<path d="M219.798 52.7869C219.565 52.6436 219.324 52.5142 219.076 52.3996C214.523 52.1243 208.522 55.8192 206.029 59.7783L206.209 60.1175C209.063 56.2892 215.297 52.3851 219.798 52.7869Z" fill="#FFB133"/>
<path d="M219.869 47.9348L219.051 46.8291C219.051 46.8291 219.209 45.1873 221.35 44.7821C222.172 44.5822 223.038 44.6634 223.808 45.0126L225.064 46.8015" fill="#FFB133"/>
<path d="M219.382 54.0482C220.814 52.1592 222.245 50.2705 223.676 48.382" stroke="#0E1C26" stroke-linecap="round" stroke-linejoin="round"/>
<path d="M221.607 47.4043L219.051 50.6498L225.727 50.9622L228.565 47.9348L221.607 47.4043Z" fill="#123A49"/>
<path d="M221.607 47.4043L220.64 45.9944L227.316 46.3068L228.56 47.9368L221.607 47.4043Z" fill="#FFE633"/>
<path d="M221.607 47.4043L220.64 45.9944L218.129 49.1664L219.049 50.6498L221.607 47.4043Z" fill="#FFB133"/>
<defs>
<linearGradient id="paint0_linear" x1="114.875" y1="376.573" x2="66.7029" y2="271.371" gradientUnits="userSpaceOnUse">
<stop offset="0.048" stop-color="#063347"/>
<stop offset="0.385" stop-color="#0B404E"/>
<stop offset="0.995" stop-color="#196461"/>
</linearGradient>
<linearGradient id="paint1_linear" x1="196.346" y1="391.715" x2="152.505" y2="302.585" gradientUnits="userSpaceOnUse">
<stop offset="0.048" stop-color="#063347"/>
<stop offset="0.385" stop-color="#0B404E"/>
<stop offset="0.995" stop-color="#196461"/>
</linearGradient>
<linearGradient id="paint2_linear" x1="337.804" y1="237.639" x2="267.083" y2="93.8454" gradientUnits="userSpaceOnUse">
<stop offset="0.048" stop-color="#063347"/>
<stop offset="0.385" stop-color="#0B404E"/>
<stop offset="0.995" stop-color="#196461"/>
</linearGradient>
<linearGradient id="paint3_linear" x1="57.5444" y1="120.784" x2="83.1172" y2="120.784" gradientUnits="userSpaceOnUse">
<stop offset="0.048" stop-color="#063347"/>
<stop offset="0.385" stop-color="#0B404E"/>
<stop offset="0.995" stop-color="#196461"/>
</linearGradient>
<linearGradient id="paint4_linear" x1="63.1504" y1="88.948" x2="95.9063" y2="88.948" gradientUnits="userSpaceOnUse">
<stop offset="0.048" stop-color="#063347"/>
<stop offset="0.385" stop-color="#0B404E"/>
<stop offset="0.995" stop-color="#196461"/>
</linearGradient>
<linearGradient id="paint5_linear" x1="121.713" y1="157.941" x2="102.54" y2="144.215" gradientUnits="userSpaceOnUse">
<stop offset="0.048" stop-color="#063347"/>
<stop offset="0.385" stop-color="#0B404E"/>
<stop offset="0.995" stop-color="#196461"/>
</linearGradient>
<linearGradient id="paint6_linear" x1="142.075" y1="56.4" x2="125.356" y2="47.8791" gradientUnits="userSpaceOnUse">
<stop offset="0.048" stop-color="#063347"/>
<stop offset="0.385" stop-color="#0B404E"/>
<stop offset="0.995" stop-color="#196461"/>
</linearGradient>
<linearGradient id="paint7_linear" x1="133.221" y1="116.593" x2="102.51" y2="70.7397" gradientUnits="userSpaceOnUse">
<stop offset="0.048" stop-color="#063347"/>
<stop offset="0.385" stop-color="#0B404E"/>
<stop offset="0.995" stop-color="#196461"/>
</linearGradient>
</defs>
</svg>
