<svg width="1439" height="351" viewBox="0 0 1439 351" fill="none" xmlns="http://www.w3.org/2000/svg">
<path d="M1438.15 0.419922C1434.22 1.93992 1430.32 3.64993 1427.14 6.18993C1423.31 9.23993 1423.62 10.3799 1418.56 10.9799C1415.12 11.3899 1411.17 10.9899 1407.7 10.9299C1400.7 10.7999 1400.92 11.0199 1396.24 15.6599C1393.91 17.9699 1391.25 20.0499 1388.8 21.7899C1384.43 24.8999 1382.44 26.2899 1379.19 31.1299C1372.46 41.1499 1371.2 50.5499 1367.08 61.4099C1366.05 64.1199 1363.98 72.4199 1361.93 74.2499C1358.19 77.5999 1355.25 75.0599 1351 73.6799C1333.9 68.1199 1318.11 62.0099 1301.07 58.1399C1289.01 55.3999 1279 59.3599 1267.3 59.5099C1263.16 59.5599 1260.15 59.4499 1256.47 60.8399C1253.79 61.8499 1251.29 64.2299 1248.53 64.9999C1236.24 68.4199 1223.03 73.2999 1210.46 77.8199C1195.57 83.1799 1183.53 93.9599 1172.35 105.17C1166.24 111.3 1160.61 116.27 1153.96 121.34C1147.92 125.94 1144.63 133.55 1138.37 138.15C1126.27 147.02 1115.14 139.49 1102.41 143.09C1097.54 144.47 1093.34 150.12 1090.55 153.9C1085.51 160.72 1079.8 166.67 1073.17 172.04C1064.63 178.96 1056.94 188.17 1046.52 192.21C1037.16 195.84 1015.36 200.12 1005.41 199.92C1002.28 195.82 998.72 197.73 994.55 197.29C990.51 196.86 991.69 196.26 988.6 195.17C981.22 192.57 974.46 188.61 967.08 185.75C951.4 179.66 931.5 179.43 919.01 167.58C911.98 160.91 909.85 156.69 900.11 156.74C893.69 156.77 888.76 158.08 883.31 161.31C877.87 164.53 873.39 168.1 869.81 172.85C866.2 177.64 856.73 186.45 850.91 188.72C844.37 191.27 836.49 187.38 829.85 189.66C824.61 191.45 818.7 195.65 816.08 199.82C812.45 205.6 807.69 210.73 803.51 216.27C800.9 219.74 798.08 226.89 794.27 229.07C788.52 232.37 780.17 227.34 774.46 226.82C768.76 226.3 762.75 227 757.01 226.93C746.76 226.81 742.8 230.68 735.55 237.72C728.08 244.97 718.85 251.01 708.41 251.22C704.27 245.69 695.8 243.78 690.18 239.74C684.25 235.48 679.65 229.78 673.27 226.16C662.84 220.23 648.5 214.58 640.67 205.35C635.32 199.05 634.84 197.23 627.46 193.91C619.88 190.5 613.26 185.42 605.82 181.71C599.39 178.5 593.07 176.96 587.04 172.99C582.04 169.69 576.11 168.39 571.3 165.1C566.8 162.03 564.93 156.76 560 153.89C551 148.66 547.25 145.42 536.93 145.9C532.38 146.11 532.7 147.38 529.2 148.62C522.03 151.17 516.78 151.36 509.02 151.31C502.65 151.27 496.21 151.03 489.85 151.26C474.63 151.81 460.72 162.24 446.71 164.88C434.33 167.22 419.44 160.61 408.85 168.13C389.24 182.03 371.99 191.58 352.01 205.32C339.72 200.73 340.07 187.61 332.43 178.72C323.57 168.4 309.65 168.95 300.36 159.26C290.19 148.65 280.5 136.85 272.39 124.64C266.83 116.26 261.74 108.37 251.74 105.3C247.91 104.12 244.66 103.64 241.23 101.54C237.62 99.3199 236.66 95.7099 231.85 94.6899C228.63 94.0099 225.69 95.2799 222.44 94.2299C219.86 93.3999 217.17 90.7599 214.79 89.4299C205.22 84.0999 195.09 77.6899 185.37 72.8599C177.68 69.0299 171.08 71.2499 162.95 70.4699C153.98 69.6199 141.02 63.0099 134.75 56.6599C127.12 48.9399 120.29 41.8099 110.6 36.4899C96.57 28.7899 82.25 25.1499 66.74 21.7399C43.95 16.7399 20.72 13.6999 -2.03998 8.60992V350.98H1438.11V0.419922H1438.15Z" fill="url(#paint0_linear)"/>
<defs>
<linearGradient id="paint0_linear" x1="720.546" y1="-0.759479" x2="716.088" y2="324.717" gradientUnits="userSpaceOnUse">
<stop stop-color="#006C6D"/>
<stop offset="1" stop-color="#3EAF98"/>
</linearGradient>
</defs>
</svg>
