<svg width="492" height="146" viewBox="0 0 492 146" fill="none"  stroke-width="1px" xmlns="http://www.w3.org/2000/svg">
<path d="M20.4 18.175V16.175H18.4V18.175H20.4ZM20.4 24.7H18.4V26.7H20.4V24.7ZM36.9 24.7H38.9V22.7H36.9V24.7ZM36.9 37.225V39.225H38.9V37.225H36.9ZM20.4 37.225V35.225H18.4V37.225H20.4ZM20.4 44.725H18.4V46.725H20.4V44.725ZM39.15 44.725H41.15V42.725H39.15V44.725ZM39.15 58V60H41.15V58H39.15ZM3.75 58H1.75V60H3.75V58ZM3.75 4.9V2.9H1.75V4.9H3.75ZM39.15 4.9H41.15V2.9H39.15V4.9ZM39.15 18.175V20.175H41.15V18.175H39.15ZM18.4 18.175V24.7H22.4V18.175H18.4ZM20.4 26.7H36.9V22.7H20.4V26.7ZM34.9 24.7V37.225H38.9V24.7H34.9ZM36.9 35.225H20.4V39.225H36.9V35.225ZM18.4 37.225V44.725H22.4V37.225H18.4ZM20.4 46.725H39.15V42.725H20.4V46.725ZM37.15 44.725V58H41.15V44.725H37.15ZM39.15 56H3.75V60H39.15V56ZM5.75 58V4.9H1.75V58H5.75ZM3.75 6.9H39.15V2.9H3.75V6.9ZM37.15 4.9V18.175H41.15V4.9H37.15ZM39.15 16.175H20.4V20.175H39.15V16.175ZM76.9248 58L75.3233 59.198L75.9232 60H76.9248V58ZM69.7998 48.475L71.4013 47.277L69.5568 44.8112L68.0541 47.499L69.7998 48.475ZM64.4748 58V60H65.648L66.2205 58.976L64.4748 58ZM46.1748 58L44.4875 56.9262L42.5315 60H46.1748V58ZM60.3498 35.725L62.0371 36.7987L62.7774 35.6354L61.9534 34.5298L60.3498 35.725ZM45.4248 15.7V13.7H41.4398L43.8212 16.8952L45.4248 15.7ZM64.0248 15.7L65.6308 14.508L65.0311 13.7H64.0248V15.7ZM71.1498 25.3L69.5438 26.492L71.3814 28.9678L72.893 26.2805L71.1498 25.3ZM76.5498 15.7V13.7H75.3801L74.8067 14.7195L76.5498 15.7ZM94.8498 15.7L96.5095 16.816L98.6047 13.7H94.8498V15.7ZM80.2248 37.45L78.5651 36.334L77.7752 37.5088L78.6206 38.6444L80.2248 37.45ZM95.5248 58V60H99.5073L97.129 56.8056L95.5248 58ZM78.5263 56.802L71.4013 47.277L68.1983 49.673L75.3233 59.198L78.5263 56.802ZM68.0541 47.499L62.7291 57.024L66.2205 58.976L71.5455 49.451L68.0541 47.499ZM64.4748 56H46.1748V60H64.4748V56ZM47.8621 59.0738L62.0371 36.7987L58.6625 34.6512L44.4875 56.9262L47.8621 59.0738ZM61.9534 34.5298L47.0284 14.5048L43.8212 16.8952L58.7462 36.9202L61.9534 34.5298ZM45.4248 17.7H64.0248V13.7H45.4248V17.7ZM62.4188 16.892L69.5438 26.492L72.7558 24.108L65.6308 14.508L62.4188 16.892ZM72.893 26.2805L78.293 16.6805L74.8067 14.7195L69.4067 24.3195L72.893 26.2805ZM76.5498 17.7H94.8498V13.7H76.5498V17.7ZM93.1901 14.584L78.5651 36.334L81.8845 38.566L96.5095 16.816L93.1901 14.584ZM78.6206 38.6444L93.9206 59.1944L97.129 56.8056L81.829 36.2556L78.6206 38.6444ZM95.5248 56H76.9248V60H95.5248V56ZM119.672 21.475H117.672L121.433 22.4232L119.672 21.475ZM124.172 16.9L125.155 18.642L125.162 18.6379L125.169 18.6338L124.172 16.9ZM140.222 17.8L139.12 19.4689L139.131 19.4762L139.143 19.4834L140.222 17.8ZM146.447 25.3L144.627 26.1276L144.634 26.1443L144.642 26.1609L146.447 25.3ZM146.447 48.475L144.637 47.6247L144.632 47.6369L146.447 48.475ZM140.222 55.975L141.302 57.6584L141.314 57.6512L141.325 57.6439L140.222 55.975ZM124.172 56.875L123.156 58.5977L123.182 58.613L123.209 58.6274L124.172 56.875ZM119.672 52.225L121.433 51.2768L117.672 52.225H119.672ZM119.672 78.25V80.25H121.672V78.25H119.672ZM103.022 78.25H101.022V80.25H103.022V78.25ZM103.022 15.7V13.7H101.022V15.7H103.022ZM119.672 15.7H121.672V13.7H119.672V15.7ZM130.172 31.6L131.644 30.2459L131.644 30.2459L130.172 31.6ZM121.322 31.6L119.851 30.2459L119.851 30.2459L121.322 31.6ZM121.322 42.1L119.851 43.4541L119.851 43.4541L121.322 42.1ZM121.433 22.4232C122.302 20.8098 123.531 19.5584 125.155 18.642L123.19 15.158C120.914 16.4416 119.143 18.2402 117.912 20.5268L121.433 22.4232ZM125.169 18.6338C126.813 17.689 128.83 17.175 131.297 17.175V13.175C128.265 13.175 125.532 13.811 123.176 15.1662L125.169 18.6338ZM131.297 17.175C134.222 17.175 136.811 17.9436 139.12 19.4689L141.325 16.1311C138.334 14.1564 134.973 13.175 131.297 13.175V17.175ZM139.143 19.4834C141.422 20.9454 143.261 23.1239 144.627 26.1276L148.268 24.4724C146.634 20.8761 144.323 18.0546 141.302 16.1166L139.143 19.4834ZM144.642 26.1609C146.037 29.0863 146.772 32.6292 146.772 36.85H150.772C150.772 32.1708 149.958 28.0137 148.253 24.4391L144.642 26.1609ZM146.772 36.85C146.772 41.0696 146.038 44.6428 144.637 47.6247L148.258 49.3253C149.957 45.7072 150.772 41.5304 150.772 36.85H146.772ZM144.632 47.6369C143.267 50.593 141.422 52.7864 139.12 54.3061L141.325 57.6439C144.323 55.6636 146.628 52.857 148.263 49.3131L144.632 47.6369ZM139.143 54.2916C136.831 55.7747 134.234 56.525 131.297 56.525V60.525C134.961 60.525 138.314 59.5753 141.302 57.6584L139.143 54.2916ZM131.297 56.525C128.816 56.525 126.786 56.03 125.136 55.1226L123.209 58.6274C125.559 59.92 128.279 60.525 131.297 60.525V56.525ZM125.188 55.1523C123.545 54.1833 122.306 52.8981 121.433 51.2768L117.912 53.1732C119.139 55.4519 120.899 57.2667 123.156 58.5977L125.188 55.1523ZM117.672 52.225V78.25H121.672V52.225H117.672ZM119.672 76.25H103.022V80.25H119.672V76.25ZM105.022 78.25V15.7H101.022V78.25H105.022ZM103.022 17.7H119.672V13.7H103.022V17.7ZM117.672 15.7V21.475H121.672V15.7H117.672ZM133.897 36.85C133.897 34.2649 133.232 31.9716 131.644 30.2459L128.701 32.9541C129.413 33.7284 129.897 34.9351 129.897 36.85H133.897ZM131.644 30.2459C130.091 28.5574 128.069 27.725 125.747 27.725V31.725C127.026 31.725 127.954 32.1426 128.701 32.9541L131.644 30.2459ZM125.747 27.725C123.426 27.725 121.404 28.5574 119.851 30.2459L122.794 32.9541C123.541 32.1426 124.469 31.725 125.747 31.725V27.725ZM119.851 30.2459C118.263 31.9716 117.597 34.2649 117.597 36.85H121.597C121.597 34.9351 122.082 33.7284 122.794 32.9541L119.851 30.2459ZM117.597 36.85C117.597 39.4351 118.263 41.7284 119.851 43.4541L122.794 40.7459C122.082 39.9716 121.597 38.7649 121.597 36.85H117.597ZM119.851 43.4541C121.404 45.1426 123.426 45.975 125.747 45.975V41.975C124.469 41.975 123.541 41.5574 122.794 40.7459L119.851 43.4541ZM125.747 45.975C128.069 45.975 130.091 45.1426 131.644 43.4541L128.701 40.7459C127.954 41.5574 127.026 41.975 125.747 41.975V45.975ZM131.644 43.4541C133.232 41.7284 133.897 39.4351 133.897 36.85H129.897C129.897 38.7649 129.413 39.9716 128.701 40.7459L131.644 43.4541ZM174.399 2.5H176.399V0.499999H174.399V2.5ZM174.399 58V60H176.399V58H174.399ZM157.749 58H155.749V60H157.749V58ZM157.749 2.5V0.499999H155.749V2.5H157.749ZM172.399 2.5V58H176.399V2.5H172.399ZM174.399 56H157.749V60H174.399V56ZM159.749 58V2.5H155.749V58H159.749ZM157.749 4.5H174.399V0.499999H157.749V4.5ZM194.294 55.9L195.209 54.1217L194.294 55.9ZM186.269 48.4L184.536 49.3979L184.545 49.4135L184.554 49.429L186.269 48.4ZM186.269 25.375L184.547 24.3575L184.542 24.3656L186.269 25.375ZM194.294 17.8L195.209 19.5783L195.209 19.5783L194.294 17.8ZM217.244 17.8L216.329 19.5783L216.329 19.5783L217.244 17.8ZM225.194 25.375L223.461 26.3729L223.47 26.3885L223.479 26.404L225.194 25.375ZM225.194 48.4L223.472 47.3825L223.467 47.3906L225.194 48.4ZM217.244 55.9L216.329 54.1217L216.329 54.1217L217.244 55.9ZM209.669 42.325L211.174 43.642L211.187 43.6268L211.2 43.6114L209.669 42.325ZM209.669 31.45L208.138 32.7364L208.151 32.7518L208.164 32.767L209.669 31.45ZM201.869 31.45L203.374 32.767L203.387 32.7518L203.4 32.7364L201.869 31.45ZM201.794 42.325L200.232 43.5744L200.26 43.6088L200.289 43.642L201.794 42.325ZM205.769 56.525C201.801 56.525 198.296 55.7104 195.209 54.1217L193.379 57.6783C197.092 59.5896 201.237 60.525 205.769 60.525V56.525ZM195.209 54.1217C192.137 52.5406 189.741 50.2987 187.984 47.371L184.554 49.429C186.697 53.0013 189.651 55.7594 193.379 57.6783L195.209 54.1217ZM188.002 47.4021C186.303 44.4501 185.419 40.9549 185.419 36.85H181.419C181.419 41.5451 182.435 45.7499 184.536 49.3979L188.002 47.4021ZM185.419 36.85C185.419 32.7443 186.303 29.2798 187.996 26.3844L184.542 24.3656C182.435 27.9702 181.419 32.1557 181.419 36.85H185.419ZM187.991 26.3925C189.75 23.4162 192.145 21.1553 195.209 19.5783L193.379 16.0217C189.643 17.9447 186.688 20.7338 184.547 24.3575L187.991 26.3925ZM195.209 19.5783C198.296 17.9896 201.801 17.175 205.769 17.175V13.175C201.237 13.175 197.092 14.1104 193.379 16.0217L195.209 19.5783ZM205.769 17.175C209.737 17.175 213.242 17.9896 216.329 19.5783L218.159 16.0217C214.446 14.1104 210.301 13.175 205.769 13.175V17.175ZM216.329 19.5783C219.388 21.153 221.753 23.4078 223.461 26.3729L226.927 24.3771C224.834 20.7422 221.9 17.947 218.159 16.0217L216.329 19.5783ZM223.479 26.404C225.214 29.2961 226.119 32.7533 226.119 36.85H230.119C230.119 32.1467 229.074 27.9539 226.909 24.346L223.479 26.404ZM226.119 36.85C226.119 40.9459 225.214 44.4339 223.472 47.3825L226.916 49.4175C229.073 45.7661 230.119 41.5541 230.119 36.85H226.119ZM223.467 47.3906C221.762 50.307 219.396 52.5428 216.329 54.1217L218.159 57.6783C221.892 55.7572 224.826 52.993 226.921 49.4094L223.467 47.3906ZM216.329 54.1217C213.242 55.7104 209.737 56.525 205.769 56.525V60.525C210.301 60.525 214.446 59.5896 218.159 57.6783L216.329 54.1217ZM205.769 46.125C207.914 46.125 209.757 45.2618 211.174 43.642L208.164 41.008C207.481 41.7882 206.724 42.125 205.769 42.125V46.125ZM211.2 43.6114C212.667 41.865 213.244 39.5056 213.244 36.85H209.244C209.244 38.9944 208.771 40.285 208.138 41.0386L211.2 43.6114ZM213.244 36.85C213.244 34.2024 212.671 31.8432 211.174 30.133L208.164 32.767C208.767 33.4568 209.244 34.6976 209.244 36.85H213.244ZM211.2 30.1636C209.793 28.4888 207.945 27.575 205.769 27.575V31.575C206.693 31.575 207.444 31.9112 208.138 32.7364L211.2 30.1636ZM205.769 27.575C203.593 27.575 201.744 28.4888 200.338 30.1636L203.4 32.7364C204.093 31.9112 204.845 31.575 205.769 31.575V27.575ZM200.364 30.133C198.867 31.8432 198.294 34.2024 198.294 36.85H202.294C202.294 34.6976 202.771 33.4568 203.374 32.767L200.364 30.133ZM198.294 36.85C198.294 39.4869 198.837 41.8309 200.232 43.5744L203.356 41.0756C202.75 40.3191 202.294 39.0131 202.294 36.85H198.294ZM200.289 43.642C201.72 45.2778 203.595 46.125 205.769 46.125V42.125C204.743 42.125 203.968 41.7722 203.299 41.008L200.289 43.642ZM253.75 23.5H251.75V29.8906L255.393 24.6402L253.75 23.5ZM259.975 17.65L260.993 19.3711L261.006 19.3635L261.019 19.3557L259.975 17.65ZM267.625 15.4H269.625V13.4H267.625V15.4ZM267.625 33.175V35.175H269.625V33.175H267.625ZM255.925 34.825L254.742 33.2122L254.729 33.2218L254.716 33.2316L255.925 34.825ZM253.75 58V60H255.75V58H253.75ZM237.1 58H235.1V60H237.1V58ZM237.1 15.7V13.7H235.1V15.7H237.1ZM253.75 15.7H255.75V13.7H253.75V15.7ZM255.393 24.6402C256.937 22.415 258.803 20.6677 260.993 19.3711L258.956 15.9288C256.247 17.5323 253.962 19.685 252.106 22.3598L255.393 24.6402ZM261.019 19.3557C263.182 18.0314 265.374 17.4 267.625 17.4V13.4C264.575 13.4 261.667 14.2686 258.93 15.9443L261.019 19.3557ZM265.625 15.4V33.175H269.625V15.4H265.625ZM267.625 31.175H262.9V35.175H267.625V31.175ZM262.9 31.175C259.59 31.175 256.751 31.7392 254.742 33.2122L257.107 36.4378C258.099 35.7108 259.909 35.175 262.9 35.175V31.175ZM254.716 33.2316C252.545 34.8783 251.75 37.5942 251.75 40.675H255.75C255.75 38.1558 256.404 36.9717 257.133 36.4184L254.716 33.2316ZM251.75 40.675V58H255.75V40.675H251.75ZM253.75 56H237.1V60H253.75V56ZM239.1 58V15.7H235.1V58H239.1ZM237.1 17.7H253.75V13.7H237.1V17.7ZM251.75 15.7V23.5H255.75V15.7H251.75ZM316.584 39.775V41.775H318.319L318.564 40.0578L316.584 39.775ZM289.809 39.775V37.775H287.668L287.814 39.9117L289.809 39.775ZM298.284 42.775V40.775H297.031L296.485 41.9025L298.284 42.775ZM315.909 42.775L317.871 43.1672L318.349 40.775H315.909V42.775ZM312.084 50.875L310.532 49.6138L310.529 49.6176L312.084 50.875ZM304.809 56.5L305.653 58.3132L305.66 58.31L305.667 58.3069L304.809 56.5ZM283.959 55.9L283.011 57.661L283.022 57.6669L283.959 55.9ZM276.309 48.4L274.554 49.3577L274.562 49.3736L274.571 49.3894L276.309 48.4ZM276.309 25.375L274.565 24.397L274.56 24.406L276.309 25.375ZM283.959 17.8L283.022 16.033L283.011 16.0391L283.959 17.8ZM306.384 17.8L305.436 19.5609L305.452 19.5696L305.468 19.5779L306.384 17.8ZM314.034 25.15L312.291 26.1305L312.297 26.1408L312.303 26.151L314.034 25.15ZM299.934 32.5V34.5H301.934V32.5H299.934ZM298.584 29.35L297.304 30.8864L297.33 30.908L297.356 30.9287L298.584 29.35ZM290.034 32.5L288.064 32.1544L287.653 34.5H290.034V32.5ZM314.809 36.475C314.809 37.5382 314.74 38.5433 314.604 39.4922L318.564 40.0578C318.729 38.9067 318.809 37.7118 318.809 36.475H314.809ZM316.584 37.775H289.809V41.775H316.584V37.775ZM287.814 39.9117C287.953 41.9452 288.462 43.7953 289.606 45.1637C290.817 46.6134 292.508 47.25 294.384 47.25V43.25C293.46 43.25 292.989 42.9741 292.675 42.5988C292.294 42.1422 291.915 41.2548 291.805 39.6383L287.814 39.9117ZM294.384 47.25C295.599 47.25 296.76 46.9681 297.781 46.3199C298.8 45.6731 299.553 44.7425 300.084 43.6475L296.485 41.9025C296.216 42.4575 295.919 42.7644 295.638 42.9426C295.359 43.1194 294.97 43.25 294.384 43.25V47.25ZM298.284 44.775H315.909V40.775H298.284V44.775ZM313.948 42.3828C313.413 45.0606 312.28 47.4631 310.532 49.6138L313.637 52.1362C315.789 49.4869 317.206 46.4894 317.871 43.1672L313.948 42.3828ZM310.529 49.6176C308.832 51.7161 306.653 53.4111 303.952 54.6931L305.667 58.3069C308.865 56.7889 311.536 54.7339 313.64 52.1324L310.529 49.6176ZM303.965 54.6868C301.354 55.9026 298.446 56.525 295.209 56.525V60.525C298.973 60.525 302.465 59.7974 305.653 58.3132L303.965 54.6868ZM295.209 56.525C291.295 56.525 287.873 55.7118 284.896 54.1331L283.022 57.6669C286.645 59.5882 290.724 60.525 295.209 60.525V56.525ZM284.908 54.1391C281.993 52.5695 279.714 50.3389 278.048 47.4106L274.571 49.3894C276.604 52.9611 279.426 55.7305 283.011 57.6609L284.908 54.1391ZM278.065 47.4423C276.451 44.4826 275.609 40.9726 275.609 36.85H271.609C271.609 41.5274 272.568 45.7174 274.554 49.3577L278.065 47.4423ZM275.609 36.85C275.609 32.7264 276.451 29.2471 278.059 26.344L274.56 24.406C272.568 28.0029 271.609 32.1736 271.609 36.85H275.609ZM278.054 26.353C279.723 23.3756 282.001 21.1262 284.908 19.5609L283.011 16.0391C279.418 17.9738 276.596 20.7744 274.565 24.397L278.054 26.353ZM284.896 19.5669C287.873 17.9882 291.295 17.175 295.209 17.175V13.175C290.724 13.175 286.645 14.1118 283.022 16.0331L284.896 19.5669ZM295.209 17.175C299.125 17.175 302.516 17.9884 305.436 19.5609L307.333 16.0391C303.753 14.1116 299.694 13.175 295.209 13.175V17.175ZM305.468 19.5779C308.425 21.1009 310.685 23.2755 312.291 26.1305L315.778 24.1695C313.783 20.6245 310.944 17.8991 307.3 16.022L305.468 19.5779ZM312.303 26.151C313.948 28.9968 314.809 32.4139 314.809 36.475H318.809C318.809 31.8361 317.821 27.7032 315.766 24.149L312.303 26.151ZM301.934 32.5C301.934 30.6387 301.311 28.9366 299.812 27.7713L297.356 30.9287C297.658 31.1634 297.934 31.5613 297.934 32.5H301.934ZM299.865 27.8136C298.551 26.7192 296.952 26.225 295.209 26.225V30.225C296.167 30.225 296.817 30.4808 297.304 30.8864L299.865 27.8136ZM295.209 26.225C293.419 26.225 291.751 26.6603 290.429 27.7518C289.103 28.8474 288.372 30.4008 288.064 32.1544L292.004 32.8456C292.197 31.7492 292.578 31.1651 292.977 30.8357C293.381 30.5022 294.05 30.225 295.209 30.225V26.225ZM290.034 34.5H299.934V30.5H290.034V34.5ZM384.019 4.9H386.019V2.9H384.019V4.9ZM384.019 18.1V20.1H386.019V18.1H384.019ZM369.919 18.1V16.1H367.919V18.1H369.919ZM369.919 58V60H371.919V58H369.919ZM353.269 58H351.269V60H353.269V58ZM353.269 18.1H355.269V16.1H353.269V18.1ZM339.319 18.1H337.319V20.1H339.319V18.1ZM339.319 4.9V2.9H337.319V4.9H339.319ZM382.019 4.9V18.1H386.019V4.9H382.019ZM384.019 16.1H369.919V20.1H384.019V16.1ZM367.919 18.1V58H371.919V18.1H367.919ZM369.919 56H353.269V60H369.919V56ZM355.269 58V18.1H351.269V58H355.269ZM353.269 16.1H339.319V20.1H353.269V16.1ZM341.319 18.1V4.9H337.319V18.1H341.319ZM339.319 6.9H384.019V2.9H339.319V6.9ZM433.235 20.275L431.697 21.553L431.703 21.56L431.708 21.5669L433.235 20.275ZM437.36 58V60H439.36V58H437.36ZM420.785 58H418.785V60H420.785V58ZM419.135 30.85L417.63 32.167L417.659 32.2004L417.69 32.2324L419.135 30.85ZM410.51 30.85L411.987 32.1985L412.001 32.1829L412.015 32.167L410.51 30.85ZM408.935 58V60H410.935V58H408.935ZM392.285 58H390.285V60H392.285V58ZM392.285 2.5V0.499999H390.285V2.5H392.285ZM408.935 2.5H410.935V0.499999H408.935V2.5ZM408.935 22.15H406.935V28.8967L410.612 23.24L408.935 22.15ZM414.11 17.275L413.122 15.5361L413.114 15.541L413.105 15.546L414.11 17.275ZM421.91 17.4C426.264 17.4 429.435 18.8311 431.697 21.553L434.774 18.997C431.635 15.2189 427.256 13.4 421.91 13.4V17.4ZM431.708 21.5669C434.07 24.3581 435.36 28.2521 435.36 33.475H439.36C439.36 27.5979 437.9 22.6919 434.762 18.9831L431.708 21.5669ZM435.36 33.475V58H439.36V33.475H435.36ZM437.36 56H420.785V60H437.36V56ZM422.785 58V35.575H418.785V58H422.785ZM422.785 35.575C422.785 33.1984 422.122 31.0791 420.58 29.4676L417.69 32.2324C418.348 32.9209 418.785 33.9516 418.785 35.575H422.785ZM420.64 29.533C419.159 27.8403 417.154 27.05 414.86 27.05V31.05C416.166 31.05 417.011 31.4597 417.63 32.167L420.64 29.533ZM414.86 27.05C412.536 27.05 410.497 27.8276 409.005 29.533L412.015 32.167C412.623 31.4724 413.485 31.05 414.86 31.05V27.05ZM409.033 29.5015C407.56 31.1155 406.935 33.2225 406.935 35.575H410.935C410.935 33.9275 411.361 32.8845 411.987 32.1985L409.033 29.5015ZM406.935 35.575V58H410.935V35.575H406.935ZM408.935 56H392.285V60H408.935V56ZM394.285 58V2.5H390.285V58H394.285ZM392.285 4.5H408.935V0.499999H392.285V4.5ZM406.935 2.5V22.15H410.935V2.5H406.935ZM410.612 23.24C411.734 21.514 413.224 20.1035 415.115 19.004L413.105 15.546C410.696 16.9465 408.736 18.786 407.258 21.06L410.612 23.24ZM415.098 19.0139C416.945 17.9643 419.192 17.4 421.91 17.4V13.4C418.628 13.4 415.675 14.0857 413.122 15.5361L415.098 19.0139ZM489.055 39.775V41.775H490.79L491.035 40.0578L489.055 39.775ZM462.28 39.775V37.775H460.138L460.285 39.9117L462.28 39.775ZM470.755 42.775V40.775H469.502L468.955 41.9025L470.755 42.775ZM488.38 42.775L490.341 43.1672L490.82 40.775H488.38V42.775ZM484.555 50.875L483.003 49.6138L483 49.6176L484.555 50.875ZM477.28 56.5L478.124 58.3132L478.131 58.31L478.138 58.3069L477.28 56.5ZM456.43 55.9L455.482 57.661L455.493 57.6669L456.43 55.9ZM448.78 48.4L447.024 49.3577L447.033 49.3736L447.042 49.3894L448.78 48.4ZM448.78 25.375L447.035 24.397L447.03 24.406L448.78 25.375ZM456.43 17.8L455.493 16.033L455.482 16.0391L456.43 17.8ZM478.855 17.8L477.907 19.5609L477.923 19.5696L477.939 19.5779L478.855 17.8ZM486.505 25.15L484.762 26.1305L484.768 26.1408L484.774 26.151L486.505 25.15ZM472.405 32.5V34.5H474.405V32.5H472.405ZM471.055 29.35L469.775 30.8864L469.801 30.908L469.827 30.9287L471.055 29.35ZM462.505 32.5L460.535 32.1544L460.124 34.5H462.505V32.5ZM487.28 36.475C487.28 37.5382 487.211 38.5433 487.075 39.4922L491.035 40.0578C491.199 38.9067 491.28 37.7118 491.28 36.475H487.28ZM489.055 37.775H462.28V41.775H489.055V37.775ZM460.285 39.9117C460.424 41.9452 460.933 43.7953 462.077 45.1637C463.288 46.6134 464.979 47.25 466.855 47.25V43.25C465.931 43.25 465.46 42.9741 465.146 42.5988C464.764 42.1422 464.386 41.2548 464.275 39.6383L460.285 39.9117ZM466.855 47.25C468.069 47.25 469.23 46.9681 470.252 46.3199C471.271 45.6731 472.024 44.7425 472.555 43.6475L468.955 41.9025C468.686 42.4575 468.389 42.7644 468.108 42.9426C467.83 43.1194 467.441 43.25 466.855 43.25V47.25ZM470.755 44.775H488.38V40.775H470.755V44.775ZM486.419 42.3828C485.883 45.0606 484.75 47.4631 483.003 49.6138L486.107 52.1362C488.26 49.4869 489.677 46.4894 490.341 43.1672L486.419 42.3828ZM483 49.6176C481.303 51.7161 479.124 53.4111 476.423 54.6931L478.138 58.3069C481.336 56.7889 484.007 54.7339 486.11 52.1324L483 49.6176ZM476.436 54.6868C473.824 55.9026 470.916 56.525 467.68 56.525V60.525C471.444 60.525 474.936 59.7974 478.124 58.3132L476.436 54.6868ZM467.68 56.525C463.766 56.525 460.344 55.7118 457.367 54.1331L455.493 57.6669C459.116 59.5882 463.195 60.525 467.68 60.525V56.525ZM457.378 54.1391C454.463 52.5695 452.185 50.3389 450.518 47.4106L447.042 49.3894C449.075 52.9611 451.897 55.7305 455.482 57.6609L457.378 54.1391ZM450.536 47.4423C448.921 44.4826 448.08 40.9726 448.08 36.85H444.08C444.08 41.5274 445.039 45.7174 447.024 49.3577L450.536 47.4423ZM448.08 36.85C448.08 32.7264 448.922 29.2471 450.53 26.344L447.03 24.406C445.038 28.0029 444.08 32.1736 444.08 36.85H448.08ZM450.525 26.353C452.194 23.3756 454.471 21.1262 457.378 19.5609L455.482 16.0391C451.889 17.9738 449.066 20.7744 447.036 24.397L450.525 26.353ZM457.367 19.5669C460.344 17.9882 463.766 17.175 467.68 17.175V13.175C463.195 13.175 459.116 14.1118 455.493 16.0331L457.367 19.5669ZM467.68 17.175C471.595 17.175 474.986 17.9884 477.907 19.5609L479.803 16.0391C476.224 14.1116 472.165 13.175 467.68 13.175V17.175ZM477.939 19.5779C480.895 21.1009 483.156 23.2755 484.762 26.1305L488.248 24.1695C486.254 20.6245 483.415 17.8991 479.771 16.022L477.939 19.5779ZM484.774 26.151C486.419 28.9968 487.28 32.4139 487.28 36.475H491.28C491.28 31.8361 490.291 27.7032 488.237 24.149L484.774 26.151ZM474.405 32.5C474.405 30.6387 473.781 28.9366 472.283 27.7713L469.827 30.9287C470.129 31.1634 470.405 31.5613 470.405 32.5H474.405ZM472.335 27.8136C471.022 26.7192 469.423 26.225 467.68 26.225V30.225C468.637 30.225 469.288 30.4808 469.775 30.8864L472.335 27.8136ZM467.68 26.225C465.89 26.225 464.221 26.6603 462.9 27.7518C461.574 28.8474 460.843 30.4008 460.535 32.1544L464.475 32.8456C464.667 31.7492 465.049 31.1651 465.448 30.8357C465.851 30.5022 466.521 30.225 467.68 30.225V26.225ZM462.505 34.5H472.405V30.5H462.505V34.5ZM36.3 108.05L34.5995 109.103L35.1859 110.05H36.3V108.05ZM33.525 105.65L32.6306 107.439L32.6609 107.454L32.6917 107.468L33.525 105.65ZM21.75 107.9L23.2711 109.199L23.2788 109.189L23.2864 109.18L21.75 107.9ZM22.05 125.675L20.6009 127.053L20.6009 127.053L22.05 125.675ZM40.35 124.1L41.9438 125.308L44.3758 122.1H40.35V124.1ZM27.075 124.1H25.075V126.1H27.075V124.1ZM27.075 112.325V110.325H25.075V112.325H27.075ZM54.15 112.325H56.15V110.325H54.15V112.325ZM54.15 128.975L55.8784 129.981L56.15 129.515V128.975H54.15ZM44.625 139.175L45.7624 140.82L45.7692 140.815L45.776 140.811L44.625 139.175ZM14.85 140L13.8624 141.739L13.875 141.746L13.8878 141.753L14.85 140ZM5.475 130.4L3.70376 131.329L3.70818 131.337L3.71268 131.346L5.475 130.4ZM5.475 102.35L3.71268 101.404L3.70818 101.413L3.70376 101.421L5.475 102.35ZM14.85 92.825L15.8213 94.5733L15.8295 94.5688L15.8377 94.5641L14.85 92.825ZM46.05 94.4L44.8297 95.9846L44.8385 95.9913L46.05 94.4ZM53.85 108.05V110.05H56.1475L55.8309 107.774L53.85 108.05ZM38.0005 106.997C37.1286 105.589 35.8906 104.534 34.3583 103.832L32.6917 107.468C33.5594 107.866 34.1714 108.411 34.5995 109.103L38.0005 106.997ZM34.4194 103.861C32.8776 103.09 31.1048 102.75 29.175 102.75V106.75C30.6452 106.75 31.7724 107.01 32.6306 107.439L34.4194 103.861ZM29.175 102.75C25.494 102.75 22.4102 103.984 20.2136 106.62L23.2864 109.18C24.5898 107.616 26.456 106.75 29.175 106.75V102.75ZM20.2289 106.601C18.0792 109.12 17.125 112.46 17.125 116.375H21.125C21.125 113.09 21.9208 110.78 23.2711 109.199L20.2289 106.601ZM17.125 116.375C17.125 120.801 18.1621 124.49 20.6009 127.053L23.4991 124.297C22.0379 122.76 21.125 120.249 21.125 116.375H17.125ZM20.6009 127.053C23.0667 129.646 26.6919 130.75 31.05 130.75V126.75C27.3081 126.75 24.9333 125.804 23.4991 124.297L20.6009 127.053ZM31.05 130.75C35.5335 130.75 39.2203 128.901 41.9438 125.308L38.7562 122.892C36.7797 125.499 34.2665 126.75 31.05 126.75V130.75ZM40.35 122.1H27.075V126.1H40.35V122.1ZM29.075 124.1V112.325H25.075V124.1H29.075ZM27.075 114.325H54.15V110.325H27.075V114.325ZM52.15 112.325V128.975H56.15V112.325H52.15ZM52.4217 127.969C50.2783 131.65 47.3084 134.841 43.474 137.539L45.776 140.811C50.0416 137.809 53.4217 134.2 55.8784 129.981L52.4217 127.969ZM43.4876 137.53C39.8494 140.045 35.1493 141.375 29.25 141.375V145.375C35.7507 145.375 41.3006 143.905 45.7624 140.82L43.4876 137.53ZM29.25 141.375C24.027 141.375 19.5693 140.308 15.8122 138.247L13.8878 141.753C18.3307 144.192 23.473 145.375 29.25 145.375V141.375ZM15.8377 138.261C12.1152 136.147 9.25887 133.222 7.23732 129.454L3.71268 131.346C6.09113 135.778 9.48484 139.253 13.8624 141.739L15.8377 138.261ZM7.24624 129.471C5.26561 125.694 4.25 121.345 4.25 116.375H0.25C0.25 121.905 1.38439 126.906 3.70376 131.329L7.24624 129.471ZM4.25 116.375C4.25 111.405 5.26561 107.056 7.24624 103.279L3.70376 101.421C1.38439 105.844 0.25 110.845 0.25 116.375H4.25ZM7.23732 103.296C9.25686 99.5319 12.108 96.6363 15.8213 94.5733L13.8787 91.0767C9.49202 93.5137 6.09314 96.9681 3.71268 101.404L7.23732 103.296ZM15.8377 94.5641C19.5389 92.4622 23.9369 91.375 29.1 91.375V87.375C23.3631 87.375 18.2611 88.5878 13.8624 91.0859L15.8377 94.5641ZM29.1 91.375C35.7275 91.375 40.9133 92.9685 44.8297 95.9846L47.2703 92.8154C42.4867 89.1315 36.3725 87.375 29.1 87.375V91.375ZM44.8385 95.9913C48.7957 99.0042 51.1378 103.07 51.8691 108.326L55.8309 107.774C54.9622 101.53 52.1043 96.4958 47.2615 92.8087L44.8385 95.9913ZM53.85 106.05H36.3V110.05H53.85V106.05ZM80.5465 108.5H78.5465V114.891L82.1897 109.64L80.5465 108.5ZM86.7715 102.65L87.7901 104.371L87.803 104.364L87.8158 104.356L86.7715 102.65ZM94.4215 100.4H96.4215V98.4H94.4215V100.4ZM94.4215 118.175V120.175H96.4215V118.175H94.4215ZM82.7215 119.825L81.5388 118.212L81.5257 118.222L81.5127 118.232L82.7215 119.825ZM80.5465 143V145H82.5465V143H80.5465ZM63.8965 143H61.8965V145H63.8965V143ZM63.8965 100.7V98.7H61.8965V100.7H63.8965ZM80.5465 100.7H82.5465V98.7H80.5465V100.7ZM82.1897 109.64C83.7336 107.415 85.5994 105.668 87.7901 104.371L85.7528 100.929C83.0436 102.532 80.7593 104.685 78.9033 107.36L82.1897 109.64ZM87.8158 104.356C89.9788 103.031 92.1709 102.4 94.4215 102.4V98.4C91.3721 98.4 88.4641 99.2686 85.7272 100.944L87.8158 104.356ZM92.4215 100.4V118.175H96.4215V100.4H92.4215ZM94.4215 116.175H89.6965V120.175H94.4215V116.175ZM89.6965 116.175C86.387 116.175 83.5474 116.739 81.5388 118.212L83.9042 121.438C84.8956 120.711 86.7059 120.175 89.6965 120.175V116.175ZM81.5127 118.232C79.3421 119.878 78.5465 122.594 78.5465 125.675H82.5465C82.5465 123.156 83.2009 121.972 83.9303 121.418L81.5127 118.232ZM78.5465 125.675V143H82.5465V125.675H78.5465ZM80.5465 141H63.8965V145H80.5465V141ZM65.8965 143V100.7H61.8965V143H65.8965ZM63.8965 102.7H80.5465V98.7H63.8965V102.7ZM78.5465 100.7V108.5H82.5465V100.7H78.5465ZM143.381 124.775V126.775H145.116L145.361 125.058L143.381 124.775ZM116.606 124.775V122.775H114.465L114.611 124.912L116.606 124.775ZM125.081 127.775V125.775H123.828L123.282 126.902L125.081 127.775ZM142.706 127.775L144.667 128.167L145.146 125.775H142.706V127.775ZM138.881 135.875L137.329 134.614L137.326 134.618L138.881 135.875ZM131.606 141.5L132.45 143.313L132.457 143.31L132.464 143.307L131.606 141.5ZM110.756 140.9L109.808 142.661L109.819 142.667L110.756 140.9ZM103.106 133.4L101.35 134.358L101.359 134.374L101.368 134.389L103.106 133.4ZM103.106 110.375L101.362 109.397L101.357 109.406L103.106 110.375ZM110.756 102.8L109.819 101.033L109.808 101.039L110.756 102.8ZM133.181 102.8L132.233 104.561L132.249 104.57L132.265 104.578L133.181 102.8ZM140.831 110.15L139.088 111.131L139.094 111.141L139.1 111.151L140.831 110.15ZM126.731 117.5V119.5H128.731V117.5H126.731ZM125.381 114.35L124.101 115.886L124.127 115.908L124.153 115.929L125.381 114.35ZM116.831 117.5L114.861 117.154L114.45 119.5H116.831V117.5ZM141.606 121.475C141.606 122.538 141.537 123.543 141.401 124.492L145.361 125.058C145.526 123.907 145.606 122.712 145.606 121.475H141.606ZM143.381 122.775H116.606V126.775H143.381V122.775ZM114.611 124.912C114.75 126.945 115.259 128.795 116.403 130.164C117.614 131.613 119.305 132.25 121.181 132.25V128.25C120.257 128.25 119.786 127.974 119.472 127.599C119.091 127.142 118.712 126.255 118.602 124.638L114.611 124.912ZM121.181 132.25C122.395 132.25 123.556 131.968 124.578 131.32C125.597 130.673 126.35 129.742 126.881 128.648L123.282 126.902C123.012 127.458 122.715 127.764 122.435 127.943C122.156 128.119 121.767 128.25 121.181 128.25V132.25ZM125.081 129.775H142.706V125.775H125.081V129.775ZM140.745 127.383C140.21 130.061 139.076 132.463 137.329 134.614L140.433 137.136C142.586 134.487 144.003 131.489 144.667 128.167L140.745 127.383ZM137.326 134.618C135.629 136.716 133.45 138.411 130.749 139.693L132.464 143.307C135.662 141.789 138.333 139.734 140.437 137.132L137.326 134.618ZM130.762 139.687C128.151 140.903 125.242 141.525 122.006 141.525V145.525C125.77 145.525 129.262 144.797 132.45 143.313L130.762 139.687ZM122.006 141.525C118.092 141.525 114.67 140.712 111.693 139.133L109.819 142.667C113.442 144.588 117.521 145.525 122.006 145.525V141.525ZM111.704 139.139C108.79 137.569 106.511 135.339 104.844 132.411L101.368 134.389C103.401 137.961 106.223 140.731 109.808 142.661L111.704 139.139ZM104.862 132.442C103.248 129.483 102.406 125.973 102.406 121.85H98.4063C98.4063 126.527 99.3649 130.717 101.35 134.358L104.862 132.442ZM102.406 121.85C102.406 117.726 103.248 114.247 104.856 111.344L101.357 109.406C99.3646 113.003 98.4063 117.174 98.4063 121.85H102.406ZM104.851 111.353C106.52 108.376 108.798 106.126 111.704 104.561L109.808 101.039C106.215 102.974 103.393 105.774 101.362 109.397L104.851 111.353ZM111.693 104.567C114.67 102.988 118.092 102.175 122.006 102.175V98.175C117.521 98.175 113.442 99.1118 109.819 101.033L111.693 104.567ZM122.006 102.175C125.921 102.175 129.313 102.988 132.233 104.561L134.129 101.039C130.55 99.1116 126.491 98.175 122.006 98.175V102.175ZM132.265 104.578C135.222 106.101 137.482 108.276 139.088 111.131L142.574 109.169C140.58 105.624 137.741 102.899 134.097 101.022L132.265 104.578ZM139.1 111.151C140.745 113.997 141.606 117.414 141.606 121.475H145.606C145.606 116.836 144.618 112.703 142.563 109.149L139.1 111.151ZM128.731 117.5C128.731 115.639 128.107 113.937 126.609 112.771L124.153 115.929C124.455 116.163 124.731 116.561 124.731 117.5H128.731ZM126.662 112.814C125.348 111.719 123.749 111.225 122.006 111.225V115.225C122.964 115.225 123.614 115.481 124.101 115.886L126.662 112.814ZM122.006 111.225C120.216 111.225 118.548 111.66 117.226 112.752C115.9 113.847 115.169 115.401 114.861 117.154L118.801 117.846C118.994 116.749 119.375 116.165 119.774 115.836C120.177 115.502 120.847 115.225 122.006 115.225V111.225ZM116.831 119.5H126.731V115.5H116.831V119.5ZM152.622 110.3L150.812 109.45L150.806 109.462L152.622 110.3ZM158.922 102.8L160.002 104.483L160.013 104.476L160.024 104.469L158.922 102.8ZM174.972 101.9L173.975 103.634L173.992 103.643L174.008 103.652L174.972 101.9ZM179.547 106.475L177.786 107.423L181.547 106.475H179.547ZM179.547 100.7V98.7H177.547V100.7H179.547ZM196.122 100.7H198.122V98.7H196.122V100.7ZM196.122 143V145H198.122V143H196.122ZM179.547 143H177.547V145H179.547V143ZM179.547 137.225H181.547L177.786 136.277L179.547 137.225ZM174.972 141.875L175.936 143.627L175.953 143.618L175.969 143.609L174.972 141.875ZM158.922 140.975L157.82 142.644L157.831 142.651L157.842 142.658L158.922 140.975ZM152.622 133.475L150.801 134.303L150.809 134.319L150.817 134.336L152.622 133.475ZM177.822 116.6L179.294 115.246L179.294 115.246L177.822 116.6ZM168.972 116.6L167.5 115.246L167.5 115.246L168.972 116.6ZM152.372 121.85C152.372 117.621 153.085 114.07 154.438 111.138L150.806 109.462C149.159 113.03 148.372 117.179 148.372 121.85H152.372ZM154.432 111.15C155.848 108.136 157.717 105.95 160.002 104.483L157.842 101.117C154.828 103.05 152.496 105.864 150.812 109.45L154.432 111.15ZM160.024 104.469C162.334 102.944 164.923 102.175 167.847 102.175V98.175C164.171 98.175 160.81 99.1564 157.82 101.131L160.024 104.469ZM167.847 102.175C170.315 102.175 172.332 102.689 173.975 103.634L175.969 100.166C173.612 98.811 170.88 98.175 167.847 98.175V102.175ZM174.008 103.652C175.682 104.573 176.925 105.823 177.786 107.423L181.308 105.527C180.07 103.227 178.263 101.427 175.936 100.148L174.008 103.652ZM181.547 106.475V100.7H177.547V106.475H181.547ZM179.547 102.7H196.122V98.7H179.547V102.7ZM194.122 100.7V143H198.122V100.7H194.122ZM196.122 141H179.547V145H196.122V141ZM181.547 143V137.225H177.547V143H181.547ZM177.786 136.277C176.92 137.885 175.666 139.169 173.975 140.141L175.969 143.609C178.278 142.281 180.074 140.465 181.308 138.173L177.786 136.277ZM174.008 140.123C172.358 141.03 170.329 141.525 167.847 141.525V145.525C170.865 145.525 173.586 144.92 175.936 143.627L174.008 140.123ZM167.847 141.525C164.911 141.525 162.314 140.775 160.002 139.292L157.842 142.658C160.83 144.575 164.184 145.525 167.847 145.525V141.525ZM160.024 139.306C157.717 137.782 155.842 135.581 154.427 132.614L150.817 134.336C152.502 137.869 154.827 140.668 157.82 142.644L160.024 139.306ZM154.443 132.647C153.085 129.659 152.372 126.078 152.372 121.85H148.372C148.372 126.522 149.159 130.691 150.801 134.303L154.443 132.647ZM181.547 121.85C181.547 119.265 180.882 116.972 179.294 115.246L176.35 117.954C177.063 118.728 177.547 119.935 177.547 121.85H181.547ZM179.294 115.246C177.74 113.557 175.719 112.725 173.397 112.725V116.725C174.675 116.725 175.604 117.143 176.35 117.954L179.294 115.246ZM173.397 112.725C171.075 112.725 169.054 113.557 167.5 115.246L170.444 117.954C171.19 117.143 172.119 116.725 173.397 116.725V112.725ZM167.5 115.246C165.913 116.972 165.247 119.265 165.247 121.85H169.247C169.247 119.935 169.732 118.728 170.444 117.954L167.5 115.246ZM165.247 121.85C165.247 124.435 165.913 126.728 167.5 128.454L170.444 125.746C169.732 124.972 169.247 123.765 169.247 121.85H165.247ZM167.5 128.454C169.054 130.143 171.075 130.975 173.397 130.975V126.975C172.119 126.975 171.19 126.557 170.444 125.746L167.5 128.454ZM173.397 130.975C175.719 130.975 177.74 130.143 179.294 128.454L176.35 125.746C175.604 126.557 174.675 126.975 173.397 126.975V130.975ZM179.294 128.454C180.882 126.728 181.547 124.435 181.547 121.85H177.547C177.547 123.765 177.063 124.972 176.35 125.746L179.294 128.454ZM233.674 128.825H235.674V126.825H233.674V128.825ZM233.674 143V145H235.674V143H233.674ZM209.974 114.575H211.974V112.575H209.974V114.575ZM204.724 114.575H202.724V116.575H204.724V114.575ZM204.724 100.7V98.7H202.724V100.7H204.724ZM209.974 100.7V102.7H211.974V100.7H209.974ZM209.974 90.5V88.5H207.974V90.5H209.974ZM226.624 90.5H228.624V88.5H226.624V90.5ZM226.624 100.7H224.624V102.7H226.624V100.7ZM233.524 100.7H235.524V98.7H233.524V100.7ZM233.524 114.575V116.575H235.524V114.575H233.524ZM226.624 114.575V112.575H224.624V114.575H226.624ZM227.299 128.15L225.884 129.564L225.922 129.601L225.961 129.637L227.299 128.15ZM231.674 128.825V143H235.674V128.825H231.674ZM233.674 141H227.374V145H233.674V141ZM227.374 141C221.88 141 218.127 139.634 215.735 137.251C213.344 134.871 211.974 131.14 211.974 125.675H207.974C207.974 131.76 209.503 136.691 212.912 140.086C216.32 143.479 221.268 145 227.374 145V141ZM211.974 125.675V114.575H207.974V125.675H211.974ZM209.974 112.575H204.724V116.575H209.974V112.575ZM206.724 114.575V100.7H202.724V114.575H206.724ZM204.724 102.7H209.974V98.7H204.724V102.7ZM211.974 100.7V90.5H207.974V100.7H211.974ZM209.974 92.5H226.624V88.5H209.974V92.5ZM224.624 90.5V100.7H228.624V90.5H224.624ZM226.624 102.7H233.524V98.7H226.624V102.7ZM231.524 100.7V114.575H235.524V100.7H231.524ZM233.524 112.575H226.624V116.575H233.524V112.575ZM224.624 114.575V125.975H228.624V114.575H224.624ZM224.624 125.975C224.624 127.212 224.893 128.573 225.884 129.564L228.713 126.736C228.758 126.781 228.737 126.788 228.703 126.676C228.665 126.555 228.624 126.334 228.624 125.975H224.624ZM225.961 129.637C227 130.572 228.399 130.825 229.699 130.825V126.825C229.276 126.825 228.993 126.781 228.815 126.731C228.643 126.682 228.611 126.64 228.637 126.663L225.961 129.637ZM229.699 130.825H233.674V126.825H229.699V130.825ZM301.359 117.275L303.093 118.271L303.097 118.264L303.101 118.257L301.359 117.275ZM294.459 123.725L293.53 121.954L293.518 121.96L294.459 123.725ZM276.909 126.125V124.125H274.909V126.125H276.909ZM276.909 143V145H278.909V143H276.909ZM260.259 143H258.259V145H260.259V143ZM260.259 89.9V87.9H258.259V89.9H260.259ZM298.434 94.85L297.051 96.2953L297.057 96.3002L297.062 96.3052L298.434 94.85ZM276.909 103.25V101.25H274.909V103.25H276.909ZM276.909 113H274.909V115H276.909V113ZM301.684 108.125C301.684 111.153 300.987 113.861 299.616 116.293L303.101 118.257C304.83 115.189 305.684 111.797 305.684 108.125H301.684ZM299.624 116.279C298.283 118.615 296.28 120.511 293.53 121.954L295.388 125.496C298.738 123.739 301.334 121.335 303.093 118.271L299.624 116.279ZM293.518 121.96C290.874 123.37 287.565 124.125 283.509 124.125V128.125C288.052 128.125 292.044 127.28 295.4 125.49L293.518 121.96ZM283.509 124.125H276.909V128.125H283.509V124.125ZM274.909 126.125V143H278.909V126.125H274.909ZM276.909 141H260.259V145H276.909V141ZM262.259 143V89.9H258.259V143H262.259ZM260.259 91.9H283.509V87.9H260.259V91.9ZM283.509 91.9C289.683 91.9 294.091 93.4638 297.051 96.2953L299.816 93.4047C295.876 89.6362 290.334 87.9 283.509 87.9V91.9ZM297.062 96.3052C300.098 99.1681 301.684 103.033 301.684 108.125H305.684C305.684 102.117 303.769 97.1319 299.806 93.3948L297.062 96.3052ZM281.634 115C283.638 115 285.514 114.53 286.886 113.237C288.282 111.923 288.809 110.09 288.809 108.125H284.809C284.809 109.41 284.473 110.015 284.144 110.325C283.791 110.657 283.079 111 281.634 111V115ZM288.809 108.125C288.809 106.16 288.282 104.327 286.886 103.013C285.514 101.72 283.638 101.25 281.634 101.25V105.25C283.079 105.25 283.791 105.593 284.144 105.925C284.473 106.235 284.809 106.84 284.809 108.125H288.809ZM281.634 101.25H276.909V105.25H281.634V101.25ZM274.909 103.25V113H278.909V103.25H274.909ZM276.909 115H281.634V111H276.909V115ZM329.365 87.5H331.365V85.5H329.365V87.5ZM329.365 143V145H331.365V143H329.365ZM312.715 143H310.715V145H312.715V143ZM312.715 87.5V85.5H310.715V87.5H312.715ZM327.365 87.5V143H331.365V87.5H327.365ZM329.365 141H312.715V145H329.365V141ZM314.715 143V87.5H310.715V143H314.715ZM312.715 89.5H329.365V85.5H312.715V89.5ZM340.635 110.3L338.824 109.45L338.819 109.462L340.635 110.3ZM346.935 102.8L348.015 104.483L348.026 104.476L348.037 104.469L346.935 102.8ZM362.985 101.9L361.988 103.634L362.004 103.643L362.021 103.652L362.985 101.9ZM367.56 106.475L365.799 107.423L369.56 106.475H367.56ZM367.56 100.7V98.7H365.56V100.7H367.56ZM384.135 100.7H386.135V98.7H384.135V100.7ZM384.135 143V145H386.135V143H384.135ZM367.56 143H365.56V145H367.56V143ZM367.56 137.225H369.56L365.799 136.277L367.56 137.225ZM362.985 141.875L363.949 143.627L363.965 143.618L363.982 143.609L362.985 141.875ZM346.935 140.975L345.833 142.644L345.844 142.651L345.855 142.658L346.935 140.975ZM340.635 133.475L338.814 134.303L338.822 134.319L338.83 134.336L340.635 133.475ZM365.835 116.6L367.307 115.246L367.307 115.246L365.835 116.6ZM356.985 116.6L355.513 115.246L355.513 115.246L356.985 116.6ZM340.385 121.85C340.385 117.621 341.098 114.07 342.451 111.138L338.819 109.462C337.172 113.03 336.385 117.179 336.385 121.85H340.385ZM342.445 111.15C343.861 108.136 345.729 105.95 348.015 104.483L345.855 101.117C342.84 103.05 340.509 105.864 338.825 109.45L342.445 111.15ZM348.037 104.469C350.347 102.944 352.935 102.175 355.86 102.175V98.175C352.184 98.175 348.823 99.1564 345.833 101.131L348.037 104.469ZM355.86 102.175C358.327 102.175 360.345 102.689 361.988 103.634L363.982 100.166C361.625 98.811 358.892 98.175 355.86 98.175V102.175ZM362.021 103.652C363.694 104.573 364.937 105.823 365.799 107.423L369.321 105.527C368.082 103.227 366.275 101.427 363.949 100.148L362.021 103.652ZM369.56 106.475V100.7H365.56V106.475H369.56ZM367.56 102.7H384.135V98.7H367.56V102.7ZM382.135 100.7V143H386.135V100.7H382.135ZM384.135 141H367.56V145H384.135V141ZM369.56 143V137.225H365.56V143H369.56ZM365.799 136.277C364.933 137.885 363.679 139.169 361.988 140.141L363.982 143.609C366.29 142.281 368.087 140.465 369.321 138.173L365.799 136.277ZM362.021 140.123C360.371 141.03 358.341 141.525 355.86 141.525V145.525C358.878 145.525 361.598 144.92 363.949 143.627L362.021 140.123ZM355.86 141.525C352.923 141.525 350.326 140.775 348.015 139.292L345.855 142.658C348.843 144.575 352.196 145.525 355.86 145.525V141.525ZM348.037 139.306C345.729 137.782 343.855 135.581 342.44 132.614L338.83 134.336C340.515 137.869 342.84 140.668 345.833 142.644L348.037 139.306ZM342.455 132.647C341.097 129.659 340.385 126.078 340.385 121.85H336.385C336.385 126.522 337.172 130.691 338.814 134.303L342.455 132.647ZM369.56 121.85C369.56 119.265 368.894 116.972 367.307 115.246L364.363 117.954C365.075 118.728 365.56 119.935 365.56 121.85H369.56ZM367.307 115.246C365.753 113.557 363.732 112.725 361.41 112.725V116.725C362.688 116.725 363.616 117.143 364.363 117.954L367.307 115.246ZM361.41 112.725C359.088 112.725 357.066 113.557 355.513 115.246L358.457 117.954C359.203 117.143 360.132 116.725 361.41 116.725V112.725ZM355.513 115.246C353.925 116.972 353.26 119.265 353.26 121.85H357.26C357.26 119.935 357.744 118.728 358.457 117.954L355.513 115.246ZM353.26 121.85C353.26 124.435 353.925 126.728 355.513 128.454L358.457 125.746C357.744 124.972 357.26 123.765 357.26 121.85H353.26ZM355.513 128.454C357.066 130.143 359.088 130.975 361.41 130.975V126.975C360.132 126.975 359.203 126.557 358.457 125.746L355.513 128.454ZM361.41 130.975C363.732 130.975 365.753 130.143 367.307 128.454L364.363 125.746C363.616 126.557 362.688 126.975 361.41 126.975V130.975ZM367.307 128.454C368.894 126.728 369.56 124.435 369.56 121.85H365.56C365.56 123.765 365.075 124.972 364.363 125.746L367.307 128.454ZM395.811 110.375L394.067 109.397L394.062 109.406L395.811 110.375ZM403.461 102.8L402.524 101.033L402.513 101.039L403.461 102.8ZM428.586 104.825L427.312 106.367L427.322 106.375L428.586 104.825ZM435.786 117.725V119.725H438.183L437.754 117.367L435.786 117.725ZM418.161 117.725L416.243 118.292L416.667 119.725H418.161V117.725ZM411.111 116.3L409.427 115.222L409.411 115.246L409.396 115.271L411.111 116.3ZM411.111 127.4L409.396 128.429L409.411 128.454L409.427 128.478L411.111 127.4ZM418.161 125.975V123.975H416.667L416.243 125.408L418.161 125.975ZM435.786 125.975L437.754 126.333L438.183 123.975H435.786V125.975ZM428.586 138.875L427.322 137.325L427.312 137.334L428.586 138.875ZM403.461 140.9L402.513 142.661L402.524 142.667L403.461 140.9ZM395.811 133.4L394.056 134.358L394.064 134.374L394.073 134.389L395.811 133.4ZM395.111 121.85C395.111 117.726 395.953 114.247 397.561 111.344L394.062 109.406C392.07 113.003 391.111 117.174 391.111 121.85H395.111ZM397.556 111.353C399.225 108.376 401.503 106.126 404.41 104.561L402.513 101.039C398.92 102.974 396.098 105.774 394.067 109.397L397.556 111.353ZM404.398 104.567C407.375 102.988 410.797 102.175 414.711 102.175V98.175C410.226 98.175 406.147 99.1118 402.524 101.033L404.398 104.567ZM414.711 102.175C419.81 102.175 423.967 103.601 427.312 106.366L429.861 103.284C425.705 99.8486 420.612 98.175 414.711 98.175V102.175ZM427.322 106.375C430.702 109.132 432.891 112.982 433.819 118.083L437.754 117.367C436.682 111.468 434.071 106.718 429.851 103.275L427.322 106.375ZM435.786 115.725H418.161V119.725H435.786V115.725ZM420.079 117.158C419.684 115.82 419.04 114.612 418.024 113.736C416.977 112.832 415.7 112.425 414.336 112.425V116.425C414.872 116.425 415.184 116.568 415.411 116.764C415.671 116.988 415.989 117.43 416.243 118.292L420.079 117.158ZM414.336 112.425C412.228 112.425 410.551 113.465 409.427 115.222L412.796 117.378C413.272 116.635 413.745 116.425 414.336 116.425V112.425ZM409.396 115.271C408.373 116.977 407.986 119.256 407.986 121.85H411.986C411.986 119.544 412.35 118.123 412.826 117.329L409.396 115.271ZM407.986 121.85C407.986 124.444 408.373 126.723 409.396 128.429L412.826 126.371C412.35 125.577 411.986 124.156 411.986 121.85H407.986ZM409.427 128.478C410.551 130.235 412.228 131.275 414.336 131.275V127.275C413.745 127.275 413.272 127.065 412.796 126.322L409.427 128.478ZM414.336 131.275C415.7 131.275 416.977 130.868 418.024 129.964C419.04 129.088 419.684 127.88 420.079 126.542L416.243 125.408C415.989 126.27 415.671 126.712 415.411 126.936C415.184 127.132 414.872 127.275 414.336 127.275V131.275ZM418.161 127.975H435.786V123.975H418.161V127.975ZM433.819 125.617C432.891 130.718 430.702 134.568 427.322 137.325L429.851 140.425C434.071 136.982 436.682 132.232 437.754 126.333L433.819 125.617ZM427.312 137.334C423.967 140.099 419.81 141.525 414.711 141.525V145.525C420.612 145.525 425.705 143.851 429.861 140.416L427.312 137.334ZM414.711 141.525C410.797 141.525 407.375 140.712 404.398 139.133L402.524 142.667C406.147 144.588 410.226 145.525 414.711 145.525V141.525ZM404.41 139.139C401.495 137.569 399.216 135.339 397.549 132.411L394.073 134.389C396.106 137.961 398.928 140.731 402.513 142.661L404.41 139.139ZM397.567 132.442C395.953 129.483 395.111 125.973 395.111 121.85H391.111C391.111 126.527 392.07 130.717 394.056 134.358L397.567 132.442ZM485.539 124.775V126.775H487.274L487.519 125.058L485.539 124.775ZM458.764 124.775V122.775H456.623L456.769 124.912L458.764 124.775ZM467.239 127.775V125.775H465.986L465.44 126.902L467.239 127.775ZM484.864 127.775L486.826 128.167L487.304 125.775H484.864V127.775ZM481.039 135.875L479.487 134.614L479.484 134.618L481.039 135.875ZM473.764 141.5L474.609 143.313L474.615 143.31L474.622 143.307L473.764 141.5ZM452.914 140.9L451.966 142.661L451.977 142.667L452.914 140.9ZM445.264 133.4L443.509 134.358L443.517 134.374L443.526 134.389L445.264 133.4ZM445.264 110.375L443.52 109.397L443.515 109.406L445.264 110.375ZM452.914 102.8L451.977 101.033L451.966 101.039L452.914 102.8ZM475.339 102.8L474.391 104.561L474.407 104.57L474.424 104.578L475.339 102.8ZM482.989 110.15L481.246 111.131L481.252 111.141L481.258 111.151L482.989 110.15ZM468.889 117.5V119.5H470.889V117.5H468.889ZM467.539 114.35L466.259 115.886L466.285 115.908L466.312 115.929L467.539 114.35ZM458.989 117.5L457.02 117.154L456.608 119.5H458.989V117.5ZM483.764 121.475C483.764 122.538 483.695 123.543 483.56 124.492L487.519 125.058C487.684 123.907 487.764 122.712 487.764 121.475H483.764ZM485.539 122.775H458.764V126.775H485.539V122.775ZM456.769 124.912C456.908 126.945 457.418 128.795 458.561 130.164C459.772 131.613 461.463 132.25 463.339 132.25V128.25C462.416 128.25 461.944 127.974 461.63 127.599C461.249 127.142 460.87 126.255 460.76 124.638L456.769 124.912ZM463.339 132.25C464.554 132.25 465.715 131.968 466.736 131.32C467.755 130.673 468.508 129.742 469.039 128.648L465.44 126.902C465.171 127.458 464.874 127.764 464.593 127.943C464.314 128.119 463.925 128.25 463.339 128.25V132.25ZM467.239 129.775H484.864V125.775H467.239V129.775ZM482.903 127.383C482.368 130.061 481.235 132.463 479.487 134.614L482.592 137.136C484.744 134.487 486.161 131.489 486.826 128.167L482.903 127.383ZM479.484 134.618C477.788 136.716 475.608 138.411 472.907 139.693L474.622 143.307C477.821 141.789 480.491 139.734 482.595 137.132L479.484 134.618ZM472.92 139.687C470.309 140.903 467.401 141.525 464.164 141.525V145.525C467.928 145.525 471.42 144.797 474.609 143.313L472.92 139.687ZM464.164 141.525C460.25 141.525 456.829 140.712 453.851 139.133L451.977 142.667C455.6 144.588 459.679 145.525 464.164 145.525V141.525ZM453.863 139.139C450.948 137.569 448.669 135.339 447.003 132.411L443.526 134.389C445.559 137.961 448.381 140.731 451.966 142.661L453.863 139.139ZM447.02 132.442C445.406 129.483 444.564 125.973 444.564 121.85H440.564C440.564 126.527 441.523 130.717 443.509 134.358L447.02 132.442ZM444.564 121.85C444.564 117.726 445.406 114.247 447.014 111.344L443.515 109.406C441.523 113.003 440.564 117.174 440.564 121.85H444.564ZM447.009 111.353C448.678 108.376 450.956 106.126 453.863 104.561L451.966 101.039C448.373 102.974 445.551 105.774 443.52 109.397L447.009 111.353ZM453.851 104.567C456.829 102.988 460.25 102.175 464.164 102.175V98.175C459.679 98.175 455.6 99.1118 451.977 101.033L453.851 104.567ZM464.164 102.175C468.08 102.175 471.471 102.988 474.391 104.561L476.288 101.039C472.708 99.1116 468.649 98.175 464.164 98.175V102.175ZM474.424 104.578C477.38 106.101 479.64 108.276 481.246 111.131L484.733 109.169C482.739 105.624 479.899 102.899 476.255 101.022L474.424 104.578ZM481.258 111.151C482.903 113.997 483.764 117.414 483.764 121.475H487.764C487.764 116.836 486.776 112.703 484.721 109.149L481.258 111.151ZM470.889 117.5C470.889 115.639 470.266 113.937 468.767 112.771L466.312 115.929C466.613 116.163 466.889 116.561 466.889 117.5H470.889ZM468.82 112.814C467.507 111.719 465.907 111.225 464.164 111.225V115.225C465.122 115.225 465.772 115.481 466.259 115.886L468.82 112.814ZM464.164 111.225C462.374 111.225 460.706 111.66 459.384 112.752C458.058 113.847 457.327 115.401 457.02 117.154L460.959 117.846C461.152 116.749 461.533 116.165 461.932 115.836C462.336 115.502 463.005 115.225 464.164 115.225V111.225ZM458.989 119.5H468.889V115.5H458.989V119.5Z" fill="currentColor"/>
</svg>
