<svg width="121" height="50" viewBox="0 0 121 50" fill="none" xmlns="http://www.w3.org/2000/svg">
<g opacity="0.5" clip-path="url(#clip0)">
<path d="M120.61 50H0V49.9607C2.01064 43.9464 7.22174 39.3974 13.6118 38.3337C12.9891 36.5456 12.6513 34.6231 12.6513 32.622C12.6513 23.0246 20.432 15.2439 30.0293 15.2439C32.0182 15.2439 33.9298 15.5777 35.7098 16.1936C36.319 7.14848 43.8487 0 53.0485 0C62.152 0 69.6207 7.0006 70.3655 15.9114C71.885 15.4773 73.4913 15.2439 75.1519 15.2439C84.7493 15.2439 92.53 23.0246 92.53 32.622C92.53 34.0262 92.3631 35.391 92.0483 36.6989C95.0697 34.155 98.9716 32.622 103.232 32.622C112.829 32.622 120.61 40.4027 120.61 50Z" fill="white"/>
</g>
<defs>
<clipPath id="clip0">
<rect width="120.61" height="50" fill="white"/>
</clipPath>
</defs>
</svg>
