<svg width="526" height="122" viewBox="0 0 526 122" fill="none" xmlns="http://www.w3.org/2000/svg">
<path d="M519.65 164.264C532.439 188.422 523.495 221.688 500.295 236.255C480.342 248.782 454.949 247.34 431.433 245.468C366.594 240.307 301.756 235.145 236.919 229.982C213.739 228.136 186.425 231.829 169.442 216.604C151.387 200.416 139.185 158.624 127.845 136.905C119.646 121.196 111.4 105.414 100.862 91.1544C89.1305 75.3028 74.7577 61.5702 58.3678 50.5529C119.751 51.8829 180.86 58.7476 241.872 65.6034L287.693 70.7521C304.924 72.689 322.165 74.6266 339.261 77.5109C359.207 80.8797 378.912 85.524 398.599 90.1684L483.395 110.159" fill="#3A2E26"/>
<g style="mix-blend-mode:multiply" opacity="0.25">
<path d="M424.326 166.457C440.267 168.279 456.413 166.144 471.323 160.242C472.141 159.916 473.096 159.38 473.078 158.503C473.06 157.627 471.247 157.69 471.638 158.475L449.218 102.097C432.346 98.1203 415.473 94.1429 398.6 90.165C378.912 85.524 359.208 80.8762 339.259 77.5137C322.163 74.6293 304.922 72.6911 287.691 70.7549L241.869 65.6048C180.856 58.7483 119.749 51.8842 58.3651 50.5542C72.0959 59.7984 84.4236 70.9568 94.9712 83.6883C96.5749 83.6931 98.1786 83.7378 99.7762 83.8692C98.7867 84.5573 97.7654 85.1958 96.729 85.8109C98.0216 87.4228 99.2849 89.0579 100.519 90.7161L107.869 90.3335C105.955 91.2422 103.993 92.0488 101.992 92.75C102.444 93.3748 102.89 94.002 103.331 94.6318L124.301 93.1835C121.397 93.5256 118.665 94.7403 116.471 96.6661C114.277 98.5919 112.723 101.137 112.017 103.964C117.265 99.4415 123.9 96.8286 130.834 96.5536L122.797 102.718C130.953 99.3723 139.767 97.9182 148.57 98.4657C144.288 99.2769 140.21 100.929 136.576 103.326C142.628 101.868 148.845 101.203 155.07 101.345C153.336 101.402 151.649 101.924 150.189 102.857C148.728 103.789 147.547 105.098 146.772 106.643C153.936 103.528 161.759 102.216 169.553 102.825C163.865 103.144 158.384 105.064 153.748 108.362C157.817 106.859 162.07 105.909 166.393 105.537C163.063 106.033 160.405 108.744 159.056 111.816C157.706 114.888 157.437 118.307 157.204 121.65C158.346 117.842 160.876 114.596 164.297 112.548C167.706 110.532 171.531 109.315 175.483 108.99C172.696 109.714 170.248 111.381 168.56 113.705C166.872 116.029 166.049 118.866 166.231 121.728C167.94 116.756 173.2 114.065 177.995 111.868C176.879 112.864 176.115 114.192 175.818 115.655C175.521 117.118 175.706 118.637 176.346 119.987C177.741 113.247 184.603 108.089 191.494 108.597C187.815 110.409 184.517 112.904 181.777 115.947C186.83 113.39 192.486 112.246 198.141 112.636C196.166 113.067 194.298 113.885 192.644 115.043C190.991 116.201 189.585 117.675 188.51 119.379C192.745 115.198 198.337 112.654 204.284 112.203C202.692 113.389 201.432 114.963 200.625 116.772C199.818 118.582 199.491 120.568 199.676 122.539C202.841 119.197 207.028 116.99 211.584 116.263C209.859 117.715 208.64 119.674 208.101 121.859C207.563 124.044 207.734 126.342 208.589 128.424C209.68 124.227 212.809 120.718 216.628 118.637C220.52 116.643 224.876 115.717 229.246 115.957C225.818 116.78 222.793 118.785 220.707 121.617C224.811 119.772 229.255 118.793 233.758 118.743C231.489 119.651 229.467 121.078 227.855 122.908C227.059 123.83 226.484 124.92 226.175 126.096C225.865 127.271 225.829 128.502 226.069 129.694C229.681 125.982 234.195 123.263 239.173 121.799C237.091 124.263 235.702 127.232 235.146 130.404C235.659 127.452 241.324 124.005 243.714 122.762C247.623 120.724 250.935 121.448 255.151 122.394C252.608 122.685 250.247 123.852 248.478 125.694C246.709 127.535 245.643 129.935 245.465 132.478C250.512 127.934 256.798 124.981 263.529 123.99C261.822 125.083 260.378 126.538 259.3 128.251C258.222 129.963 257.537 131.891 257.293 133.898C262.7 129.192 269.516 126.394 276.683 125.937C274.892 126.445 273.232 127.33 271.816 128.533C270.399 129.736 269.259 131.228 268.473 132.908C273.581 130.764 278.959 129.322 284.458 128.622L275.661 134.622C282.559 134.448 289.353 132.913 295.651 130.108C293.424 133.691 290.441 136.749 286.909 139.071C294.807 138.571 302.491 136.305 309.389 132.442C307.633 133.871 305.878 135.3 304.124 136.731C309.627 135.486 315.13 134.242 320.632 132.999C317.601 137.177 316.112 142.268 316.417 147.412C317.598 144.514 319.529 141.98 322.014 140.067C324.498 138.154 327.448 136.931 330.561 136.523C328.168 138.686 326.311 141.374 325.139 144.374C332.969 139.913 341.795 137.471 350.814 137.271C345.21 139.536 340.183 143.017 336.1 147.46C342.002 145.134 347.904 142.808 353.808 140.481C353.397 143.375 352.065 146.061 350.007 148.145L364.832 144.46C362.579 146.731 360.9 149.503 359.935 152.548C358.97 155.592 358.746 158.822 359.282 161.969C362.881 156.03 368.636 151.696 375.355 149.866C372.509 152.413 370.329 155.612 369.001 159.185C367.674 162.759 367.24 166.601 367.736 170.379C369.86 162.048 374.883 154.737 381.912 149.749C378.147 154.473 375.701 160.103 374.821 166.07C376.222 162.737 378.28 159.717 380.873 157.19C383.467 154.663 386.543 152.68 389.92 151.357C387.129 155.033 385.369 159.381 384.82 163.956C390.37 160.378 395.919 156.801 401.467 153.226C400.305 156.097 399.142 158.968 397.978 161.839C404.631 160.666 411.059 158.469 417.032 155.326C413.247 159.394 410.738 164.474 409.811 169.942L428.95 161.324C426.838 162.424 425.196 164.247 424.326 166.457Z" fill="#3A2E26"/>
</g>
<path d="M469.047 145.688C468.66 144.9 470.472 144.841 470.489 145.717C470.505 146.594 469.548 147.13 468.729 147.453C453.803 153.314 437.652 155.407 421.716 153.544C422.222 152.261 422.994 151.098 423.981 150.132C424.967 149.165 426.148 148.416 427.444 147.934L407.191 156.988C408.133 151.524 410.656 146.451 414.45 142.393C408.469 145.521 402.035 147.702 395.379 148.857C396.549 145.989 397.72 143.122 398.891 140.256L382.217 150.938C382.778 146.365 384.55 142.022 387.351 138.355C383.97 139.668 380.888 141.643 378.288 144.163C375.688 146.683 373.621 149.697 372.212 153.027C373.108 147.063 375.569 141.44 379.345 136.726C372.302 141.696 367.258 148.993 365.111 157.319C364.625 153.54 365.068 149.7 366.405 146.13C367.741 142.559 369.929 139.366 372.781 136.826C366.057 138.64 360.291 142.959 356.677 148.889C356.149 145.74 356.382 142.511 357.355 139.469C358.328 136.426 360.014 133.658 362.273 131.393L347.44 135.039C349.502 132.96 350.84 130.278 351.257 127.385L333.535 134.318C337.632 129.887 342.668 126.419 348.277 124.167C339.258 124.343 330.426 126.762 322.585 131.204C323.764 128.207 325.627 125.523 328.027 123.366C324.912 123.767 321.96 124.982 319.47 126.888C316.98 128.795 315.042 131.324 313.853 134.219C313.564 129.073 315.068 123.985 318.11 119.815L301.591 123.504C303.349 122.078 305.107 120.653 306.866 119.229C299.958 123.073 292.269 125.319 284.37 125.799C287.908 123.487 290.899 120.436 293.135 116.858C286.831 119.648 280.034 121.165 273.137 121.32C276.073 119.329 279.01 117.337 281.948 115.345C276.447 116.03 271.066 117.458 265.952 119.589C266.743 117.911 267.887 116.422 269.306 115.223C270.726 114.024 272.388 113.143 274.179 112.64C267.011 113.079 260.189 115.86 254.77 120.552C255.019 118.546 255.709 116.62 256.792 114.91C257.874 113.2 259.322 111.75 261.033 110.662C254.298 111.634 248.004 114.571 242.944 119.102C243.129 116.56 244.201 114.163 245.975 112.326C247.748 110.489 250.112 109.327 252.655 109.043C248.44 108.085 245.132 107.354 241.218 109.381C238.827 110.62 233.152 114.05 232.631 117.001C233.196 113.831 234.593 110.866 236.68 108.407C231.699 109.857 227.179 112.562 223.556 116.26C223.319 115.068 223.358 113.837 223.671 112.662C223.984 111.487 224.561 110.398 225.36 109.479C226.976 107.652 229.001 106.23 231.272 105.328C226.77 105.368 222.324 106.336 218.216 108.171C220.309 105.345 223.339 103.349 226.769 102.535C222.399 102.283 218.041 103.197 214.144 105.182C210.321 107.252 207.181 110.755 206.08 114.947C205.231 112.863 205.066 110.563 205.61 108.38C206.154 106.196 207.379 104.24 209.109 102.792C204.55 103.507 200.357 105.703 197.183 109.038C197.003 107.067 197.334 105.083 198.145 103.276C198.955 101.469 200.218 99.899 201.812 98.7168C195.863 99.152 190.264 101.681 186.017 105.852C187.098 104.151 188.507 102.68 190.164 101.527C191.82 100.374 193.691 99.5605 195.667 99.1345C190.013 98.7304 184.356 99.8599 179.296 102.403C182.044 99.3669 185.348 96.881 189.031 95.0784C182.141 94.5527 175.267 99.6932 173.854 106.431C173.217 105.08 173.036 103.56 173.337 102.098C173.637 100.635 174.405 99.3087 175.524 98.3157C170.723 100.5 165.456 103.178 163.734 108.145C163.559 105.282 164.389 102.448 166.084 100.128C167.778 97.8083 170.23 96.1478 173.019 95.4314C169.067 95.7455 165.239 96.9521 161.825 98.9597C158.4 100.999 155.862 104.238 154.708 108.042C154.951 104.698 155.228 101.281 156.585 98.2125C157.942 95.1438 160.608 92.439 163.94 91.9512C159.617 92.3122 155.363 93.2514 151.292 94.7433C155.937 91.4583 161.422 89.5534 167.111 89.2499C159.32 88.6207 151.492 89.9112 144.32 93.0074C145.1 91.4637 146.284 90.1584 147.747 89.2295C149.21 88.3006 150.898 87.7824 152.632 87.7299C146.409 87.5709 140.191 88.2201 134.135 89.6613C137.776 87.2743 141.857 85.6332 146.142 84.8339C137.34 84.2627 128.523 85.693 120.358 89.0166C123.041 86.9699 125.725 84.9229 128.41 82.8757C121.475 83.1335 114.834 85.7294 109.575 90.2379C110.288 87.4135 111.848 84.8723 114.047 82.9526C116.246 81.0329 118.98 79.8257 121.886 79.4918L89.563 81.6379C95.0727 80.7018 100.424 79.0055 105.464 76.5979L80.0574 77.8474C86.2612 76.3496 92.1353 73.7278 97.3862 70.1129C89.0607 69.4056 79.2137 68.3316 71.9005 72.9691C74.1512 69.4916 77.3502 66.7245 81.1229 64.9917C75.0325 64.481 68.9551 66.1123 63.9475 69.6017C66.8333 65.3208 71.269 62.3164 76.3276 61.2163C68.7381 61.0334 61.2125 62.6365 54.3624 65.8951C58.7442 61.3159 64.2364 57.9375 70.3099 56.0855C61.1737 55.6375 52.1574 58.3075 44.7517 63.6541C46.0385 60.5149 48.1649 57.787 50.8997 55.767C53.6344 53.7469 56.873 52.5121 60.2632 52.1966C52.3503 52.1326 44.5168 53.6291 36.7462 55.1202L54.0093 48.6676L32.7448 51.2615C38.6376 49.6691 44.2999 47.3274 49.5919 44.2943C39.5881 45.969 29.3666 45.5328 19.2322 45.0938C27.4448 45.3196 35.6052 43.726 43.1238 40.4281C33.6766 37.9897 23.6816 38.7706 14.7319 42.6464C16.9017 39.6844 19.7028 37.2372 22.9344 35.4804C26.1659 33.7236 29.7479 32.7008 33.4233 32.4851C28.9596 31.0409 24.2043 30.7294 19.5891 31.579C14.9738 32.4286 10.6447 34.4124 6.99448 37.3504C7.35724 33.1533 11.3835 30.1168 15.4671 29.0111C19.5507 27.9054 23.8783 28.1655 28.0524 27.4699C18.7993 25.2892 9.05908 26.7142 0.826904 31.4531C4.03438 26.6848 9.42323 23.667 15.0442 22.3934C20.6653 21.1198 26.5309 21.4342 32.2376 22.2386C25.1105 18.0772 17.0682 15.7174 8.81379 15.3656C18.0078 13.8759 28.2846 12.6134 35.8914 17.9678C32.4472 14.3023 29.148 10.5093 25.994 6.58872C31.618 10.7093 37.418 14.5775 43.394 18.1935C39.3766 15.0632 35.7713 11.4414 32.6632 7.41371C38.6297 11.6294 44.6577 15.8768 51.3926 18.7281C46.4142 15.575 42.5667 10.9327 40.4021 5.46719C45.9181 11.2058 52.5925 15.7157 59.9855 18.6999C55.5538 13.666 50.0794 9.64799 43.9391 6.92242C52.4059 9.03858 60.174 13.3122 66.4799 19.3233C63.3855 15.1103 61.9211 9.92712 62.3555 4.72546C64.0784 10.5635 67.8218 15.6054 72.9218 18.9572C71.839 17.0011 70.9359 14.7119 69.4227 13.0633C71.9337 15.3725 75.5931 16.0185 77.9147 18.5485C78.5787 19.2724 79.126 20.1558 80.0083 20.5873C79.5207 19.1771 78.7505 17.8802 77.7445 16.7753C76.7385 15.6703 75.5176 14.7804 74.1558 14.1594C78.254 15.4977 82.529 16.9433 85.5064 20.0485C83.1923 17.1002 80.8078 13.9984 80.1058 10.3214C82.1897 14.025 85.5284 16.8699 89.525 18.3476C87.214 16.2967 85.4111 13.7408 84.2578 10.8801C84.993 12.7062 87.8246 13.4514 89.4767 14.2028C91.7407 15.2362 94.044 16.1779 96.3863 17.0279C94.1484 12.8939 90.5244 9.6731 86.1462 7.927C93.1331 9.1372 99.6997 12.0857 105.236 16.4988C103.487 11.5606 98.5843 8.54625 93.9735 6.0314C100.162 7.5809 105.587 11.2035 110.874 14.7615C109.728 12.5005 108.57 10.1976 108.143 7.70062C107.716 5.20366 108.123 2.4418 109.812 0.54483C110.461 3.92818 111.963 7.09177 114.177 9.73878C116.39 12.3858 119.243 14.4294 122.467 15.678C120.894 12.6169 119.08 9.68505 117.041 6.91003C121.027 9.48107 125.012 12.0528 128.995 14.6252C128.389 13.5853 127.783 12.5455 127.176 11.5056C126.454 10.4365 125.955 9.23381 125.71 7.96895C125.599 7.33394 125.679 6.68049 125.941 6.09093C126.202 5.50136 126.633 5.00206 127.179 4.65596C127.091 5.02437 127.085 5.40743 127.161 5.7785C127.237 6.14958 127.393 6.49978 127.618 6.80477C129.773 10.5843 133.111 13.5581 137.122 15.2727C135.581 13.6694 134.413 11.7477 133.702 9.64437C133.108 7.51139 133.439 5.00687 135.029 3.46424C134.804 5.16375 135.968 6.71119 137.138 7.9669C139.419 10.4132 141.98 12.584 144.77 14.4346C143.344 12.569 142.471 10.343 142.251 8.00887C142.32 8.75541 143.649 9.99667 144.136 10.5389C144.923 11.4196 145.796 12.2205 146.742 12.9299C148.605 14.4633 150.917 15.3533 153.331 15.466L143.738 6.12635C148.408 10.4589 153.917 13.7958 159.928 15.9325L156.483 11.6803C161.852 13.8704 167.406 15.283 172.876 17.1291C171.246 16.0474 169.858 14.6423 168.798 13.0017C167.739 11.3611 167.03 9.52036 166.718 7.59467C170.667 12.3834 176.067 15.7696 182.111 17.246C180.491 16.3847 179.065 15.2014 177.923 13.7693C176.781 12.3372 175.946 10.6869 175.47 8.92056C179.156 12.6452 183.685 15.4353 188.677 17.0568C185.642 14.3593 183.687 10.6617 183.172 6.64376C182.975 8.35152 184.294 9.8281 185.572 10.9785C188.732 13.8349 192.228 16.2998 195.984 18.3194C193.392 14.9904 191.527 11.1592 190.507 7.07104C193.479 12.7836 198.35 17.2915 204.289 19.8249C203.828 18.0342 203.015 16.3522 201.898 14.876C200.78 13.3998 199.38 12.1586 197.778 11.2242C203.476 13.1431 208.791 16.0427 213.482 19.7912C210.956 15.2504 210.033 9.99708 210.86 4.87202C211.601 11.2174 214.807 17.0216 219.793 21.0414C217.621 16.9993 216.457 12.4965 216.398 7.91253C217.823 15.4647 225.01 20.3856 231.748 24.1321C229.813 19.6223 227.137 15.465 223.83 11.831C228.611 16.3916 233.105 21.242 237.286 26.3545L233.611 14.6693C236.202 20.3024 240.548 24.9531 246.005 27.9302C244.418 24.6028 242.83 21.2742 241.244 17.9444C244.402 22.7005 248.233 26.977 252.62 30.6411C250.821 26.5267 250.259 21.9803 251.005 17.5543C250.889 20.2579 251.406 22.9513 252.515 25.4218C253.624 27.8923 255.295 30.0723 257.395 31.7895C256.475 29.1329 255.543 26.4165 255.535 23.6064C255.527 20.7964 256.609 17.8233 258.963 16.2704C256.531 23.0195 260.636 31.3671 267.48 33.5957C267.215 31.7619 266.562 30.0051 265.564 28.4417C264.566 26.8783 263.245 25.5442 261.69 24.5278C266.997 26.4243 271.41 30.2116 274.077 35.1582C271.935 29.9517 269.782 24.0413 272.018 18.8733C271.741 22.262 273.181 25.6094 275.279 28.2907C277.376 30.9721 280.099 33.0886 282.794 35.1768C281.943 30.5402 279.367 26.3941 275.579 23.5672C280.895 25.0347 285.496 28.3719 288.529 32.9599C287.208 28.8333 284.686 25.191 281.281 22.4959C287.397 24.6502 290.592 31.4021 296.106 34.8073C294.249 30.0603 293.511 24.9523 293.947 19.8765C293.692 22.8117 296.081 26.6483 298.02 28.6527C300.129 30.8317 304.078 32.0709 306.934 32.9723C305.456 30.9581 303.978 28.943 302.5 26.927C307.025 29.3923 311.13 32.5526 314.667 36.2915C312.493 32.5065 311.639 28.1115 312.237 23.7922C313.744 27.9698 316.2 31.7443 319.412 34.8218C317.679 32.0235 316.941 28.7263 317.317 25.4601C319.974 28.682 322.631 31.9046 325.289 35.128C323.406 31.4744 322.558 27.3785 322.838 23.281C324.63 26.577 327.197 29.3921 330.319 31.4861C333.441 33.5801 337.025 34.8908 340.766 35.3062C337.818 32.6824 334.873 30.0586 331.931 27.4348C339.285 32.046 347.391 35.3429 355.884 37.177C353.135 34.0289 350.386 30.8799 347.637 27.73L366.49 37.9752C363.527 34.3601 361.335 30.1825 360.045 25.6968C364.58 29.5994 369.114 33.5028 373.647 37.4068L365.571 31.9099L388.869 39.6774C387.186 38.4228 385.84 36.7744 384.95 34.8781C384.06 32.9818 383.653 30.8963 383.766 28.8061C388.001 33.359 393.066 37.0698 398.691 39.7414L391.804 32.2223C398.6 34.8532 404.959 38.4886 410.667 43.0062C409.082 41.5614 407.936 39.7016 407.362 37.6392C406.788 35.5769 406.808 33.3952 407.42 31.3437C409.907 36.2074 413.323 40.5416 417.476 44.1037C415.853 41.0075 413.684 38.2274 411.072 35.8958C417.095 37.9943 422.47 41.6072 426.676 46.3839C426.051 42.5678 426.63 38.6523 428.335 35.1782C428.934 39.1451 429.535 43.1115 430.139 47.0775" fill="url(#paint0_linear)"/>
<defs>
<linearGradient id="paint0_linear" x1="399.1" y1="197.61" x2="362.477" y2="-129.644" gradientUnits="userSpaceOnUse">
<stop offset="0.048" stop-color="#063347"/>
<stop offset="0.385" stop-color="#0B404E"/>
<stop offset="0.995" stop-color="#196461"/>
</linearGradient>
</defs>
</svg>
